<svg width="93" height="104" viewBox="0 0 93 104" fill="none" xmlns="http://www.w3.org/2000/svg">
<path d="M74.7866 42.436C74.763 42.4388 74.7392 42.4429 74.7159 42.448C74.5143 42.4927 74.3404 42.6196 74.2369 42.7983L44.5206 93.9662C44.4279 94.1257 44.3983 94.3141 44.4376 94.4942C44.4531 94.5652 44.8223 96.2491 45.4173 97.9371C46.3522 100.589 47.3222 101.759 48.47 101.62C48.4994 101.617 48.5288 101.612 48.5583 101.607C48.7574 101.57 48.9326 101.453 49.0431 101.283C49.1534 101.113 49.1892 100.905 49.1421 100.708C48.8117 99.3288 49.0112 97.5534 49.2926 96.1252C49.6347 97.7295 49.9204 100.09 49.6793 103.082C49.6521 103.42 49.8587 103.734 50.1805 103.842C50.2873 103.878 50.3976 103.888 50.5042 103.875C50.7185 103.849 50.9168 103.73 51.0387 103.538C52.3134 101.537 52.5381 99.3362 52.7554 97.2082C52.8358 96.422 52.9172 95.6242 53.0511 94.8223C53.893 96.5575 55.2692 97.8266 55.361 97.9103C55.5237 98.0583 55.739 98.1223 55.9472 98.0971C56.0524 98.0844 56.156 98.049 56.2501 97.9898C56.5307 97.8142 56.6602 97.4732 56.5668 97.1555C56.564 97.1454 56.3844 96.4645 56.441 95.1311C56.7187 96.2153 57.0028 96.9803 57.0315 97.0566C57.1521 97.3772 57.476 97.5705 57.8112 97.5298C57.8302 97.5275 57.8489 97.5245 57.8679 97.5208C58.2227 97.4498 58.4738 97.1322 58.4613 96.7706C58.3762 94.3407 59.528 92.0532 60.3137 90.7877C61.4696 92.8915 63.4124 94.7957 63.5102 94.8909C63.6769 95.053 63.9005 95.1207 64.1148 95.0948C64.275 95.0754 64.4301 95.0035 64.5519 94.8796C64.837 94.5899 64.8344 94.1243 64.5464 93.8377C64.4911 93.7799 63.2418 92.4303 64.0826 89.7565C64.8088 91.3458 64.926 94.5737 64.7322 96.8182C64.6992 97.1999 64.9636 97.5434 65.3409 97.6096C65.414 97.6223 65.4868 97.6239 65.5571 97.6153C65.8497 97.5797 66.1024 97.3703 66.1819 97.0718C66.2125 96.9565 66.9162 94.2845 68.2406 87.0986C69.2393 88.2462 69.0384 90.4597 69.0356 90.4865C68.9965 90.8862 69.2839 91.2445 69.6827 91.2924C69.743 91.2996 69.8027 91.2993 69.8604 91.2924C70.1846 91.2531 70.4539 91.0013 70.502 90.6638C70.5165 90.5619 70.7983 88.4639 70.0426 84.7376C71.6951 85.6315 74.0512 86.2895 75.8669 86.0696C76.8575 85.9497 77.6259 85.5823 78.1505 84.9778C78.334 84.7663 78.3821 84.4692 78.2748 84.2105C78.1674 83.9518 77.923 83.7761 77.6437 83.7567C76.206 83.6568 75.1412 83.1397 74.3885 82.1759C73.2067 80.6624 73.0886 78.3945 73.1536 76.9774C74.2389 77.925 75.8798 79.5948 76.4971 81.4734C76.597 81.7778 76.882 81.9829 77.2024 81.9815C77.2313 81.9815 77.2598 81.9794 77.288 81.9762C77.5723 81.9417 77.8143 81.7445 77.9027 81.4667C78.6223 79.203 77.5212 76.0261 76.5743 73.9284C78.6413 75.2008 81.2092 77.1899 81.6926 79.1923C81.7668 79.4993 82.0278 79.7252 82.3422 79.7546C82.3954 79.7594 82.4481 79.7585 82.4994 79.7522C82.7525 79.7215 82.9768 79.5611 83.0843 79.3216C85.3727 74.2259 82.2562 69.9029 80.0304 67.6603C80.8446 67.709 81.7857 67.7104 82.7373 67.5951C84.7166 67.3553 86.2156 66.6757 87.1928 65.575C87.3964 65.3455 87.4371 65.0137 87.2947 64.7416C87.1523 64.4698 86.8564 64.3142 86.5515 64.3512C85.1644 64.5193 83.2692 63.4505 81.5663 62.1636C82.6829 62.5422 83.8975 62.8395 85.0809 62.9103C85.1256 62.9128 85.17 62.9114 85.2139 62.9061C85.3665 62.8876 85.5107 62.8217 85.6254 62.7163C85.7731 62.5804 85.8591 62.3903 85.8637 62.1899C85.8706 61.8919 85.7854 61.5692 85.6272 61.2294C86.5163 62.1465 87.4161 63.2108 88.2906 64.443C88.4483 64.6651 88.7144 64.7812 88.9816 64.7488C89.0017 64.7465 89.0218 64.743 89.0417 64.7391C89.3286 64.6802 89.5535 64.4571 89.615 64.1709C90.6535 59.3388 86.2438 53.9401 83.8492 51.4321C84.8468 51.4598 86.1002 51.4441 87.3396 51.294C89.683 51.0102 91.2772 50.3196 92.0778 49.2414C92.2782 48.9712 92.271 48.5999 92.0604 48.338C91.8972 48.1352 91.6443 48.0374 91.3958 48.0677C91.3232 48.0765 91.2509 48.0964 91.1815 48.1276C90.8301 48.2857 90.4242 48.3937 89.9747 48.448C84.7212 49.0845 75.3916 42.6288 75.298 42.5636C75.1482 42.4591 74.9662 42.4143 74.7866 42.436Z" fill="url(#paint0_linear_206_4229)"/>
<path d="M80.044 50.4331C80.044 50.4331 87.9609 57.4799 86.7135 63.285C81.7393 56.2766 75.9896 54.7971 75.9896 54.7971C75.9896 54.7971 83.1603 59.4289 83.112 61.5236C79.6316 61.3158 75.7333 58.8769 75.7333 58.8769C75.7333 58.8769 81.1315 64.7222 84.5605 64.3068C82.0731 67.1089 76.0301 65.775 76.0301 65.775C76.0301 65.775 83.5124 70.9575 80.5175 77.6266C79.6503 74.0347 73.2717 71.0412 73.2717 71.0412C73.2717 71.0412 76.5422 76.5858 75.5356 79.7522C74.5392 76.7199 71.0942 74.3101 71.0942 74.3101C71.0942 74.3101 69.6385 82.4235 75.912 82.8597C74.1196 84.9253 68.3853 82.7125 67.5426 81.29C68.8139 86.0028 68.4352 88.6581 68.4352 88.6581C68.4352 88.6581 68.8039 85.0268 66.4711 84.167C65.0695 91.8928 64.3223 94.7016 64.3223 94.7016C64.3223 94.7016 64.9107 87.8892 62.7871 86.5153C60.9652 90.324 62.9431 92.2922 62.9431 92.2922C62.9431 92.2922 60.3299 89.7486 59.5194 87.4548C59.5194 87.4548 56.7862 90.8303 56.9189 94.6197C56.9189 94.6197 55.3152 90.3561 56.0753 87.6546C54.396 92.642 55.1363 95.1618 55.1363 95.1618C55.1363 95.1618 51.9955 92.3052 52.6245 89.5528C50.9117 93.499 52.035 97.3858 49.9338 100.685C50.4117 94.7554 48.8045 91.362 48.8045 91.362C48.8045 91.362 47.3467 95.6702 48.0296 98.5232C46.3392 98.8366 44.9094 92.2686 44.9094 92.2686L73.3144 43.3584C73.3144 43.3584 84.2348 50.9729 89.191 48.7416C87.328 51.2506 80.044 50.4331 80.044 50.4331Z" fill="#318063"/>
<path d="M50.7034 88.5276C50.6675 88.7046 50.5677 88.8637 50.4218 88.9728C50.3305 89.0412 41.2681 95.8728 40.2213 101.055C40.1316 101.499 40.1064 101.918 40.1462 102.302C40.154 102.377 40.1501 102.452 40.1358 102.524C40.0863 102.769 39.9138 102.978 39.6702 103.07C39.3551 103.187 39.0005 103.077 38.807 102.802C38.0353 101.703 37.8809 99.9727 38.3483 97.6588C38.5954 96.4352 38.9748 95.2403 39.3146 94.3021C36.181 95.7868 29.6697 98.2756 25.4091 95.7706C25.1566 95.6222 25.0156 95.3385 25.0498 95.0477C25.0521 95.0273 25.0554 95.0072 25.0593 94.9874C25.1127 94.7236 25.3064 94.5074 25.5667 94.4274C27.0114 93.9847 28.3046 93.4653 29.4547 92.9095C29.0825 92.9528 28.7491 92.9322 28.4685 92.8321C28.2794 92.7646 28.1261 92.6233 28.0436 92.4405C27.9793 92.2985 27.9622 92.1409 27.9927 91.9901C28.0015 91.9469 28.014 91.9044 28.0306 91.8628C28.4694 90.7628 29.1324 89.7045 29.8419 88.7645C28.0859 89.9764 26.4764 91.4388 26.2004 92.806C26.1396 93.107 25.8992 93.3388 25.5961 93.3888C25.2932 93.4385 24.9909 93.2956 24.8371 93.03C24.0994 91.7562 23.9256 90.1197 24.3202 88.1655C24.51 87.226 24.8073 86.333 25.1095 85.5752C22.2808 86.9831 17.1969 88.5824 13.0794 84.8079C12.8859 84.6306 12.8041 84.3673 12.8545 84.1174C12.8647 84.0665 12.8804 84.0164 12.9019 83.9674C13.0286 83.6781 13.3249 83.5013 13.6398 83.5274C15.6927 83.698 18.3882 81.8858 20.2459 80.3235C17.9571 80.5628 14.595 80.6095 12.6723 79.2146C12.4363 79.0433 12.3253 78.7515 12.382 78.4709C12.3875 78.4431 12.3947 78.4154 12.4037 78.3879C12.5031 78.0832 12.7875 77.8772 13.1079 77.8781C15.0851 77.8828 17.1861 76.8503 18.427 76.1177C17.1026 75.6107 14.9124 75.0094 13.1039 75.6556C11.9524 76.0671 11.1267 76.9153 10.5797 78.2487C10.4734 78.5079 10.2297 78.6845 9.95045 78.7051C9.67119 78.7256 9.40441 78.5865 9.26108 78.3458C8.85236 77.6578 8.74508 76.8131 8.94251 75.8347C9.30453 74.042 10.6699 72.0122 12.038 70.7246C8.26308 70.2705 6.36003 69.3433 6.26802 69.2975C5.96263 69.1456 5.80797 68.8104 5.8727 68.4902C5.88426 68.4329 5.90299 68.3758 5.92911 68.3205C6.10088 67.9569 6.53179 67.7974 6.8989 67.9618C6.92248 67.9724 8.96031 68.8592 10.3636 68.2718C3.95855 64.7553 1.64331 63.2471 1.54321 63.1819C1.28476 63.0127 1.16523 62.7069 1.22372 62.4179C1.23782 62.3483 1.2621 62.2799 1.29723 62.2145C1.47848 61.8772 1.88766 61.7341 2.23951 61.8853C4.30971 62.7739 7.41073 63.6769 9.14734 63.4885C6.83418 61.8201 5.14658 62.6366 5.12762 62.6461C4.76491 62.8294 4.32242 62.6854 4.13702 62.3236C4.05773 62.1689 4.03831 61.999 4.07021 61.8409C4.11298 61.6293 4.24752 61.4384 4.45373 61.3311C4.57464 61.2685 6.99183 60.0236 9.35169 59.5874C8.39439 58.4426 6.58149 56.628 4.25677 55.9475C3.90954 55.8457 3.68692 55.5075 3.73108 55.1483C3.73339 55.1291 3.73662 55.1104 3.74032 55.0916C3.80713 54.7606 4.09241 54.5139 4.43478 54.5003C4.51616 54.4971 5.33129 54.4677 6.44741 54.5451C5.19905 54.0722 4.49488 54.0285 4.48147 54.028C4.15274 54.0118 3.87163 53.7802 3.79604 53.4598C3.77061 53.3525 3.76991 53.2441 3.79072 53.1412C3.8321 52.9366 3.95901 52.7537 4.14973 52.6462C4.25769 52.5854 5.89559 51.6781 7.80743 51.4242C7.08824 51.0451 6.35655 50.7168 5.63551 50.3934C3.68368 49.5179 1.66527 48.6129 0.166081 46.7734C0.0227506 46.5977 -0.0281011 46.3719 0.0146667 46.1603C0.0359351 46.0551 0.0803186 45.9537 0.147822 45.8635C0.35149 45.5919 0.713982 45.4941 1.02653 45.6265C3.79096 46.7961 6.12145 47.267 7.75217 47.4466C6.48486 46.7306 4.86223 45.983 3.44881 45.8628C3.24699 45.8457 3.06113 45.7463 2.93444 45.5882C2.80799 45.43 2.75204 45.2268 2.77932 45.0262C2.78348 44.9961 2.78833 44.9672 2.79434 44.9381C3.02321 43.8051 4.43895 43.2523 7.2503 43.1982C9.03984 43.1638 10.7545 43.3427 10.8266 43.3504C11.0102 43.3698 11.1796 43.4572 11.3019 43.5952L50.5323 87.8918C50.6692 88.0462 50.735 88.2513 50.7142 88.4566C50.7117 88.4806 50.708 88.5044 50.7034 88.5276Z" fill="url(#paint1_linear_206_4229)"/>
<path d="M5.55064 45.443C8.49214 45.6931 12.1464 48.4488 12.1464 48.4488C12.1464 48.4488 8.39644 48.9102 2.88354 46.5781C5.37009 49.6289 9.43836 49.7859 12.6663 52.6703C10.2359 51.1986 6.5135 53.2949 6.5135 53.2949C6.5135 53.2949 9.1547 53.3851 13.3878 56.567C11.0476 54.9862 6.46726 55.1693 6.46726 55.1693C10.1291 56.2413 12.489 59.9203 12.489 59.9203C10.0413 59.9688 6.78467 61.6606 6.78467 61.6606C6.78467 61.6606 9.29063 60.3937 12.3523 63.3391C10.3681 64.9331 4.04684 62.2159 4.04684 62.2159C4.04684 62.2159 6.49362 63.8181 13.4301 67.6014C11.8708 69.5578 8.5185 68.0568 8.5185 68.0568C8.5185 68.0568 10.9352 69.2587 15.8394 69.5354C14.214 69.8903 10.2861 74.668 11.6921 77.0336C14.0936 71.1786 21.3835 75.1364 21.3835 75.1364C21.3835 75.1364 17.9919 77.6645 14.7797 77.6571C17.4859 79.6205 23.8171 78.2506 23.8171 78.2506C23.8171 78.2506 18.9393 83.3966 15.234 83.0889C20.6572 88.0599 27.9749 82.5519 27.9749 82.5519C27.9749 82.5519 24.7888 87.9025 26.6784 91.1653C27.3666 87.7582 34.6582 84.4507 34.6582 84.4507C34.6582 84.4507 31.0951 87.4031 29.7954 90.662C31.781 91.3708 38.4745 85.9865 38.4745 85.9865C38.4745 85.9865 35.2422 91.0109 26.9734 93.5453C32.1241 96.5737 41.3603 91.2402 41.3603 91.2402C41.3603 91.2402 38.275 97.9397 40.0823 100.513C39.519 95.0727 50.2477 87.0501 50.2477 87.0501L12.5126 44.4411C12.5126 44.4411 5.78598 43.729 5.55064 45.443Z" fill="#318063"/>
<path d="M85.7776 53.6278C85.7776 57.0285 82.0802 59.8978 81.2419 63.0342C80.3745 66.2795 82.1164 70.6083 80.4725 73.4497C78.8051 76.3318 74.1695 76.9775 71.8304 79.3165C69.4914 81.6556 68.8457 86.2911 65.9636 87.9586C63.1224 89.6025 58.7936 87.8606 55.5484 88.728C52.412 89.5662 49.5426 93.2637 46.142 93.2637C42.7414 93.2637 39.872 89.5662 36.7356 88.728C33.4903 87.8606 29.1615 89.6025 26.3201 87.9586C23.438 86.2911 22.7923 81.6556 20.4533 79.3165C18.1142 76.9775 13.4787 76.3318 11.8112 73.4497C10.1673 70.6085 11.9092 66.2797 11.0418 63.0344C10.2036 59.8981 6.5061 57.0287 6.5061 53.6281C6.5061 50.2274 10.2036 47.3581 11.0418 44.2217C11.9092 40.9764 10.1673 36.6476 11.8112 33.8062C13.4787 30.9241 18.1142 30.2784 20.4533 27.9394C22.7923 25.6003 23.438 20.9647 26.3201 19.2973C29.1613 17.6533 33.4901 19.3953 36.7354 18.5279C39.8717 17.6896 42.7411 13.9922 46.1417 13.9922C49.5424 13.9922 52.4117 17.6896 55.5481 18.5279C58.7934 19.3953 63.1222 17.6533 65.9636 19.2973C68.8457 20.9647 69.4914 25.6003 71.8304 27.9394C74.1695 30.2784 78.8048 30.9241 80.4725 33.8062C82.1164 36.6474 80.3745 40.9762 81.2419 44.2214C82.0802 47.3578 85.7776 50.2272 85.7776 53.6278Z" fill="url(#paint2_linear_206_4229)"/>
<path d="M83.7937 51.6455C83.7937 52.3682 83.619 53.065 83.3356 53.7451C82.9789 54.6095 82.4522 55.4456 81.8949 56.2723C80.9288 57.7084 79.8778 59.1112 79.4857 60.5803C78.9496 62.5879 79.4622 65.03 79.4573 67.2359C79.4527 68.4168 79.2992 69.5341 78.7536 70.4763C78.5906 70.7574 78.3969 71.0173 78.1773 71.2582C76.2879 73.3577 72.5372 74.057 70.5438 76.048C68.3238 78.2705 67.7096 82.6754 64.9722 84.2578C62.2727 85.8212 58.1608 84.1657 55.0762 84.9899C52.0979 85.7858 49.3723 89.2979 46.1414 89.2979C42.9104 89.2979 40.1849 85.7858 37.2043 84.9899C34.122 84.1655 30.01 85.8212 27.3106 84.2578C24.5732 82.6754 23.9592 78.2705 21.7367 76.048C19.5164 73.8277 15.1118 73.2137 13.5268 70.4763C13.4654 70.3677 13.4064 70.259 13.3544 70.1458C12.96 69.3027 12.8347 68.3389 12.8278 67.3233C12.8065 65.0938 13.3403 62.6138 12.797 60.5803C12.0011 57.6021 8.48901 54.8765 8.48901 51.6455C8.48901 48.4146 12.0011 45.689 12.797 42.7084C13.6214 39.6261 11.9657 35.5142 13.5268 32.8147C15.1116 30.0774 19.5164 29.4633 21.7367 27.2408C23.9592 25.0208 24.5732 20.6159 27.3106 19.031C30.01 17.4698 34.122 19.1255 37.2043 18.3012C40.1849 17.5052 42.9104 13.9932 46.1414 13.9932C49.3723 13.9932 52.0979 17.5052 55.0762 18.3012C58.1608 19.1255 62.2727 17.4698 64.9722 19.031C67.634 20.5709 68.2882 24.7774 70.3619 27.0494C70.4208 27.1155 70.4823 27.1793 70.5438 27.2406C72.1403 28.8371 74.859 29.6025 76.8522 30.9228C77.6363 31.4399 78.307 32.0424 78.7534 32.8145C80.3168 35.514 78.6614 39.6259 79.4855 42.7082C80.2817 45.689 83.7937 48.4146 83.7937 51.6455Z" fill="url(#paint3_linear_206_4229)"/>
<path d="M78.7042 60.0678C77.8893 63.1171 79.526 67.1839 77.9815 69.8552C76.4157 72.5618 72.0604 73.1689 69.8616 75.3676C67.6652 77.564 67.0581 81.9194 64.3515 83.4852C61.6802 85.0299 57.6131 83.393 54.5664 84.2078C51.6189 84.9966 48.9218 88.471 45.7285 88.471C42.5329 88.471 39.8358 84.9966 36.8906 84.2078C33.8416 83.393 29.7745 85.0297 27.1056 83.4852C24.3966 81.9192 23.7895 77.564 21.5929 75.3653C19.3942 73.1689 15.0388 72.5618 13.473 69.8552C11.9283 67.1839 13.565 63.1168 12.7503 60.0678C11.9616 57.1226 8.4895 54.4255 8.4895 51.2322C8.4895 49.5742 9.42485 48.0507 10.4356 46.5557C11.1205 45.5425 11.8386 44.541 12.325 43.5208C12.5021 43.1477 12.6486 42.772 12.7501 42.3943C13.565 39.3451 11.9283 35.2782 13.4728 32.6092C15.0385 29.9003 19.3939 29.2932 21.5926 27.0968C23.7891 24.8978 24.3961 20.5427 27.1053 18.9769C29.7743 17.4322 33.8414 19.0689 36.8904 18.2543C39.8356 17.4655 42.5327 13.9937 45.7283 13.9937C48.9215 13.9937 51.6187 17.4655 54.5639 18.2543C57.6129 19.0692 61.68 17.4324 64.3513 18.9769C66.9351 20.4719 67.6058 24.506 69.5757 26.7829C69.6654 26.8915 69.7622 26.9953 69.8639 27.097C71.4392 28.6723 74.1245 29.4305 76.0944 30.7318C76.8739 31.2444 77.54 31.8419 77.9815 32.6095C79.5262 35.2784 77.8895 39.3455 78.7042 42.3945C79.4929 45.3397 82.9673 48.0369 82.9673 51.2324C82.9673 54.4252 79.4929 57.1226 78.7042 60.0678Z" fill="url(#paint4_linear_206_4229)"/>
<path d="M26.4955 45.1219C21.25 45.9608 14.7123 46.3668 10.4355 46.5554C11.1205 45.5422 11.8386 44.5407 12.325 43.5205C16.0594 43.7582 21.168 43.947 26.3503 43.7175C27.2426 43.6782 27.3774 44.9809 26.4955 45.1219Z" fill="url(#paint5_linear_206_4229)"/>
<path d="M83.3357 53.7451C82.979 54.6095 82.4523 55.4457 81.895 56.2723C41.8005 57.4132 22.2941 64.8222 13.3547 70.1458C12.9603 69.3027 12.8351 68.3389 12.8281 67.3233C13.48 66.5558 14.1979 65.7197 14.9869 64.8056C37.1406 56.1824 71.5928 54.1867 83.3357 53.7451Z" fill="url(#paint6_linear_206_4229)"/>
<path d="M79.4579 67.2358C79.4532 68.4167 79.2997 69.534 78.7542 70.4763C78.5912 70.7574 78.3974 71.0172 78.1778 71.2581C74.3118 72.2515 64.4174 74.6277 54.8883 75.5709C54.2241 75.6366 54.0852 74.6557 54.7415 74.5348C64.4648 72.7404 74.2335 69.264 79.4579 67.2358Z" fill="url(#paint7_linear_206_4229)"/>
<path d="M76.8524 30.9227C71.8928 32.2413 57.7079 35.7139 45.502 35.764C44.7423 35.7673 44.6351 34.668 45.3818 34.5277C55.1169 32.6988 65.0217 29.1396 70.3621 27.0493C70.4211 27.1154 70.4826 27.1792 70.5441 27.2405C72.1406 28.837 74.859 29.6024 76.8524 30.9227Z" fill="url(#paint8_linear_206_4229)"/>
<path d="M68.8297 15.8284L71.7758 21.7979C71.9496 22.1504 72.286 22.3945 72.6748 22.4512L79.2625 23.4085C80.242 23.5509 80.6331 24.7544 79.9243 25.4454L75.1575 30.092C74.8761 30.3665 74.7476 30.7615 74.8139 31.149L75.9393 37.71C76.1067 38.6856 75.0828 39.4295 74.2066 38.9688L68.3144 35.871C67.9664 35.6882 67.5508 35.6882 67.2029 35.871L61.3106 38.9688C60.4344 39.4293 59.4106 38.6854 59.5779 37.71L60.7033 31.149C60.7696 30.7615 60.6414 30.3665 60.3598 30.092L55.5929 25.4454C54.8841 24.7544 55.2753 23.5509 56.2548 23.4085L62.8424 22.4512C63.2312 22.3945 63.5676 22.1504 63.7414 21.7979L66.6876 15.8284C67.1259 14.9407 68.3916 14.9407 68.8297 15.8284Z" fill="url(#paint9_linear_206_4229)"/>
<path d="M68.3984 15.8071L71.2512 21.5874C71.4197 21.9286 71.7452 22.1651 72.1218 22.2199L78.5007 23.147C79.4492 23.2847 79.8279 24.4503 79.1415 25.1194L74.5256 29.6188C74.253 29.8844 74.1286 30.2672 74.1931 30.6422L75.2829 36.9954C75.4449 37.94 74.4534 38.6604 73.605 38.2144L67.8995 35.2149C67.5627 35.0378 67.1602 35.0378 66.8234 35.2149L61.1179 38.2144C60.2698 38.6604 59.2782 37.94 59.4403 36.9954L60.5298 30.6422C60.5941 30.267 60.4697 29.8844 60.1974 29.6188L55.5815 25.1194C54.8951 24.4503 55.2738 23.2847 56.2223 23.147L62.6012 22.2199C62.9778 22.1651 63.3035 21.9286 63.4718 21.5874L66.3245 15.8071C66.7487 14.9478 67.9745 14.9478 68.3984 15.8071Z" fill="url(#paint10_linear_206_4229)"/>
<path d="M68.2991 15.8022L71.1303 21.5389C71.2974 21.8776 71.6206 22.1124 71.9944 22.1668L78.3252 23.0866C79.2666 23.2235 79.6422 24.3801 78.9612 25.044L74.3802 29.5092C74.1097 29.773 73.9862 30.1528 74.05 30.525L75.1315 36.8301C75.2922 37.7676 74.3083 38.4826 73.4663 38.0399L67.8041 35.063C67.4698 34.8873 67.0703 34.8873 66.736 35.063L61.0738 38.0399C60.2319 38.4826 59.248 37.7676 59.4086 36.8301L60.4901 30.525C60.5539 30.1528 60.4305 29.773 60.16 29.5092L55.579 25.044C54.8979 24.3801 55.2738 23.2232 56.2149 23.0866L62.5457 22.1668C62.9195 22.1124 63.2427 21.8776 63.4099 21.5389L66.2411 15.8022C66.6618 14.9494 67.8781 14.9494 68.2991 15.8022Z" fill="url(#paint11_linear_206_4229)"/>
<path d="M68.4832 17.7264L70.8967 22.6165C71.0391 22.9053 71.3147 23.1055 71.6333 23.1517L77.0299 23.9359C77.8323 24.0524 78.1527 25.0386 77.572 25.6045L73.6669 29.4109C73.4364 29.6356 73.3313 29.9594 73.3856 30.2768L74.3075 35.6515C74.4446 36.4507 73.6059 37.0601 72.8881 36.6828L68.0613 34.1451C67.7763 33.9953 67.4358 33.9953 67.151 34.1451L62.3242 36.6828C61.6066 37.0601 60.7677 36.4507 60.9048 35.6515L61.8267 30.2768C61.8813 29.9594 61.7758 29.6358 61.5454 29.4109L57.6403 25.6045C57.0596 25.0386 57.38 24.0524 58.1824 23.9359L63.579 23.1517C63.8976 23.1055 64.1732 22.9053 64.3156 22.6165L66.7291 17.7264C67.0876 16.9994 68.1245 16.9994 68.4832 17.7264Z" fill="url(#paint12_linear_206_4229)"/>
<path d="M73.2378 29.0898C73.0133 29.3082 72.9113 29.6238 72.9643 29.9326L73.8619 35.1667C73.9951 35.9449 73.1788 36.5376 72.4793 36.1703L67.7792 33.6997C67.5018 33.5536 67.1707 33.5536 66.8933 33.6997L62.1932 36.1703C61.4946 36.5379 60.6772 35.9449 60.8115 35.1667L61.4868 31.2242L61.7082 29.9326C61.7621 29.624 61.6592 29.3085 61.4348 29.0898L57.6323 25.3835C57.0669 24.8317 57.3785 23.8723 58.1606 23.7588L63.4153 22.9955C63.725 22.9504 63.9934 22.7553 64.1326 22.4742L66.4825 17.7124C66.8314 17.0047 67.8407 17.0047 68.1907 17.7124L70.5406 22.4742C70.6789 22.7555 70.9473 22.9504 71.258 22.9955L76.5126 23.7588C76.6028 23.7715 76.686 23.796 76.7625 23.8293C77.3534 24.088 77.5407 24.8955 77.0399 25.3835L73.2378 29.0898Z" fill="url(#paint13_linear_206_4229)"/>
<g opacity="0.6">
<path d="M73.2378 29.09C73.0133 29.3085 72.9113 29.6241 72.9643 29.9329L73.8619 35.167C73.9951 35.9451 73.1788 36.5379 72.4793 36.1705L67.7792 33.6999C67.5018 33.5538 67.1707 33.5538 66.8933 33.6999L62.1932 36.1705C61.4946 36.5381 60.6772 35.9451 60.8115 35.167L61.4868 31.2245C68.7437 29.9858 74.1296 26.106 76.7627 23.8296C77.3536 24.0883 77.5409 24.8958 77.0402 25.3838L73.2378 29.09Z" fill="#F8A45B"/>
</g>
<path d="M25.651 15.8284L28.5971 21.7979C28.7712 22.1504 29.1073 22.3945 29.4961 22.4512L36.0838 23.4085C37.0633 23.5509 37.4544 24.7544 36.7457 25.4454L31.9788 30.092C31.6972 30.3665 31.5689 30.7615 31.6352 31.149L32.7606 37.71C32.928 38.6856 31.9041 39.4295 31.0279 38.9688L25.1357 35.871C24.7878 35.6882 24.3721 35.6882 24.0244 35.871L18.1321 38.9688C17.256 39.4293 16.2321 38.6854 16.3995 37.71L17.5248 31.149C17.5912 30.7615 17.4629 30.3665 17.1813 30.092L12.4144 25.4454C11.7056 24.7544 12.0968 23.5509 13.0763 23.4085L19.6639 22.4512C20.0528 22.3945 20.3891 22.1504 20.563 21.7979L23.5091 15.8284C23.9472 14.9407 25.2129 14.9407 25.651 15.8284Z" fill="url(#paint14_linear_206_4229)"/>
<path d="M25.2192 15.8071L28.072 21.5874C28.2405 21.9286 28.566 22.1651 28.9426 22.2199L35.3215 23.147C36.27 23.2847 36.6486 24.4503 35.9623 25.1194L31.3464 29.6188C31.0738 29.8844 30.9494 30.2672 31.0137 30.6422L32.1035 36.9954C32.2655 37.94 31.274 38.6604 30.4258 38.2144L24.7203 35.2149C24.3835 35.0378 23.981 35.0378 23.6442 35.2149L17.9387 38.2144C17.0906 38.6604 16.099 37.94 16.2609 36.9954L17.3506 30.6422C17.4149 30.267 17.2905 29.8844 17.0182 29.6188L12.4023 25.1194C11.7159 24.4503 12.0946 23.2847 13.0431 23.147L19.422 22.2199C19.7986 22.1651 20.1243 21.9286 20.2926 21.5874L23.1453 15.8071C23.5695 14.9478 24.795 14.9478 25.2192 15.8071Z" fill="url(#paint15_linear_206_4229)"/>
<path d="M25.1201 15.8022L27.9513 21.5389C28.1184 21.8776 28.4416 22.1124 28.8154 22.1668L35.1462 23.0866C36.0876 23.2235 36.4635 24.3801 35.7822 25.044L31.2012 29.5092C30.9307 29.773 30.8073 30.1528 30.8711 30.525L31.9525 36.8301C32.1134 37.7676 31.1293 38.4826 30.2874 38.0399L24.6249 35.063C24.2906 34.8873 23.8911 34.8873 23.5568 35.063L17.8944 38.0399C17.0524 38.4826 16.0685 37.7676 16.2292 36.8301L17.3107 30.525C17.3745 30.1528 17.251 29.773 16.9805 29.5092L12.3995 25.044C11.7185 24.3801 12.0944 23.2232 13.0355 23.0866L19.3663 22.1668C19.7401 22.1124 20.0633 21.8776 20.2304 21.5389L23.0617 15.8022C23.4829 14.9494 24.6991 14.9494 25.1201 15.8022Z" fill="url(#paint16_linear_206_4229)"/>
<path d="M25.3039 17.7264L27.7174 22.6165C27.8598 22.9053 28.1354 23.1055 28.454 23.1517L33.8506 23.9359C34.653 24.0524 34.9734 25.0386 34.3927 25.6045L30.4876 29.4109C30.2572 29.6356 30.152 29.9594 30.2063 30.2768L31.1282 35.6515C31.2653 36.4507 30.4266 37.0601 29.7088 36.6828L24.882 34.1451C24.597 33.9953 24.2565 33.9953 23.9717 34.1451L19.1449 36.6828C18.4273 37.0601 17.5884 36.4507 17.7255 35.6515L18.6474 30.2768C18.7017 29.9594 18.5965 29.6358 18.3661 29.4109L14.461 25.6045C13.8805 25.0386 14.2007 24.0524 15.0031 23.9359L20.3997 23.1517C20.7183 23.1055 20.9939 22.9053 21.1363 22.6165L23.5498 17.7264C23.9083 16.9994 24.9451 16.9994 25.3039 17.7264Z" fill="url(#paint17_linear_206_4229)"/>
<path d="M30.0586 29.0898C29.8341 29.3082 29.7321 29.6238 29.7851 29.9326L30.6827 35.1667C30.8161 35.9449 29.9996 36.5376 29.3001 36.1703L24.6 33.6997C24.3226 33.5536 23.9913 33.5536 23.7141 33.6997L19.0141 36.1703C18.3154 36.5379 17.498 35.9449 17.6323 35.1667L18.3076 31.2242L18.529 29.9326C18.5829 29.624 18.48 29.3085 18.2556 29.0898L14.4531 25.3835C13.8877 24.8317 14.1993 23.8723 14.9814 23.7588L20.2361 22.9955C20.5458 22.9504 20.8142 22.7553 20.9534 22.4742L23.3033 17.7124C23.6522 17.0047 24.6615 17.0047 25.0115 17.7124L27.3614 22.4742C27.4997 22.7555 27.7681 22.9504 28.0788 22.9955L33.3334 23.7588C33.4236 23.7715 33.5068 23.796 33.5833 23.8293C34.1742 24.088 34.3615 24.8955 33.8607 25.3835L30.0586 29.0898Z" fill="url(#paint18_linear_206_4229)"/>
<g opacity="0.6">
<path d="M30.0585 29.09C29.8341 29.3085 29.7321 29.6241 29.7851 29.9329L30.6827 35.167C30.8161 35.9451 29.9996 36.5379 29.3001 36.1705L24.6 33.6999C24.3226 33.5538 23.9913 33.5538 23.7141 33.6999L19.014 36.1705C18.3154 36.5381 17.498 35.9451 17.6323 35.167L18.3076 31.2245C25.5644 29.9858 30.9504 26.106 33.5835 23.8296C34.1744 24.0883 34.3617 24.8958 33.861 25.3838L30.0585 29.09Z" fill="#F8A45B"/>
</g>
<path d="M48.1661 1.11968L53.119 11.1553C53.4115 11.7478 53.9767 12.1586 54.6307 12.2537L65.7057 13.8629C67.3524 14.1022 68.0099 16.1259 66.8184 17.2873L58.8044 25.099C58.3312 25.5602 58.1153 26.2249 58.2269 26.8761L60.1186 37.9065C60.4 39.5465 58.6786 40.7972 57.2058 40.0229L47.3001 34.8152C46.7152 34.5077 46.0166 34.5077 45.4317 34.8152L35.526 40.0229C34.0531 40.7972 32.3318 39.5467 32.6129 37.9065L34.5049 26.8761C34.6165 26.2249 34.4006 25.5602 33.9274 25.099L25.9134 17.2873C24.7219 16.1259 25.3793 14.1022 27.026 13.8629L38.101 12.2537C38.755 12.1586 39.3203 11.7478 39.6127 11.1553L44.5657 1.11968C45.302 -0.372575 47.4298 -0.372575 48.1661 1.11968Z" fill="url(#paint19_linear_206_4229)"/>
<path d="M47.4415 1.08365L52.2375 10.8012C52.5207 11.375 53.0682 11.7726 53.7011 11.8646L64.4252 13.423C66.0196 13.6546 66.6563 15.6141 65.5025 16.7388L57.7426 24.3029C57.2844 24.7495 57.0754 25.3929 57.1836 26.0236L59.0154 36.7042C59.2878 38.2921 57.621 39.5033 56.1948 38.7536L46.603 33.7109C46.0367 33.4131 45.3602 33.4131 44.7939 33.7109L35.2021 38.7536C33.7759 39.5033 32.1091 38.2924 32.3815 36.7042L34.2133 26.0236C34.3215 25.3929 34.1123 24.7495 33.6543 24.3029L25.8944 16.7388C24.7406 15.6141 25.3772 13.6546 26.9717 13.423L37.6958 11.8646C38.329 11.7726 38.8764 11.375 39.1596 10.8012L43.9556 1.08365C44.6681 -0.361215 46.7283 -0.361215 47.4415 1.08365Z" fill="url(#paint20_linear_206_4229)"/>
<path d="M47.274 1.07598L52.0337 10.7203C52.3148 11.2896 52.8579 11.6843 53.4865 11.7756L64.1294 13.3222C65.7118 13.5522 66.3436 15.4968 65.1986 16.613L57.4972 24.12C57.0424 24.5632 56.8351 25.2019 56.9423 25.8277L58.7603 36.4277C59.0306 38.0038 57.3762 39.2055 55.961 38.4616L46.4415 33.457C45.8796 33.1616 45.208 33.1616 44.646 33.457L35.1266 38.4616C33.7113 39.2057 32.057 38.0038 32.3272 36.4277L34.1452 25.8277C34.2525 25.2019 34.0451 24.5632 33.5904 24.12L25.8892 16.613C24.7441 15.4968 25.3759 13.5522 26.9584 13.3222L37.6013 11.7756C38.2297 11.6843 38.7729 11.2896 39.054 10.7203L43.8138 1.07598C44.5216 -0.35801 46.5664 -0.35801 47.274 1.07598Z" fill="url(#paint21_linear_206_4229)"/>
<path d="M47.5836 4.31138L51.641 12.5325C51.8805 13.018 52.3436 13.3544 52.8792 13.4323L61.9518 14.7507C63.3007 14.9467 63.8393 16.6045 62.8633 17.5558L56.2983 23.955C55.9106 24.3328 55.7338 24.8772 55.8253 25.4107L57.3752 34.4465C57.6056 35.7899 56.1955 36.8145 54.9889 36.1801L46.8741 31.914C46.3951 31.662 45.8228 31.662 45.3435 31.914L37.2287 36.1801C36.0222 36.8145 34.612 35.7899 34.8425 34.4465L36.3923 25.4107C36.4839 24.8772 36.307 24.3328 35.9193 23.955L29.3544 17.5558C28.3783 16.6043 28.917 14.9467 30.2659 14.7507L39.3384 13.4323C39.8741 13.3544 40.3371 13.018 40.5766 12.5325L44.634 4.31138C45.2374 3.08891 46.9805 3.08891 47.5836 4.31138Z" fill="url(#paint22_linear_206_4229)"/>
<path d="M55.5765 23.4142C55.1992 23.7816 55.028 24.3121 55.117 24.8311L56.6261 33.6304C56.8501 34.9387 55.4778 35.9353 54.3014 35.3176L46.3999 31.1642C45.9337 30.9187 45.3767 30.9187 44.9107 31.1642L37.0093 35.3176C35.8347 35.9353 34.4605 34.9387 34.6864 33.6304L35.8215 27.0026L36.1939 24.8311C36.2845 24.3121 36.1116 23.7816 35.7343 23.4142L29.342 17.1833C28.3914 16.2558 28.9153 14.6429 30.23 14.4517L39.064 13.1682C39.5846 13.0924 40.0361 12.7646 40.27 12.2918L44.2209 4.28659C44.8074 3.09718 46.5044 3.09718 47.0925 4.28659L51.0434 12.2918C51.2757 12.7646 51.7272 13.0926 52.2494 13.1682L61.0834 14.4517C61.2351 14.4732 61.3749 14.5144 61.5035 14.5703C62.4968 15.0051 62.8117 16.3628 61.9698 17.1833L55.5765 23.4142Z" fill="url(#paint23_linear_206_4229)"/>
<g opacity="0.6">
<path d="M55.5766 23.4145C55.1993 23.7818 55.028 24.3124 55.117 24.8314L56.6261 33.6307C56.8501 34.9389 55.4779 35.9355 54.3014 35.3178L46.4 31.1645C45.9337 30.919 45.3768 30.919 44.9107 31.1645L37.0093 35.3178C35.8347 35.9355 34.4606 34.9389 34.6865 33.6307L35.8215 27.0028C48.0215 24.9204 57.076 18.3979 61.5031 14.5708C62.4964 15.0056 62.8113 16.3634 61.9693 17.1838L55.5766 23.4145Z" fill="#F8A45B"/>
</g>
<path d="M29.9688 41.8932C29.9688 41.6636 29.9764 41.4916 29.9912 41.377C30.0062 41.2623 30.0485 41.1301 30.1183 40.9803C30.2579 40.711 30.647 40.5762 31.2858 40.5762C31.8942 40.5762 32.2736 40.711 32.4232 40.9803C32.5029 41.1298 32.5503 41.2646 32.5653 41.3844C32.5804 41.5041 32.5878 41.6787 32.5878 41.9082V48.8375C32.5878 49.1968 32.6176 49.4238 32.6777 49.5186C32.7376 49.6136 32.8698 49.6608 33.0742 49.6608C33.2785 49.6608 33.4158 49.6682 33.4857 49.6832C33.5555 49.6982 33.6403 49.7407 33.7402 49.8103C33.9397 49.9403 34.0396 50.2944 34.0396 50.8728C34.0396 51.5014 33.9397 51.8856 33.7402 52.0252C33.4808 52.2049 32.8622 52.2347 31.8845 52.1152C31.1161 52.0155 30.6172 51.761 30.3879 51.3518C30.1084 50.8631 29.9688 50.085 29.9688 49.0172V41.8932Z" fill="#562500"/>
<path d="M42.3153 47.2886C42.3153 47.9021 42.1631 48.3564 41.8589 48.6505C41.5545 48.9447 41.2176 49.092 40.8487 49.092H37.3017C37.3017 49.3715 37.4663 49.6059 37.7955 49.7955C38.1247 49.985 38.4541 50.0798 38.7833 50.0798C39.362 50.0798 39.816 50.02 40.1452 49.9002L40.3098 49.8403C40.5493 49.7308 40.7488 49.6757 40.9085 49.6757C41.2276 49.6757 41.502 49.9002 41.7315 50.3492C41.861 50.6185 41.9259 50.8483 41.9259 51.0376C41.9259 51.9258 40.8635 52.3696 38.7382 52.3696C37.9999 52.3696 37.3438 52.2425 36.7702 51.988C36.1964 51.7334 35.75 51.3969 35.4308 50.9777C34.8022 50.1695 34.488 49.2668 34.488 48.269C34.488 47.0119 34.8944 46.0067 35.7077 45.2535C36.5208 44.5004 37.5359 44.1235 38.7533 44.1235C40.1399 44.1235 41.1575 44.6125 41.8062 45.5901C42.1456 46.1089 42.3153 46.6748 42.3153 47.2886ZM39.1576 47.7299C39.5367 47.7299 39.7263 47.5704 39.7263 47.2509C39.7263 47.0216 39.6389 46.8371 39.4644 46.6972C39.2898 46.5576 39.0402 46.4878 38.716 46.4878C38.3917 46.4878 38.0699 46.62 37.7509 46.8843C37.4314 47.1487 37.2719 47.4305 37.2719 47.7299H39.1576Z" fill="#562500"/>
<path d="M50.7861 44.4671C51.3048 44.7764 51.5642 45.1056 51.5642 45.4547C51.5642 45.6544 51.4644 45.9289 51.2649 46.2777L48.1671 51.5906C48.0672 51.7603 47.9075 51.9124 47.6881 52.0472C47.4685 52.182 47.2514 52.2493 47.0371 52.2493C46.8223 52.2493 46.618 52.1968 46.4235 52.0921C46.2289 51.9873 46.0916 51.8801 46.012 51.7703L45.8773 51.6057L42.7642 46.2777C42.5645 45.9485 42.4651 45.6792 42.4651 45.4695C42.4651 45.1103 42.7245 44.7762 43.2432 44.4669C43.6224 44.2475 43.9217 44.1377 44.1411 44.1377C44.3605 44.1377 44.5325 44.2052 44.6573 44.3397C44.7819 44.4745 44.9142 44.6766 45.054 44.9459L47.0147 48.7173L48.975 44.9459C49.0849 44.7566 49.1672 44.6192 49.2219 44.5344C49.2767 44.4498 49.3641 44.3649 49.4839 44.2799C49.6036 44.1953 49.7631 44.1527 49.9629 44.1527C50.1624 44.153 50.4368 44.2577 50.7861 44.4671Z" fill="#562500"/>
<path d="M59.5408 47.2886C59.5408 47.9021 59.3887 48.3564 59.0845 48.6505C58.78 48.9447 58.4432 49.092 58.0743 49.092H54.5273C54.5273 49.3715 54.6919 49.6059 55.0211 49.7955C55.3503 49.985 55.6797 50.0798 56.0089 50.0798C56.5876 50.0798 57.0416 50.02 57.3708 49.9002L57.5354 49.8403C57.7749 49.7308 57.9744 49.6757 58.1341 49.6757C58.4532 49.6757 58.7276 49.9002 58.9574 50.3492C59.0868 50.6185 59.1518 50.8483 59.1518 51.0376C59.1518 51.9258 58.0893 52.3696 55.9641 52.3696C55.2257 52.3696 54.5696 52.2425 53.9961 51.988C53.4223 51.7334 52.9759 51.3969 52.6566 50.9777C52.028 50.1695 51.7139 49.2668 51.7139 48.269C51.7139 47.0119 52.1203 46.0067 52.9336 45.2535C53.7466 44.5004 54.7617 44.1235 55.9791 44.1235C57.3657 44.1235 58.3833 44.6125 59.032 45.5901C59.3712 46.1089 59.5408 46.6748 59.5408 47.2886ZM56.3832 47.7299C56.7623 47.7299 56.9519 47.5704 56.9519 47.2509C56.9519 47.0216 56.8645 46.8371 56.69 46.6972C56.5154 46.5576 56.2658 46.4878 55.9416 46.4878C55.6173 46.4878 55.2955 46.62 54.9765 46.8843C54.657 47.1487 54.4975 47.4305 54.4975 47.7299H56.3832Z" fill="#562500"/>
<path d="M60.5137 41.8932C60.5137 41.6636 60.5213 41.4916 60.5361 41.377C60.5511 41.2623 60.5934 41.1301 60.6633 40.9803C60.8029 40.711 61.192 40.5762 61.8307 40.5762C62.4392 40.5762 62.8183 40.711 62.9681 40.9803C63.0478 41.1298 63.0952 41.2646 63.1103 41.3844C63.1253 41.5041 63.1327 41.6787 63.1327 41.9082V48.8375C63.1327 49.1968 63.1625 49.4238 63.2226 49.5186C63.2825 49.6136 63.4147 49.6608 63.6191 49.6608C63.8234 49.6608 63.9608 49.6682 64.0306 49.6832C64.1004 49.6982 64.1852 49.7407 64.2851 49.8103C64.4846 49.9403 64.5845 50.2944 64.5845 50.8728C64.5845 51.5014 64.4846 51.8856 64.2851 52.0252C64.0255 52.2049 63.4071 52.2347 62.4294 52.1152C61.661 52.0155 61.1624 51.761 60.9328 51.3518C60.6533 50.8631 60.5137 50.085 60.5137 49.0172V41.8932Z" fill="#562500"/>
<path d="M29.9441 41.7834C29.9441 41.5634 29.9513 41.3985 29.9656 41.2883C29.9799 41.1784 30.0204 41.0515 30.0874 40.908C30.2215 40.6495 30.5946 40.5205 31.2073 40.5205C31.7908 40.5205 32.1546 40.6497 32.2982 40.908C32.3747 41.0515 32.4202 41.1808 32.4346 41.2956C32.4489 41.4105 32.4561 41.5779 32.4561 41.798V48.4444C32.4561 48.7888 32.485 49.0068 32.5423 49.0974C32.5996 49.1885 32.7265 49.2338 32.9228 49.2338C33.1189 49.2338 33.2506 49.241 33.3177 49.2553C33.3845 49.2697 33.4659 49.3106 33.5618 49.3774C33.753 49.502 33.8489 49.8416 33.8489 50.3966C33.8489 50.9996 33.753 51.3681 33.5618 51.5019C33.3128 51.6741 32.7194 51.703 31.7817 51.5881C31.0447 51.4927 30.5664 51.2485 30.3463 50.856C30.0782 50.3872 29.9443 49.6407 29.9443 48.6166V41.7834H29.9441Z" fill="#E6E5D1"/>
<path d="M41.7868 46.9584C41.7868 47.547 41.6407 47.9826 41.3489 48.2648C41.0569 48.5471 40.734 48.6883 40.38 48.6883H36.9778C36.9778 48.9565 37.1357 49.1814 37.4515 49.3629C37.7673 49.5449 38.0831 49.6357 38.3988 49.6357C38.9537 49.6357 39.3894 49.5784 39.705 49.4635L39.8629 49.4062C40.0927 49.301 40.2839 49.2483 40.4371 49.2483C40.7432 49.2483 41.0063 49.4635 41.2266 49.8942C41.351 50.1526 41.4134 50.3729 41.4134 50.5546C41.4134 51.4065 40.3942 51.8321 38.3556 51.8321C37.6473 51.8321 37.0183 51.7101 36.4681 51.4662C35.9176 51.2221 35.4895 50.8991 35.1832 50.4973C34.5803 49.7222 34.2788 48.8562 34.2788 47.8991C34.2788 46.6933 34.6688 45.7293 35.4488 45.0066C36.2286 44.2842 37.2023 43.9229 38.3699 43.9229C39.6999 43.9229 40.6762 44.3919 41.2983 45.3296C41.6238 45.8271 41.7868 46.3699 41.7868 46.9584ZM38.7579 47.382C39.1215 47.382 39.3035 47.2289 39.3035 46.9226C39.3035 46.7025 39.2195 46.5257 39.0522 46.3916C38.8846 46.2577 38.6453 46.1907 38.3346 46.1907C38.0234 46.1907 37.7148 46.3176 37.4087 46.5712C37.1024 46.8248 36.9494 47.0951 36.9494 47.3822H38.7579V47.382Z" fill="#E6E5D1"/>
<path d="M49.9116 44.2525C50.4091 44.5491 50.658 44.8649 50.658 45.1999C50.658 45.3916 50.5621 45.6546 50.3709 45.9894L47.3994 51.0852C47.3037 51.2482 47.1504 51.3938 46.94 51.5231C46.7294 51.6523 46.5213 51.7168 46.3156 51.7168C46.1096 51.7168 45.9136 51.6666 45.727 51.5661C45.5405 51.4655 45.4087 51.3629 45.3322 51.2575L45.2029 51.0996L42.2171 45.9891C42.0254 45.6734 41.9299 45.4149 41.9299 45.214C41.9299 44.8696 42.1787 44.5489 42.6764 44.2523C43.04 44.0419 43.3272 43.9365 43.5378 43.9365C43.7481 43.9365 43.9132 44.001 44.033 44.1302C44.1525 44.2595 44.2792 44.4532 44.4135 44.7117L46.2939 48.3291L48.1743 44.7117C48.2795 44.53 48.3585 44.3984 48.4112 44.317C48.4637 44.2359 48.5476 44.1543 48.6623 44.0729C48.7772 43.9918 48.9302 43.9509 49.1216 43.9509C49.3133 43.9511 49.5764 44.0514 49.9116 44.2525Z" fill="#E6E5D1"/>
<path d="M58.309 46.9584C58.309 47.547 58.1629 47.9826 57.8712 48.2648C57.5792 48.5471 57.2562 48.6883 56.9023 48.6883H53.5003C53.5003 48.9565 53.6582 49.1814 53.974 49.3629C54.2897 49.5449 54.6055 49.6357 54.9213 49.6357C55.4761 49.6357 55.9119 49.5784 56.2275 49.4635L56.3854 49.4062C56.6152 49.301 56.8063 49.2483 56.9596 49.2483C57.2657 49.2483 57.5288 49.4635 57.7491 49.8942C57.8735 50.1526 57.9359 50.3729 57.9359 50.5546C57.9359 51.4065 56.9166 51.8321 54.8781 51.8321C54.1698 51.8321 53.5407 51.7101 52.9905 51.4662C52.4401 51.2221 52.0119 50.8991 51.7056 50.4973C51.1027 49.7222 50.8013 48.8562 50.8013 47.8991C50.8013 46.6933 51.1913 45.7293 51.9713 45.0066C52.751 44.2842 53.7247 43.9229 54.8924 43.9229C56.2224 43.9229 57.1987 44.3919 57.8208 45.3296C58.1462 45.8271 58.309 46.3699 58.309 46.9584ZM55.2801 47.382C55.6438 47.382 55.8257 47.2289 55.8257 46.9226C55.8257 46.7025 55.7418 46.5257 55.5744 46.3916C55.4068 46.2577 55.1675 46.1907 54.8568 46.1907C54.5457 46.1907 54.237 46.3176 53.931 46.5712C53.6246 46.8248 53.4716 47.0951 53.4716 47.3822H55.2801V47.382Z" fill="#E6E5D1"/>
<path d="M59.2419 41.7834C59.2419 41.5634 59.2491 41.3985 59.2634 41.2883C59.2778 41.1784 59.3182 41.0515 59.3853 40.908C59.5194 40.6495 59.8925 40.5205 60.5051 40.5205C61.0886 40.5205 61.4525 40.6497 61.596 40.908C61.6725 41.0515 61.7181 41.1808 61.7324 41.2956C61.7468 41.4105 61.7539 41.5779 61.7539 41.798V48.4444C61.7539 48.7888 61.7828 49.0068 61.8402 49.0974C61.8977 49.1885 62.0244 49.2338 62.2207 49.2338C62.4167 49.2338 62.5485 49.241 62.6155 49.2553C62.6823 49.2697 62.7637 49.3106 62.8596 49.3774C63.0508 49.502 63.1468 49.8416 63.1468 50.3966C63.1468 50.9996 63.0511 51.3681 62.8596 51.5019C62.6107 51.6741 62.0175 51.703 61.0796 51.5881C60.3426 51.4927 59.8643 51.2485 59.6442 50.856C59.376 50.3872 59.2422 49.6407 59.2422 48.6166V41.7834H59.2419Z" fill="#E6E5D1"/>
<g filter="url(#filter0_d_206_4229)">
<mask id="path-40-outside-1_206_4229" maskUnits="userSpaceOnUse" x="38" y="55" width="16" height="26" fill="black">
<rect fill="white" x="38" y="55" width="16" height="26"/>
<path d="M51.2265 57.0351V79H45.2634V62.5264H45.1347L40.3299 65.4007V60.3384L45.7353 57.0351H51.2265Z"/>
</mask>
<path d="M51.2265 57.0351V79H45.2634V62.5264H45.1347L40.3299 65.4007V60.3384L45.7353 57.0351H51.2265Z" fill="white"/>
<path d="M51.2265 57.0351H53.0951V55.1666H51.2265V57.0351ZM51.2265 79V80.8685H53.0951V79H51.2265ZM45.2634 79H43.3949V80.8685H45.2634V79ZM45.2634 62.5264H47.132V60.6578H45.2634V62.5264ZM45.1347 62.5264V60.6578H44.6185L44.1755 60.9228L45.1347 62.5264ZM40.3299 65.4007H38.4614V68.6958L41.2892 67.0042L40.3299 65.4007ZM40.3299 60.3384L39.3556 58.7441L38.4614 59.2905V60.3384H40.3299ZM45.7353 57.0351V55.1666H45.2096L44.761 55.4407L45.7353 57.0351ZM49.358 57.0351V79H53.0951V57.0351H49.358ZM51.2265 77.1315H45.2634V80.8685H51.2265V77.1315ZM47.132 79V62.5264H43.3949V79H47.132ZM45.2634 60.6578H45.1347V64.3949H45.2634V60.6578ZM44.1755 60.9228L39.3707 63.7971L41.2892 67.0042L46.094 64.1299L44.1755 60.9228ZM42.1984 65.4007V60.3384H38.4614V65.4007H42.1984ZM41.3043 61.9328L46.7097 58.6295L44.761 55.4407L39.3556 58.7441L41.3043 61.9328ZM45.7353 58.9037H51.2265V55.1666H45.7353V58.9037Z" fill="url(#paint24_linear_206_4229)" mask="url(#path-40-outside-1_206_4229)"/>
</g>
<defs>
<filter id="filter0_d_206_4229" x="40.3298" y="57.0352" width="12.2695" height="23.3376" filterUnits="userSpaceOnUse" color-interpolation-filters="sRGB">
<feFlood flood-opacity="0" result="BackgroundImageFix"/>
<feColorMatrix in="SourceAlpha" type="matrix" values="0 0 0 0 0 0 0 0 0 0 0 0 0 0 0 0 0 0 127 0" result="hardAlpha"/>
<feOffset dx="1.3728" dy="1.3728"/>
<feComposite in2="hardAlpha" operator="out"/>
<feColorMatrix type="matrix" values="0 0 0 0 0.615686 0 0 0 0 0.294118 0 0 0 0 0.0705882 0 0 0 1 0"/>
<feBlend mode="normal" in2="BackgroundImageFix" result="effect1_dropShadow_206_4229"/>
<feBlend mode="normal" in="SourceGraphic" in2="effect1_dropShadow_206_4229" result="shape"/>
</filter>
<linearGradient id="paint0_linear_206_4229" x1="64.8678" y1="117.572" x2="69.3688" y2="57.6274" gradientUnits="userSpaceOnUse">
<stop offset="2.7e-07" stop-color="#95D543"/>
<stop offset="0.2613" stop-color="#72B74E"/>
<stop offset="0.5762" stop-color="#4F9959"/>
<stop offset="0.8338" stop-color="#398760"/>
<stop offset="1" stop-color="#318063"/>
</linearGradient>
<linearGradient id="paint1_linear_206_4229" x1="21.8304" y1="114.34" x2="26.3313" y2="54.3955" gradientUnits="userSpaceOnUse">
<stop offset="2.7e-07" stop-color="#95D543"/>
<stop offset="0.2613" stop-color="#72B74E"/>
<stop offset="0.5762" stop-color="#4F9959"/>
<stop offset="0.8338" stop-color="#398760"/>
<stop offset="1" stop-color="#318063"/>
</linearGradient>
<linearGradient id="paint2_linear_206_4229" x1="38.3429" y1="35.9095" x2="63.0384" y2="92.0158" gradientUnits="userSpaceOnUse">
<stop stop-color="#F8A45B"/>
<stop offset="0.2171" stop-color="#C97F40"/>
<stop offset="0.4733" stop-color="#985825"/>
<stop offset="0.6987" stop-color="#743C11"/>
<stop offset="0.8819" stop-color="#5E2B04"/>
<stop offset="1" stop-color="#562500"/>
</linearGradient>
<linearGradient id="paint3_linear_206_4229" x1="106.294" y1="97.53" x2="30.2581" y2="39.5283" gradientUnits="userSpaceOnUse">
<stop stop-color="#F8A45B"/>
<stop offset="0.3936" stop-color="#CC7937"/>
<stop offset="0.7917" stop-color="#A55318"/>
<stop offset="1" stop-color="#96440C"/>
</linearGradient>
<linearGradient id="paint4_linear_206_4229" x1="35.6151" y1="30.8537" x2="63.6809" y2="87.4137" gradientUnits="userSpaceOnUse">
<stop stop-color="#F8A45B"/>
<stop offset="0.3936" stop-color="#CC7937"/>
<stop offset="0.7917" stop-color="#A55318"/>
<stop offset="1" stop-color="#96440C"/>
</linearGradient>
<linearGradient id="paint5_linear_206_4229" x1="18.5344" y1="42.4367" x2="18.9676" y2="48.1774" gradientUnits="userSpaceOnUse">
<stop offset="0.3844" stop-color="#96440C"/>
<stop offset="0.3989" stop-color="#9A4810"/>
<stop offset="0.5039" stop-color="#B76427"/>
</linearGradient>
<linearGradient id="paint6_linear_206_4229" x1="47.3618" y1="55.4471" x2="48.4449" y2="63.5707" gradientUnits="userSpaceOnUse">
<stop offset="0.3844" stop-color="#96440C"/>
<stop offset="0.3989" stop-color="#9A4810"/>
<stop offset="0.5039" stop-color="#B76427"/>
</linearGradient>
<linearGradient id="paint7_linear_206_4229" x1="66.6278" y1="70.0422" x2="67.9371" y2="75.7707" gradientUnits="userSpaceOnUse">
<stop offset="0.3844" stop-color="#96440C"/>
<stop offset="0.3989" stop-color="#9A4810"/>
<stop offset="0.5039" stop-color="#B76427"/>
</linearGradient>
<linearGradient id="paint8_linear_206_4229" x1="59.9286" y1="28.5773" x2="61.5533" y2="36.3759" gradientUnits="userSpaceOnUse">
<stop offset="0.3844" stop-color="#96440C"/>
<stop offset="0.3989" stop-color="#9A4810"/>
<stop offset="0.5039" stop-color="#B76427"/>
</linearGradient>
<linearGradient id="paint9_linear_206_4229" x1="62.2388" y1="15.749" x2="72.6242" y2="36.7032" gradientUnits="userSpaceOnUse">
<stop stop-color="#F8A45B"/>
<stop offset="0.2171" stop-color="#C97F40"/>
<stop offset="0.4733" stop-color="#985825"/>
<stop offset="0.6987" stop-color="#743C11"/>
<stop offset="0.8819" stop-color="#5E2B04"/>
<stop offset="1" stop-color="#562500"/>
</linearGradient>
<linearGradient id="paint10_linear_206_4229" x1="65.6711" y1="25.2997" x2="82.5321" y2="49.5323" gradientUnits="userSpaceOnUse">
<stop stop-color="#F8A45B"/>
<stop offset="0.3936" stop-color="#CC7937"/>
<stop offset="0.7917" stop-color="#A55318"/>
<stop offset="1" stop-color="#96440C"/>
</linearGradient>
<linearGradient id="paint11_linear_206_4229" x1="65.057" y1="20.642" x2="73.06" y2="39.2552" gradientUnits="userSpaceOnUse">
<stop stop-color="#F8A45B"/>
<stop offset="0.3936" stop-color="#CC7937"/>
<stop offset="0.7917" stop-color="#A55318"/>
<stop offset="1" stop-color="#96440C"/>
</linearGradient>
<linearGradient id="paint12_linear_206_4229" x1="62.2146" y1="18.6464" x2="77.9219" y2="44.3308" gradientUnits="userSpaceOnUse">
<stop stop-color="#F8A45B"/>
<stop offset="0.2171" stop-color="#C97F40"/>
<stop offset="0.4733" stop-color="#985825"/>
<stop offset="0.6987" stop-color="#743C11"/>
<stop offset="0.8819" stop-color="#5E2B04"/>
<stop offset="1" stop-color="#562500"/>
</linearGradient>
<linearGradient id="paint13_linear_206_4229" x1="65.9507" y1="23.0604" x2="70.5347" y2="33.307" gradientUnits="userSpaceOnUse">
<stop offset="5.4e-07" stop-color="#FBE774"/>
<stop offset="0.1675" stop-color="#FADA6F"/>
<stop offset="0.7142" stop-color="#F9B361"/>
<stop offset="1" stop-color="#F8A45B"/>
</linearGradient>
<linearGradient id="paint14_linear_206_4229" x1="19.06" y1="15.749" x2="29.4454" y2="36.7032" gradientUnits="userSpaceOnUse">
<stop stop-color="#F8A45B"/>
<stop offset="0.2171" stop-color="#C97F40"/>
<stop offset="0.4733" stop-color="#985825"/>
<stop offset="0.6987" stop-color="#743C11"/>
<stop offset="0.8819" stop-color="#5E2B04"/>
<stop offset="1" stop-color="#562500"/>
</linearGradient>
<linearGradient id="paint15_linear_206_4229" x1="22.4918" y1="25.2997" x2="39.3528" y2="49.5323" gradientUnits="userSpaceOnUse">
<stop stop-color="#F8A45B"/>
<stop offset="0.3936" stop-color="#CC7937"/>
<stop offset="0.7917" stop-color="#A55318"/>
<stop offset="1" stop-color="#96440C"/>
</linearGradient>
<linearGradient id="paint16_linear_206_4229" x1="21.8779" y1="20.642" x2="29.881" y2="39.2552" gradientUnits="userSpaceOnUse">
<stop stop-color="#F8A45B"/>
<stop offset="0.3936" stop-color="#CC7937"/>
<stop offset="0.7917" stop-color="#A55318"/>
<stop offset="1" stop-color="#96440C"/>
</linearGradient>
<linearGradient id="paint17_linear_206_4229" x1="19.0355" y1="18.6464" x2="34.7427" y2="44.3308" gradientUnits="userSpaceOnUse">
<stop stop-color="#F8A45B"/>
<stop offset="0.2171" stop-color="#C97F40"/>
<stop offset="0.4733" stop-color="#985825"/>
<stop offset="0.6987" stop-color="#743C11"/>
<stop offset="0.8819" stop-color="#5E2B04"/>
<stop offset="1" stop-color="#562500"/>
</linearGradient>
<linearGradient id="paint18_linear_206_4229" x1="22.7716" y1="23.0604" x2="27.3556" y2="33.307" gradientUnits="userSpaceOnUse">
<stop offset="5.4e-07" stop-color="#FBE774"/>
<stop offset="0.1675" stop-color="#FADA6F"/>
<stop offset="0.7142" stop-color="#F9B361"/>
<stop offset="1" stop-color="#F8A45B"/>
</linearGradient>
<linearGradient id="paint19_linear_206_4229" x1="37.0858" y1="0.986403" x2="54.5454" y2="36.2138" gradientUnits="userSpaceOnUse">
<stop stop-color="#F8A45B"/>
<stop offset="0.2171" stop-color="#C97F40"/>
<stop offset="0.4733" stop-color="#985825"/>
<stop offset="0.6987" stop-color="#743C11"/>
<stop offset="0.8819" stop-color="#5E2B04"/>
<stop offset="1" stop-color="#562500"/>
</linearGradient>
<linearGradient id="paint20_linear_206_4229" x1="42.8562" y1="17.0423" x2="71.2024" y2="57.7814" gradientUnits="userSpaceOnUse">
<stop stop-color="#F8A45B"/>
<stop offset="0.3936" stop-color="#CC7937"/>
<stop offset="0.7917" stop-color="#A55318"/>
<stop offset="1" stop-color="#96440C"/>
</linearGradient>
<linearGradient id="paint21_linear_206_4229" x1="41.8236" y1="9.21242" x2="55.278" y2="40.5043" gradientUnits="userSpaceOnUse">
<stop stop-color="#F8A45B"/>
<stop offset="0.3936" stop-color="#CC7937"/>
<stop offset="0.7917" stop-color="#A55318"/>
<stop offset="1" stop-color="#96440C"/>
</linearGradient>
<linearGradient id="paint22_linear_206_4229" x1="37.0453" y1="5.8578" x2="63.4517" y2="49.0375" gradientUnits="userSpaceOnUse">
<stop stop-color="#F8A45B"/>
<stop offset="0.2171" stop-color="#C97F40"/>
<stop offset="0.4733" stop-color="#985825"/>
<stop offset="0.6987" stop-color="#743C11"/>
<stop offset="0.8819" stop-color="#5E2B04"/>
<stop offset="1" stop-color="#562500"/>
</linearGradient>
<linearGradient id="paint23_linear_206_4229" x1="43.3259" y1="13.2779" x2="51.0324" y2="30.5042" gradientUnits="userSpaceOnUse">
<stop offset="5.4e-07" stop-color="#FBE774"/>
<stop offset="0.1675" stop-color="#FADA6F"/>
<stop offset="0.7142" stop-color="#F9B361"/>
<stop offset="1" stop-color="#F8A45B"/>
</linearGradient>
<linearGradient id="paint24_linear_206_4229" x1="47" y1="53" x2="47" y2="84" gradientUnits="userSpaceOnUse">
<stop stop-color="#EC9851"/>
<stop offset="1" stop-color="#9F4D13"/>
</linearGradient>
</defs>
</svg>
