<svg width="93" height="104" viewBox="0 0 93 104" fill="none" xmlns="http://www.w3.org/2000/svg">
<path d="M74.7866 42.436C74.763 42.4388 74.7392 42.4429 74.7159 42.448C74.5143 42.4927 74.3404 42.6196 74.2369 42.7983L44.5206 93.9662C44.4279 94.1257 44.3983 94.3141 44.4376 94.4942C44.4531 94.5652 44.8223 96.2491 45.4173 97.9371C46.3522 100.589 47.3222 101.759 48.47 101.62C48.4994 101.617 48.5288 101.612 48.5583 101.607C48.7574 101.57 48.9326 101.453 49.0431 101.283C49.1534 101.113 49.1892 100.905 49.1421 100.708C48.8117 99.3288 49.0112 97.5534 49.2926 96.1252C49.6347 97.7295 49.9204 100.09 49.6793 103.082C49.6521 103.42 49.8587 103.734 50.1805 103.842C50.2873 103.878 50.3976 103.888 50.5042 103.875C50.7185 103.849 50.9168 103.73 51.0387 103.538C52.3134 101.537 52.5381 99.3362 52.7554 97.2082C52.8358 96.422 52.9172 95.6242 53.0511 94.8223C53.893 96.5575 55.2692 97.8266 55.361 97.9103C55.5237 98.0583 55.739 98.1223 55.9472 98.0971C56.0524 98.0844 56.156 98.049 56.2501 97.9898C56.5307 97.8142 56.6602 97.4732 56.5668 97.1555C56.564 97.1454 56.3844 96.4645 56.441 95.1311C56.7187 96.2153 57.0028 96.9803 57.0315 97.0566C57.1521 97.3772 57.476 97.5705 57.8112 97.5298C57.8302 97.5275 57.8489 97.5245 57.8679 97.5208C58.2227 97.4498 58.4738 97.1322 58.4613 96.7706C58.3762 94.3407 59.528 92.0532 60.3137 90.7877C61.4696 92.8915 63.4124 94.7957 63.5102 94.8909C63.6769 95.053 63.9005 95.1207 64.1148 95.0948C64.275 95.0754 64.4301 95.0035 64.5519 94.8796C64.837 94.5899 64.8344 94.1243 64.5464 93.8377C64.4911 93.7799 63.2418 92.4303 64.0826 89.7565C64.8088 91.3458 64.926 94.5737 64.7322 96.8182C64.6992 97.1999 64.9636 97.5434 65.3409 97.6096C65.414 97.6223 65.4868 97.6239 65.5571 97.6153C65.8497 97.5797 66.1024 97.3703 66.1819 97.0718C66.2125 96.9565 66.9162 94.2845 68.2406 87.0986C69.2393 88.2462 69.0384 90.4597 69.0356 90.4865C68.9965 90.8862 69.2839 91.2445 69.6827 91.2924C69.743 91.2996 69.8027 91.2993 69.8604 91.2924C70.1846 91.2531 70.4539 91.0013 70.502 90.6638C70.5165 90.5619 70.7983 88.4639 70.0426 84.7376C71.6951 85.6315 74.0512 86.2895 75.8669 86.0696C76.8575 85.9497 77.6259 85.5823 78.1505 84.9778C78.334 84.7663 78.3821 84.4692 78.2748 84.2105C78.1674 83.9518 77.923 83.7761 77.6437 83.7567C76.206 83.6568 75.1412 83.1397 74.3885 82.1759C73.2067 80.6624 73.0886 78.3945 73.1536 76.9774C74.2389 77.925 75.8798 79.5948 76.4971 81.4734C76.597 81.7778 76.882 81.9829 77.2024 81.9815C77.2313 81.9815 77.2598 81.9794 77.288 81.9762C77.5723 81.9417 77.8143 81.7445 77.9027 81.4667C78.6223 79.203 77.5212 76.0261 76.5743 73.9284C78.6413 75.2008 81.2092 77.1899 81.6926 79.1923C81.7668 79.4993 82.0278 79.7252 82.3422 79.7546C82.3954 79.7594 82.4481 79.7585 82.4994 79.7522C82.7525 79.7215 82.9768 79.5611 83.0843 79.3216C85.3727 74.2259 82.2562 69.9029 80.0304 67.6603C80.8446 67.709 81.7857 67.7104 82.7373 67.5951C84.7166 67.3553 86.2156 66.6757 87.1928 65.575C87.3964 65.3455 87.4371 65.0137 87.2947 64.7416C87.1523 64.4698 86.8564 64.3142 86.5515 64.3512C85.1644 64.5193 83.2692 63.4505 81.5663 62.1636C82.6829 62.5422 83.8975 62.8395 85.0809 62.9103C85.1256 62.9128 85.17 62.9114 85.2139 62.9061C85.3665 62.8876 85.5107 62.8217 85.6254 62.7163C85.7731 62.5804 85.8591 62.3903 85.8637 62.1899C85.8706 61.8919 85.7854 61.5692 85.6272 61.2294C86.5163 62.1465 87.4161 63.2108 88.2906 64.443C88.4483 64.6651 88.7144 64.7812 88.9816 64.7488C89.0017 64.7465 89.0218 64.743 89.0417 64.7391C89.3286 64.6802 89.5535 64.4571 89.615 64.1709C90.6535 59.3388 86.2438 53.9401 83.8492 51.4321C84.8468 51.4598 86.1002 51.4441 87.3396 51.294C89.683 51.0102 91.2772 50.3196 92.0778 49.2414C92.2782 48.9712 92.271 48.5999 92.0604 48.338C91.8972 48.1352 91.6443 48.0374 91.3958 48.0677C91.3232 48.0765 91.2509 48.0964 91.1815 48.1276C90.8301 48.2857 90.4242 48.3937 89.9747 48.448C84.7212 49.0845 75.3916 42.6288 75.298 42.5636C75.1482 42.4591 74.9662 42.4143 74.7866 42.436Z" fill="url(#paint0_linear_206_4499)"/>
<path d="M80.044 50.4331C80.044 50.4331 87.9609 57.4799 86.7135 63.285C81.7393 56.2766 75.9896 54.7971 75.9896 54.7971C75.9896 54.7971 83.1603 59.4289 83.112 61.5236C79.6316 61.3158 75.7333 58.8769 75.7333 58.8769C75.7333 58.8769 81.1315 64.7222 84.5605 64.3068C82.0731 67.1089 76.0301 65.775 76.0301 65.775C76.0301 65.775 83.5124 70.9575 80.5175 77.6266C79.6503 74.0347 73.2717 71.0412 73.2717 71.0412C73.2717 71.0412 76.5422 76.5858 75.5356 79.7522C74.5392 76.7199 71.0942 74.3101 71.0942 74.3101C71.0942 74.3101 69.6385 82.4235 75.912 82.8597C74.1196 84.9253 68.3853 82.7125 67.5426 81.29C68.8139 86.0028 68.4352 88.6581 68.4352 88.6581C68.4352 88.6581 68.8039 85.0268 66.4711 84.167C65.0695 91.8928 64.3223 94.7016 64.3223 94.7016C64.3223 94.7016 64.9107 87.8892 62.7871 86.5153C60.9652 90.324 62.9431 92.2922 62.9431 92.2922C62.9431 92.2922 60.3299 89.7486 59.5194 87.4548C59.5194 87.4548 56.7862 90.8303 56.9189 94.6197C56.9189 94.6197 55.3152 90.3561 56.0753 87.6546C54.396 92.642 55.1363 95.1618 55.1363 95.1618C55.1363 95.1618 51.9955 92.3052 52.6245 89.5528C50.9117 93.499 52.035 97.3858 49.9338 100.685C50.4117 94.7554 48.8045 91.362 48.8045 91.362C48.8045 91.362 47.3467 95.6702 48.0296 98.5232C46.3392 98.8366 44.9094 92.2686 44.9094 92.2686L73.3144 43.3584C73.3144 43.3584 84.2348 50.9729 89.191 48.7416C87.328 51.2506 80.044 50.4331 80.044 50.4331Z" fill="#318063"/>
<path d="M50.7034 88.5276C50.6675 88.7046 50.5677 88.8637 50.4218 88.9728C50.3305 89.0412 41.2681 95.8728 40.2213 101.055C40.1316 101.499 40.1064 101.918 40.1462 102.302C40.154 102.377 40.1501 102.452 40.1358 102.524C40.0863 102.769 39.9138 102.978 39.6702 103.07C39.3551 103.187 39.0005 103.077 38.807 102.802C38.0353 101.703 37.8809 99.9727 38.3483 97.6588C38.5954 96.4352 38.9748 95.2403 39.3146 94.3021C36.181 95.7868 29.6697 98.2756 25.4091 95.7706C25.1566 95.6222 25.0156 95.3385 25.0498 95.0477C25.0521 95.0273 25.0554 95.0072 25.0593 94.9874C25.1127 94.7236 25.3064 94.5074 25.5667 94.4274C27.0114 93.9847 28.3046 93.4653 29.4547 92.9095C29.0825 92.9528 28.7491 92.9322 28.4685 92.8321C28.2794 92.7646 28.1261 92.6233 28.0436 92.4405C27.9793 92.2985 27.9622 92.1409 27.9927 91.9901C28.0015 91.9469 28.014 91.9044 28.0306 91.8628C28.4694 90.7628 29.1324 89.7045 29.8419 88.7645C28.0859 89.9764 26.4764 91.4388 26.2004 92.806C26.1396 93.107 25.8992 93.3388 25.5961 93.3888C25.2932 93.4385 24.9909 93.2956 24.8371 93.03C24.0994 91.7562 23.9256 90.1197 24.3202 88.1655C24.51 87.226 24.8073 86.333 25.1095 85.5752C22.2808 86.9831 17.1969 88.5824 13.0794 84.8079C12.8859 84.6306 12.8041 84.3673 12.8545 84.1174C12.8647 84.0665 12.8804 84.0164 12.9019 83.9674C13.0286 83.6781 13.3249 83.5013 13.6398 83.5274C15.6927 83.698 18.3882 81.8858 20.2459 80.3235C17.9571 80.5628 14.595 80.6095 12.6723 79.2146C12.4363 79.0433 12.3253 78.7515 12.382 78.4709C12.3875 78.4431 12.3947 78.4154 12.4037 78.3879C12.5031 78.0832 12.7875 77.8772 13.1079 77.8781C15.0851 77.8828 17.1861 76.8503 18.427 76.1177C17.1026 75.6107 14.9124 75.0094 13.1039 75.6556C11.9524 76.0671 11.1267 76.9153 10.5797 78.2487C10.4734 78.5079 10.2297 78.6845 9.95045 78.7051C9.67119 78.7256 9.40441 78.5865 9.26108 78.3458C8.85236 77.6578 8.74508 76.8131 8.94251 75.8347C9.30453 74.042 10.6699 72.0122 12.038 70.7246C8.26308 70.2705 6.36003 69.3433 6.26802 69.2975C5.96263 69.1456 5.80797 68.8104 5.8727 68.4902C5.88426 68.4329 5.90299 68.3758 5.92911 68.3205C6.10088 67.9569 6.53179 67.7974 6.8989 67.9618C6.92248 67.9724 8.96031 68.8592 10.3636 68.2718C3.95855 64.7553 1.64331 63.2471 1.54321 63.1819C1.28476 63.0127 1.16523 62.7069 1.22372 62.4179C1.23782 62.3483 1.2621 62.2799 1.29723 62.2145C1.47848 61.8772 1.88766 61.7341 2.23951 61.8853C4.30971 62.7739 7.41073 63.6769 9.14734 63.4885C6.83418 61.8201 5.14658 62.6366 5.12762 62.6461C4.76491 62.8294 4.32242 62.6854 4.13702 62.3236C4.05773 62.1689 4.03831 61.999 4.07021 61.8409C4.11298 61.6293 4.24752 61.4384 4.45373 61.3311C4.57464 61.2685 6.99183 60.0236 9.35169 59.5874C8.39439 58.4426 6.58149 56.628 4.25677 55.9475C3.90954 55.8457 3.68692 55.5075 3.73108 55.1483C3.73339 55.1291 3.73662 55.1104 3.74032 55.0916C3.80713 54.7606 4.09241 54.5139 4.43478 54.5003C4.51616 54.4971 5.33129 54.4677 6.44741 54.5451C5.19905 54.0722 4.49488 54.0285 4.48147 54.028C4.15274 54.0118 3.87163 53.7802 3.79604 53.4598C3.77061 53.3525 3.76991 53.2441 3.79072 53.1412C3.8321 52.9366 3.95901 52.7537 4.14973 52.6462C4.25769 52.5854 5.89559 51.6781 7.80743 51.4242C7.08824 51.0451 6.35655 50.7168 5.63551 50.3934C3.68368 49.5179 1.66527 48.6129 0.166081 46.7734C0.0227506 46.5977 -0.0281011 46.3719 0.0146667 46.1603C0.0359351 46.0551 0.0803186 45.9537 0.147822 45.8635C0.35149 45.5919 0.713982 45.4941 1.02653 45.6265C3.79096 46.7961 6.12145 47.267 7.75217 47.4466C6.48486 46.7306 4.86223 45.983 3.44881 45.8628C3.24699 45.8457 3.06113 45.7463 2.93444 45.5882C2.80799 45.43 2.75204 45.2268 2.77932 45.0262C2.78348 44.9961 2.78833 44.9672 2.79434 44.9381C3.02321 43.8051 4.43895 43.2523 7.2503 43.1982C9.03984 43.1638 10.7545 43.3427 10.8266 43.3504C11.0102 43.3698 11.1796 43.4572 11.3019 43.5952L50.5323 87.8918C50.6692 88.0462 50.735 88.2513 50.7142 88.4566C50.7117 88.4806 50.708 88.5044 50.7034 88.5276Z" fill="url(#paint1_linear_206_4499)"/>
<path d="M5.55064 45.443C8.49214 45.6931 12.1464 48.4488 12.1464 48.4488C12.1464 48.4488 8.39644 48.9102 2.88354 46.5781C5.37009 49.6289 9.43836 49.7859 12.6663 52.6703C10.2359 51.1986 6.5135 53.2949 6.5135 53.2949C6.5135 53.2949 9.1547 53.3851 13.3878 56.567C11.0476 54.9862 6.46726 55.1693 6.46726 55.1693C10.1291 56.2413 12.489 59.9203 12.489 59.9203C10.0413 59.9688 6.78467 61.6606 6.78467 61.6606C6.78467 61.6606 9.29063 60.3937 12.3523 63.3391C10.3681 64.9331 4.04684 62.2159 4.04684 62.2159C4.04684 62.2159 6.49362 63.8181 13.4301 67.6014C11.8708 69.5578 8.5185 68.0568 8.5185 68.0568C8.5185 68.0568 10.9352 69.2587 15.8394 69.5354C14.214 69.8903 10.2861 74.668 11.6921 77.0336C14.0936 71.1786 21.3835 75.1364 21.3835 75.1364C21.3835 75.1364 17.9919 77.6645 14.7797 77.6571C17.4859 79.6205 23.8171 78.2506 23.8171 78.2506C23.8171 78.2506 18.9393 83.3966 15.234 83.0889C20.6572 88.0599 27.9749 82.5519 27.9749 82.5519C27.9749 82.5519 24.7888 87.9025 26.6784 91.1653C27.3666 87.7582 34.6582 84.4507 34.6582 84.4507C34.6582 84.4507 31.0951 87.4031 29.7954 90.662C31.781 91.3708 38.4745 85.9865 38.4745 85.9865C38.4745 85.9865 35.2422 91.0109 26.9734 93.5453C32.1241 96.5737 41.3603 91.2402 41.3603 91.2402C41.3603 91.2402 38.275 97.9397 40.0823 100.513C39.519 95.0727 50.2477 87.0501 50.2477 87.0501L12.5126 44.4411C12.5126 44.4411 5.78598 43.729 5.55064 45.443Z" fill="#318063"/>
<path d="M85.7776 53.6278C85.7776 57.0285 82.0802 59.8978 81.2419 63.0342C80.3745 66.2795 82.1164 70.6083 80.4725 73.4497C78.8051 76.3318 74.1695 76.9775 71.8304 79.3165C69.4914 81.6556 68.8457 86.2911 65.9636 87.9586C63.1224 89.6025 58.7936 87.8606 55.5484 88.728C52.412 89.5662 49.5426 93.2637 46.142 93.2637C42.7414 93.2637 39.872 89.5662 36.7356 88.728C33.4903 87.8606 29.1615 89.6025 26.3201 87.9586C23.438 86.2911 22.7923 81.6556 20.4533 79.3165C18.1142 76.9775 13.4787 76.3318 11.8112 73.4497C10.1673 70.6085 11.9092 66.2797 11.0418 63.0344C10.2036 59.8981 6.5061 57.0287 6.5061 53.6281C6.5061 50.2274 10.2036 47.3581 11.0418 44.2217C11.9092 40.9764 10.1673 36.6476 11.8112 33.8062C13.4787 30.9241 18.1142 30.2784 20.4533 27.9394C22.7923 25.6003 23.438 20.9647 26.3201 19.2973C29.1613 17.6533 33.4901 19.3953 36.7354 18.5279C39.8717 17.6896 42.7411 13.9922 46.1417 13.9922C49.5424 13.9922 52.4117 17.6896 55.5481 18.5279C58.7934 19.3953 63.1222 17.6533 65.9636 19.2973C68.8457 20.9647 69.4914 25.6003 71.8304 27.9394C74.1695 30.2784 78.8048 30.9241 80.4725 33.8062C82.1164 36.6474 80.3745 40.9762 81.2419 44.2214C82.0802 47.3578 85.7776 50.2272 85.7776 53.6278Z" fill="url(#paint2_linear_206_4499)"/>
<path d="M83.7937 51.6455C83.7937 52.3682 83.619 53.065 83.3356 53.7451C82.9789 54.6095 82.4522 55.4456 81.8949 56.2723C80.9288 57.7084 79.8778 59.1112 79.4857 60.5803C78.9496 62.5879 79.4622 65.03 79.4573 67.2359C79.4527 68.4168 79.2992 69.5341 78.7536 70.4763C78.5906 70.7574 78.3969 71.0173 78.1773 71.2582C76.2879 73.3577 72.5372 74.057 70.5438 76.048C68.3238 78.2705 67.7096 82.6754 64.9722 84.2578C62.2727 85.8212 58.1608 84.1657 55.0762 84.9899C52.0979 85.7858 49.3723 89.2979 46.1414 89.2979C42.9104 89.2979 40.1849 85.7858 37.2043 84.9899C34.122 84.1655 30.01 85.8212 27.3106 84.2578C24.5732 82.6754 23.9592 78.2705 21.7367 76.048C19.5164 73.8277 15.1118 73.2137 13.5268 70.4763C13.4654 70.3677 13.4064 70.259 13.3544 70.1458C12.96 69.3027 12.8347 68.3389 12.8278 67.3233C12.8065 65.0938 13.3403 62.6138 12.797 60.5803C12.0011 57.6021 8.48901 54.8765 8.48901 51.6455C8.48901 48.4146 12.0011 45.689 12.797 42.7084C13.6214 39.6261 11.9657 35.5142 13.5268 32.8147C15.1116 30.0774 19.5164 29.4633 21.7367 27.2408C23.9592 25.0208 24.5732 20.6159 27.3106 19.031C30.01 17.4698 34.122 19.1255 37.2043 18.3012C40.1849 17.5052 42.9104 13.9932 46.1414 13.9932C49.3723 13.9932 52.0979 17.5052 55.0762 18.3012C58.1608 19.1255 62.2727 17.4698 64.9722 19.031C67.634 20.5709 68.2882 24.7774 70.3619 27.0494C70.4208 27.1155 70.4823 27.1793 70.5438 27.2406C72.1403 28.8371 74.859 29.6025 76.8522 30.9228C77.6363 31.4399 78.307 32.0424 78.7534 32.8145C80.3168 35.514 78.6614 39.6259 79.4855 42.7082C80.2817 45.689 83.7937 48.4146 83.7937 51.6455Z" fill="url(#paint3_linear_206_4499)"/>
<path d="M78.7042 60.0678C77.8893 63.1171 79.526 67.1839 77.9815 69.8552C76.4157 72.5618 72.0604 73.1689 69.8616 75.3676C67.6652 77.564 67.0581 81.9194 64.3515 83.4852C61.6802 85.0299 57.6131 83.393 54.5664 84.2078C51.6189 84.9966 48.9218 88.471 45.7285 88.471C42.5329 88.471 39.8358 84.9966 36.8906 84.2078C33.8416 83.393 29.7745 85.0297 27.1056 83.4852C24.3966 81.9192 23.7895 77.564 21.5929 75.3653C19.3942 73.1689 15.0388 72.5618 13.473 69.8552C11.9283 67.1839 13.565 63.1168 12.7503 60.0678C11.9616 57.1226 8.4895 54.4255 8.4895 51.2322C8.4895 49.5742 9.42485 48.0507 10.4356 46.5557C11.1205 45.5425 11.8386 44.541 12.325 43.5208C12.5021 43.1477 12.6486 42.772 12.7501 42.3943C13.565 39.3451 11.9283 35.2782 13.4728 32.6092C15.0385 29.9003 19.3939 29.2932 21.5926 27.0968C23.7891 24.8978 24.3961 20.5427 27.1053 18.9769C29.7743 17.4322 33.8414 19.0689 36.8904 18.2543C39.8356 17.4655 42.5327 13.9937 45.7283 13.9937C48.9215 13.9937 51.6187 17.4655 54.5639 18.2543C57.6129 19.0692 61.68 17.4324 64.3513 18.9769C66.9351 20.4719 67.6058 24.506 69.5757 26.7829C69.6654 26.8915 69.7622 26.9953 69.8639 27.097C71.4392 28.6723 74.1245 29.4305 76.0944 30.7318C76.8739 31.2444 77.54 31.8419 77.9815 32.6095C79.5262 35.2784 77.8895 39.3455 78.7042 42.3945C79.4929 45.3397 82.9673 48.0369 82.9673 51.2324C82.9673 54.4252 79.4929 57.1226 78.7042 60.0678Z" fill="url(#paint4_linear_206_4499)"/>
<path d="M26.4955 45.1219C21.25 45.9608 14.7123 46.3668 10.4355 46.5554C11.1205 45.5422 11.8386 44.5407 12.325 43.5205C16.0594 43.7582 21.168 43.947 26.3503 43.7175C27.2426 43.6782 27.3774 44.9809 26.4955 45.1219Z" fill="url(#paint5_linear_206_4499)"/>
<path d="M83.3357 53.7451C82.979 54.6095 82.4523 55.4457 81.895 56.2723C41.8005 57.4132 22.2941 64.8222 13.3547 70.1458C12.9603 69.3027 12.8351 68.3389 12.8281 67.3233C13.48 66.5558 14.1979 65.7197 14.9869 64.8056C37.1406 56.1824 71.5928 54.1867 83.3357 53.7451Z" fill="url(#paint6_linear_206_4499)"/>
<path d="M79.4579 67.2358C79.4532 68.4167 79.2997 69.534 78.7542 70.4763C78.5912 70.7574 78.3974 71.0172 78.1778 71.2581C74.3118 72.2515 64.4174 74.6277 54.8883 75.5709C54.2241 75.6366 54.0852 74.6557 54.7415 74.5348C64.4648 72.7404 74.2335 69.264 79.4579 67.2358Z" fill="url(#paint7_linear_206_4499)"/>
<path d="M76.8524 30.9227C71.8928 32.2413 57.7079 35.7139 45.502 35.764C44.7423 35.7673 44.6351 34.668 45.3818 34.5277C55.1169 32.6988 65.0217 29.1396 70.3621 27.0493C70.4211 27.1154 70.4826 27.1792 70.5441 27.2405C72.1406 28.837 74.859 29.6024 76.8524 30.9227Z" fill="url(#paint8_linear_206_4499)"/>
<path d="M68.8297 15.8284L71.7758 21.7979C71.9496 22.1504 72.286 22.3945 72.6748 22.4512L79.2625 23.4085C80.242 23.5509 80.6331 24.7544 79.9243 25.4454L75.1575 30.092C74.8761 30.3665 74.7476 30.7615 74.8139 31.149L75.9393 37.71C76.1067 38.6856 75.0828 39.4295 74.2066 38.9688L68.3144 35.871C67.9664 35.6882 67.5508 35.6882 67.2029 35.871L61.3106 38.9688C60.4344 39.4293 59.4106 38.6854 59.5779 37.71L60.7033 31.149C60.7696 30.7615 60.6414 30.3665 60.3598 30.092L55.5929 25.4454C54.8841 24.7544 55.2753 23.5509 56.2548 23.4085L62.8424 22.4512C63.2312 22.3945 63.5676 22.1504 63.7414 21.7979L66.6876 15.8284C67.1259 14.9407 68.3916 14.9407 68.8297 15.8284Z" fill="url(#paint9_linear_206_4499)"/>
<path d="M68.3984 15.8071L71.2512 21.5874C71.4197 21.9286 71.7452 22.1651 72.1218 22.2199L78.5007 23.147C79.4492 23.2847 79.8279 24.4503 79.1415 25.1194L74.5256 29.6188C74.253 29.8844 74.1286 30.2672 74.1931 30.6422L75.2829 36.9954C75.4449 37.94 74.4534 38.6604 73.605 38.2144L67.8995 35.2149C67.5627 35.0378 67.1602 35.0378 66.8234 35.2149L61.1179 38.2144C60.2698 38.6604 59.2782 37.94 59.4403 36.9954L60.5298 30.6422C60.5941 30.267 60.4697 29.8844 60.1974 29.6188L55.5815 25.1194C54.8951 24.4503 55.2738 23.2847 56.2223 23.147L62.6012 22.2199C62.9778 22.1651 63.3035 21.9286 63.4718 21.5874L66.3245 15.8071C66.7487 14.9478 67.9745 14.9478 68.3984 15.8071Z" fill="url(#paint10_linear_206_4499)"/>
<path d="M68.2991 15.8022L71.1303 21.5389C71.2974 21.8776 71.6206 22.1124 71.9944 22.1668L78.3252 23.0866C79.2666 23.2235 79.6422 24.3801 78.9612 25.044L74.3802 29.5092C74.1097 29.773 73.9862 30.1528 74.05 30.525L75.1315 36.8301C75.2922 37.7676 74.3083 38.4826 73.4663 38.0399L67.8041 35.063C67.4698 34.8873 67.0703 34.8873 66.736 35.063L61.0738 38.0399C60.2319 38.4826 59.248 37.7676 59.4086 36.8301L60.4901 30.525C60.5539 30.1528 60.4305 29.773 60.16 29.5092L55.579 25.044C54.8979 24.3801 55.2738 23.2232 56.2149 23.0866L62.5457 22.1668C62.9195 22.1124 63.2427 21.8776 63.4099 21.5389L66.2411 15.8022C66.6618 14.9494 67.8781 14.9494 68.2991 15.8022Z" fill="url(#paint11_linear_206_4499)"/>
<path d="M68.4832 17.7264L70.8967 22.6165C71.0391 22.9053 71.3147 23.1055 71.6333 23.1517L77.0299 23.9359C77.8323 24.0524 78.1527 25.0386 77.572 25.6045L73.6669 29.4109C73.4364 29.6356 73.3313 29.9594 73.3856 30.2768L74.3075 35.6515C74.4446 36.4507 73.6059 37.0601 72.8881 36.6828L68.0613 34.1451C67.7763 33.9953 67.4358 33.9953 67.151 34.1451L62.3242 36.6828C61.6066 37.0601 60.7677 36.4507 60.9048 35.6515L61.8267 30.2768C61.8813 29.9594 61.7758 29.6358 61.5454 29.4109L57.6403 25.6045C57.0596 25.0386 57.38 24.0524 58.1824 23.9359L63.579 23.1517C63.8976 23.1055 64.1732 22.9053 64.3156 22.6165L66.7291 17.7264C67.0876 16.9994 68.1245 16.9994 68.4832 17.7264Z" fill="url(#paint12_linear_206_4499)"/>
<path d="M25.6507 15.8284L28.5968 21.7979C28.7709 22.1504 29.1071 22.3945 29.4959 22.4512L36.0835 23.4085C37.063 23.5509 37.4542 24.7544 36.7454 25.4454L31.9785 30.092C31.697 30.3665 31.5686 30.7615 31.635 31.149L32.7604 37.71C32.9277 38.6856 31.9038 39.4295 31.0277 38.9688L25.1354 35.871C24.7875 35.6882 24.3719 35.6882 24.0242 35.871L18.1319 38.9688C17.2557 39.4293 16.2318 38.6854 16.3992 37.71L17.5246 31.149C17.591 30.7615 17.4626 30.3665 17.1811 30.092L12.4142 25.4454C11.7054 24.7544 12.0965 23.5509 13.076 23.4085L19.6637 22.4512C20.0525 22.3945 20.3889 22.1504 20.5627 21.7979L23.5089 15.8284C23.9469 14.9407 25.2126 14.9407 25.6507 15.8284Z" fill="url(#paint13_linear_206_4499)"/>
<path d="M25.219 15.8071L28.0717 21.5874C28.2402 21.9286 28.5657 22.1651 28.9423 22.2199L35.3212 23.147C36.2697 23.2847 36.6484 24.4503 35.962 25.1194L31.3461 29.6188C31.0736 29.8844 30.9492 30.2672 31.0134 30.6422L32.1032 36.9954C32.2653 37.94 31.2738 38.6604 30.4256 38.2144L24.7201 35.2149C24.3833 35.0378 23.9808 35.0378 23.644 35.2149L17.9385 38.2144C17.0903 38.6604 16.0988 37.94 16.2606 36.9954L17.3504 30.6422C17.4147 30.267 17.2903 29.8844 17.018 29.6188L12.402 25.1194C11.7157 24.4503 12.0943 23.2847 13.0429 23.147L19.4217 22.2199C19.7983 22.1651 20.1241 21.9286 20.2924 21.5874L23.1451 15.8071C23.5693 14.9478 24.7948 14.9478 25.219 15.8071Z" fill="url(#paint14_linear_206_4499)"/>
<path d="M25.1198 15.8022L27.951 21.5389C28.1182 21.8776 28.4414 22.1124 28.8152 22.1668L35.146 23.0866C36.0873 23.2235 36.4632 24.3801 35.782 25.044L31.201 29.5092C30.9305 29.773 30.807 30.1528 30.8708 30.525L31.9523 36.8301C32.1132 37.7676 31.1291 38.4826 30.2871 38.0399L24.6246 35.063C24.2904 34.8873 23.8909 34.8873 23.5566 35.063L17.8941 38.0399C17.0522 38.4826 16.0683 37.7676 16.229 36.8301L17.3104 30.525C17.3742 30.1528 17.2508 29.773 16.9803 29.5092L12.3993 25.044C11.7182 24.3801 12.0941 23.2232 13.0352 23.0866L19.366 22.1668C19.7399 22.1124 20.063 21.8776 20.2302 21.5389L23.0614 15.8022C23.4826 14.9494 24.6988 14.9494 25.1198 15.8022Z" fill="url(#paint15_linear_206_4499)"/>
<path d="M25.3037 17.7264L27.7172 22.6165C27.8596 22.9053 28.1351 23.1055 28.4537 23.1517L33.8503 23.9359C34.6528 24.0524 34.9732 25.0386 34.3924 25.6045L30.4874 29.4109C30.2569 29.6356 30.1517 29.9594 30.206 30.2768L31.128 35.6515C31.2651 36.4507 30.4264 37.0601 29.7086 36.6828L24.8818 34.1451C24.5967 33.9953 24.2562 33.9953 23.9714 34.1451L19.1447 36.6828C18.4271 37.0601 17.5881 36.4507 17.7252 35.6515L18.6472 30.2768C18.7015 29.9594 18.5963 29.6358 18.3658 29.4109L14.4608 25.6045C13.8803 25.0386 14.2005 24.0524 15.0029 23.9359L20.3995 23.1517C20.7181 23.1055 20.9936 22.9053 21.136 22.6165L23.5495 17.7264C23.9081 16.9994 24.9449 16.9994 25.3037 17.7264Z" fill="url(#paint16_linear_206_4499)"/>
<path d="M48.1658 1.11968L53.1188 11.1553C53.4112 11.7478 53.9765 12.1586 54.6305 12.2537L65.7055 13.8629C67.3522 14.1022 68.0097 16.1259 66.8182 17.2873L58.8042 25.099C58.3309 25.5602 58.115 26.2249 58.2267 26.8761L60.1184 37.9065C60.3997 39.5465 58.6784 40.7972 57.2056 40.0229L47.2998 34.8152C46.715 34.5077 46.0163 34.5077 45.4315 34.8152L35.5257 40.0229C34.0529 40.7972 32.3315 39.5467 32.6126 37.9065L34.5046 26.8761C34.6163 26.2249 34.4004 25.5602 33.9271 25.099L25.9131 17.2873C24.7216 16.1259 25.3791 14.1022 27.0258 13.8629L38.1008 12.2537C38.7548 12.1586 39.32 11.7478 39.6125 11.1553L44.5655 1.11968C45.3018 -0.372575 47.4295 -0.372575 48.1658 1.11968Z" fill="url(#paint17_linear_206_4499)"/>
<path d="M47.4413 1.08365L52.2373 10.8012C52.5205 11.375 53.0679 11.7726 53.7009 11.8646L64.425 13.423C66.0194 13.6546 66.6561 15.6141 65.5023 16.7388L57.7423 24.3029C57.2841 24.7495 57.0752 25.3929 57.1833 26.0236L59.0152 36.7042C59.2875 38.2921 57.6207 39.5033 56.1946 38.7536L46.6028 33.7109C46.0364 33.4131 45.36 33.4131 44.7936 33.7109L35.2018 38.7536C33.7757 39.5033 32.1089 38.2924 32.3812 36.7042L34.2131 26.0236C34.3213 25.3929 34.112 24.7495 33.6541 24.3029L25.8941 16.7388C24.7403 15.6141 25.377 13.6546 26.9714 13.423L37.6955 11.8646C38.3287 11.7726 38.8762 11.375 39.1593 10.8012L43.9554 1.08365C44.6678 -0.361215 46.7281 -0.361215 47.4413 1.08365Z" fill="url(#paint18_linear_206_4499)"/>
<path d="M47.2738 1.07598L52.0335 10.7203C52.3146 11.2896 52.8576 11.6843 53.4862 11.7756L64.1292 13.3222C65.7116 13.5522 66.3434 15.4968 65.1984 16.613L57.4969 24.12C57.0422 24.5632 56.8348 25.2019 56.9421 25.8277L58.7601 36.4277C59.0303 38.0038 57.376 39.2055 55.9607 38.4616L46.4413 33.457C45.8793 33.1616 45.2077 33.1616 44.6457 33.457L35.1263 38.4616C33.711 39.2057 32.0567 38.0038 32.327 36.4277L34.145 25.8277C34.2522 25.2019 34.0449 24.5632 33.5901 24.12L25.8889 16.613C24.7439 15.4968 25.3757 13.5522 26.9581 13.3222L37.6011 11.7756C38.2294 11.6843 38.7727 11.2896 39.0538 10.7203L43.8135 1.07598C44.5214 -0.35801 46.5661 -0.35801 47.2738 1.07598Z" fill="url(#paint19_linear_206_4499)"/>
<path d="M47.5834 4.31138L51.6408 12.5325C51.8803 13.018 52.3433 13.3544 52.879 13.4323L61.9515 14.7507C63.3005 14.9467 63.8391 16.6045 62.8631 17.5558L56.2981 23.955C55.9104 24.3328 55.7336 24.8772 55.8251 25.4107L57.3749 34.4465C57.6054 35.7899 56.1952 36.8145 54.9887 36.1801L46.8739 31.914C46.3949 31.662 45.8225 31.662 45.3433 31.914L37.2285 36.1801C36.022 36.8145 34.6118 35.7899 34.8423 34.4465L36.3921 25.4107C36.4836 24.8772 36.3068 24.3328 35.9191 23.955L29.3541 17.5558C28.3781 16.6043 28.9167 14.9467 30.2656 14.7507L39.3382 13.4323C39.8738 13.3544 40.3369 13.018 40.5764 12.5325L44.6338 4.31138C45.2372 3.08891 46.9802 3.08891 47.5834 4.31138Z" fill="url(#paint20_linear_206_4499)"/>
<path d="M29.9688 41.8932C29.9688 41.6636 29.9764 41.4916 29.9912 41.377C30.0062 41.2623 30.0485 41.1301 30.1183 40.9803C30.2579 40.711 30.647 40.5762 31.2858 40.5762C31.8942 40.5762 32.2736 40.711 32.4232 40.9803C32.5029 41.1298 32.5503 41.2646 32.5653 41.3844C32.5804 41.5041 32.5878 41.6787 32.5878 41.9082V48.8375C32.5878 49.1968 32.6176 49.4238 32.6777 49.5186C32.7376 49.6136 32.8698 49.6608 33.0742 49.6608C33.2785 49.6608 33.4158 49.6682 33.4857 49.6832C33.5555 49.6982 33.6403 49.7407 33.7402 49.8103C33.9397 49.9403 34.0396 50.2944 34.0396 50.8728C34.0396 51.5014 33.9397 51.8856 33.7402 52.0252C33.4808 52.2049 32.8622 52.2347 31.8845 52.1152C31.1161 52.0155 30.6172 51.761 30.3879 51.3518C30.1084 50.8631 29.9688 50.085 29.9688 49.0172V41.8932Z" fill="#562500"/>
<path d="M42.3153 47.2886C42.3153 47.9021 42.1631 48.3564 41.8589 48.6505C41.5545 48.9447 41.2176 49.092 40.8487 49.092H37.3017C37.3017 49.3715 37.4663 49.6059 37.7955 49.7955C38.1247 49.985 38.4541 50.0798 38.7833 50.0798C39.362 50.0798 39.816 50.02 40.1452 49.9002L40.3098 49.8403C40.5493 49.7308 40.7488 49.6757 40.9085 49.6757C41.2276 49.6757 41.502 49.9002 41.7315 50.3492C41.861 50.6185 41.9259 50.8483 41.9259 51.0376C41.9259 51.9258 40.8635 52.3696 38.7382 52.3696C37.9999 52.3696 37.3438 52.2425 36.7702 51.988C36.1964 51.7334 35.75 51.3969 35.4308 50.9777C34.8022 50.1695 34.488 49.2668 34.488 48.269C34.488 47.0119 34.8944 46.0067 35.7077 45.2535C36.5208 44.5004 37.5359 44.1235 38.7533 44.1235C40.1399 44.1235 41.1575 44.6125 41.8062 45.5901C42.1456 46.1089 42.3153 46.6748 42.3153 47.2886ZM39.1576 47.7299C39.5367 47.7299 39.7263 47.5704 39.7263 47.2509C39.7263 47.0216 39.6389 46.8371 39.4644 46.6972C39.2898 46.5576 39.0402 46.4878 38.716 46.4878C38.3917 46.4878 38.0699 46.62 37.7509 46.8843C37.4314 47.1487 37.2719 47.4305 37.2719 47.7299H39.1576Z" fill="#562500"/>
<path d="M50.7861 44.4671C51.3048 44.7764 51.5642 45.1056 51.5642 45.4547C51.5642 45.6544 51.4644 45.9289 51.2649 46.2777L48.1671 51.5906C48.0672 51.7603 47.9075 51.9124 47.6881 52.0472C47.4685 52.182 47.2514 52.2493 47.0371 52.2493C46.8223 52.2493 46.618 52.1968 46.4235 52.0921C46.2289 51.9873 46.0916 51.8801 46.012 51.7703L45.8773 51.6057L42.7642 46.2777C42.5645 45.9485 42.4651 45.6792 42.4651 45.4695C42.4651 45.1103 42.7245 44.7762 43.2432 44.4669C43.6224 44.2475 43.9217 44.1377 44.1411 44.1377C44.3605 44.1377 44.5325 44.2052 44.6573 44.3397C44.7819 44.4745 44.9142 44.6766 45.054 44.9459L47.0147 48.7173L48.975 44.9459C49.0849 44.7566 49.1672 44.6192 49.2219 44.5344C49.2767 44.4498 49.3641 44.3649 49.4839 44.2799C49.6036 44.1953 49.7631 44.1527 49.9629 44.1527C50.1624 44.153 50.4368 44.2577 50.7861 44.4671Z" fill="#562500"/>
<path d="M59.5408 47.2886C59.5408 47.9021 59.3887 48.3564 59.0845 48.6505C58.78 48.9447 58.4432 49.092 58.0743 49.092H54.5273C54.5273 49.3715 54.6919 49.6059 55.0211 49.7955C55.3503 49.985 55.6797 50.0798 56.0089 50.0798C56.5876 50.0798 57.0416 50.02 57.3708 49.9002L57.5354 49.8403C57.7749 49.7308 57.9744 49.6757 58.1341 49.6757C58.4532 49.6757 58.7276 49.9002 58.9574 50.3492C59.0868 50.6185 59.1518 50.8483 59.1518 51.0376C59.1518 51.9258 58.0893 52.3696 55.9641 52.3696C55.2257 52.3696 54.5696 52.2425 53.9961 51.988C53.4223 51.7334 52.9759 51.3969 52.6566 50.9777C52.028 50.1695 51.7139 49.2668 51.7139 48.269C51.7139 47.0119 52.1203 46.0067 52.9336 45.2535C53.7466 44.5004 54.7617 44.1235 55.9791 44.1235C57.3657 44.1235 58.3833 44.6125 59.032 45.5901C59.3712 46.1089 59.5408 46.6748 59.5408 47.2886ZM56.3832 47.7299C56.7623 47.7299 56.9519 47.5704 56.9519 47.2509C56.9519 47.0216 56.8645 46.8371 56.69 46.6972C56.5154 46.5576 56.2658 46.4878 55.9416 46.4878C55.6173 46.4878 55.2955 46.62 54.9765 46.8843C54.657 47.1487 54.4975 47.4305 54.4975 47.7299H56.3832Z" fill="#562500"/>
<path d="M60.5137 41.8932C60.5137 41.6636 60.5213 41.4916 60.5361 41.377C60.5511 41.2623 60.5934 41.1301 60.6633 40.9803C60.8029 40.711 61.192 40.5762 61.8307 40.5762C62.4392 40.5762 62.8183 40.711 62.9681 40.9803C63.0478 41.1298 63.0952 41.2646 63.1103 41.3844C63.1253 41.5041 63.1327 41.6787 63.1327 41.9082V48.8375C63.1327 49.1968 63.1625 49.4238 63.2226 49.5186C63.2825 49.6136 63.4147 49.6608 63.6191 49.6608C63.8234 49.6608 63.9608 49.6682 64.0306 49.6832C64.1004 49.6982 64.1852 49.7407 64.2851 49.8103C64.4846 49.9403 64.5845 50.2944 64.5845 50.8728C64.5845 51.5014 64.4846 51.8856 64.2851 52.0252C64.0255 52.2049 63.4071 52.2347 62.4294 52.1152C61.661 52.0155 61.1624 51.761 60.9328 51.3518C60.6533 50.8631 60.5137 50.085 60.5137 49.0172V41.8932Z" fill="#562500"/>
<path d="M29.9441 41.7834C29.9441 41.5634 29.9513 41.3985 29.9656 41.2883C29.9799 41.1784 30.0204 41.0515 30.0874 40.908C30.2215 40.6495 30.5946 40.5205 31.2073 40.5205C31.7908 40.5205 32.1546 40.6497 32.2982 40.908C32.3747 41.0515 32.4202 41.1808 32.4346 41.2956C32.4489 41.4105 32.4561 41.5779 32.4561 41.798V48.4444C32.4561 48.7888 32.485 49.0068 32.5423 49.0974C32.5996 49.1885 32.7265 49.2338 32.9228 49.2338C33.1189 49.2338 33.2506 49.241 33.3177 49.2553C33.3845 49.2697 33.4659 49.3106 33.5618 49.3774C33.753 49.502 33.8489 49.8416 33.8489 50.3966C33.8489 50.9996 33.753 51.3681 33.5618 51.5019C33.3128 51.6741 32.7194 51.703 31.7817 51.5881C31.0447 51.4927 30.5664 51.2485 30.3463 50.856C30.0782 50.3872 29.9443 49.6407 29.9443 48.6166V41.7834H29.9441Z" fill="#E6E5D1"/>
<path d="M41.7868 46.9584C41.7868 47.547 41.6407 47.9826 41.3489 48.2648C41.0569 48.5471 40.734 48.6883 40.38 48.6883H36.9778C36.9778 48.9565 37.1357 49.1814 37.4515 49.3629C37.7673 49.5449 38.0831 49.6357 38.3988 49.6357C38.9537 49.6357 39.3894 49.5784 39.705 49.4635L39.8629 49.4062C40.0927 49.301 40.2839 49.2483 40.4371 49.2483C40.7432 49.2483 41.0063 49.4635 41.2266 49.8942C41.351 50.1526 41.4134 50.3729 41.4134 50.5546C41.4134 51.4065 40.3942 51.8321 38.3556 51.8321C37.6473 51.8321 37.0183 51.7101 36.4681 51.4662C35.9176 51.2221 35.4895 50.8991 35.1832 50.4973C34.5803 49.7222 34.2788 48.8562 34.2788 47.8991C34.2788 46.6933 34.6688 45.7293 35.4488 45.0066C36.2286 44.2842 37.2023 43.9229 38.3699 43.9229C39.6999 43.9229 40.6762 44.3919 41.2983 45.3296C41.6238 45.8271 41.7868 46.3699 41.7868 46.9584ZM38.7579 47.382C39.1215 47.382 39.3035 47.2289 39.3035 46.9226C39.3035 46.7025 39.2195 46.5257 39.0522 46.3916C38.8846 46.2577 38.6453 46.1907 38.3346 46.1907C38.0234 46.1907 37.7148 46.3176 37.4087 46.5712C37.1024 46.8248 36.9494 47.0951 36.9494 47.3822H38.7579V47.382Z" fill="#E6E5D1"/>
<path d="M49.9116 44.2525C50.4091 44.5491 50.658 44.8649 50.658 45.1999C50.658 45.3916 50.5621 45.6546 50.3709 45.9894L47.3994 51.0852C47.3037 51.2482 47.1504 51.3938 46.94 51.5231C46.7294 51.6523 46.5213 51.7168 46.3156 51.7168C46.1096 51.7168 45.9136 51.6666 45.727 51.5661C45.5405 51.4655 45.4087 51.3629 45.3322 51.2575L45.2029 51.0996L42.2171 45.9891C42.0254 45.6734 41.9299 45.4149 41.9299 45.214C41.9299 44.8696 42.1787 44.5489 42.6764 44.2523C43.04 44.0419 43.3272 43.9365 43.5378 43.9365C43.7481 43.9365 43.9132 44.001 44.033 44.1302C44.1525 44.2595 44.2792 44.4532 44.4135 44.7117L46.2939 48.3291L48.1743 44.7117C48.2795 44.53 48.3585 44.3984 48.4112 44.317C48.4637 44.2359 48.5476 44.1543 48.6623 44.0729C48.7772 43.9918 48.9302 43.9509 49.1216 43.9509C49.3133 43.9511 49.5764 44.0514 49.9116 44.2525Z" fill="#E6E5D1"/>
<path d="M58.309 46.9584C58.309 47.547 58.1629 47.9826 57.8712 48.2648C57.5792 48.5471 57.2562 48.6883 56.9023 48.6883H53.5003C53.5003 48.9565 53.6582 49.1814 53.974 49.3629C54.2897 49.5449 54.6055 49.6357 54.9213 49.6357C55.4761 49.6357 55.9119 49.5784 56.2275 49.4635L56.3854 49.4062C56.6152 49.301 56.8063 49.2483 56.9596 49.2483C57.2657 49.2483 57.5288 49.4635 57.7491 49.8942C57.8735 50.1526 57.9359 50.3729 57.9359 50.5546C57.9359 51.4065 56.9166 51.8321 54.8781 51.8321C54.1698 51.8321 53.5407 51.7101 52.9905 51.4662C52.4401 51.2221 52.0119 50.8991 51.7056 50.4973C51.1027 49.7222 50.8013 48.8562 50.8013 47.8991C50.8013 46.6933 51.1913 45.7293 51.9713 45.0066C52.751 44.2842 53.7247 43.9229 54.8924 43.9229C56.2224 43.9229 57.1987 44.3919 57.8208 45.3296C58.1462 45.8271 58.309 46.3699 58.309 46.9584ZM55.2801 47.382C55.6438 47.382 55.8257 47.2289 55.8257 46.9226C55.8257 46.7025 55.7418 46.5257 55.5744 46.3916C55.4068 46.2577 55.1675 46.1907 54.8568 46.1907C54.5457 46.1907 54.237 46.3176 53.931 46.5712C53.6246 46.8248 53.4716 47.0951 53.4716 47.3822H55.2801V47.382Z" fill="#E6E5D1"/>
<path d="M59.2419 41.7834C59.2419 41.5634 59.2491 41.3985 59.2634 41.2883C59.2778 41.1784 59.3182 41.0515 59.3853 40.908C59.5194 40.6495 59.8925 40.5205 60.5051 40.5205C61.0886 40.5205 61.4525 40.6497 61.596 40.908C61.6725 41.0515 61.7181 41.1808 61.7324 41.2956C61.7468 41.4105 61.7539 41.5779 61.7539 41.798V48.4444C61.7539 48.7888 61.7828 49.0068 61.8402 49.0974C61.8977 49.1885 62.0244 49.2338 62.2207 49.2338C62.4167 49.2338 62.5485 49.241 62.6155 49.2553C62.6823 49.2697 62.7637 49.3106 62.8596 49.3774C63.0508 49.502 63.1468 49.8416 63.1468 50.3966C63.1468 50.9996 63.0511 51.3681 62.8596 51.5019C62.6107 51.6741 62.0175 51.703 61.0796 51.5881C60.3426 51.4927 59.8643 51.2485 59.6442 50.856C59.376 50.3872 59.2422 49.6407 59.2422 48.6166V41.7834H59.2419Z" fill="#E6E5D1"/>
<g filter="url(#filter0_d_206_4499)">
<mask id="path-34-outside-1_206_4499" maskUnits="userSpaceOnUse" x="36" y="54" width="22" height="27" fill="black">
<rect fill="white" x="36" y="54" width="22" height="27"/>
<path d="M38.4586 79V74.71L46.6525 67.9318C47.1959 67.4813 47.6607 67.0595 48.0468 66.6662C48.44 66.2658 48.7403 65.8547 48.9477 65.4328C49.1622 65.011 49.2694 64.5427 49.2694 64.0279C49.2694 63.463 49.1479 62.9804 48.9048 62.58C48.6688 62.1796 48.3399 61.8721 47.9181 61.6576C47.4962 61.436 47.01 61.3251 46.4595 61.3251C45.9089 61.3251 45.4227 61.436 45.0009 61.6576C44.5862 61.8793 44.2644 62.2046 44.0356 62.6336C43.8068 63.0626 43.6924 63.5846 43.6924 64.1995H38.0296C38.0296 62.6551 38.3764 61.3251 39.0699 60.2097C39.7635 59.0943 40.743 58.2363 42.0086 57.6357C43.2741 57.0351 44.7578 56.7348 46.4595 56.7348C48.2184 56.7348 49.7413 57.0173 51.0283 57.5821C52.3225 58.1398 53.3199 58.9263 54.0206 59.9416C54.7285 60.9569 55.0824 62.1474 55.0824 63.5131C55.0824 64.3568 54.9072 65.1969 54.5569 66.0334C54.2065 66.8628 53.5773 67.7816 52.6693 68.7898C51.7612 69.7979 50.4706 70.9991 48.7975 72.3934L46.7383 74.1094V74.2381H55.3184V79H38.4586Z"/>
</mask>
<path d="M38.4586 79V74.71L46.6525 67.9318C47.1959 67.4813 47.6607 67.0595 48.0468 66.6662C48.44 66.2658 48.7403 65.8547 48.9477 65.4328C49.1622 65.011 49.2694 64.5427 49.2694 64.0279C49.2694 63.463 49.1479 62.9804 48.9048 62.58C48.6688 62.1796 48.3399 61.8721 47.9181 61.6576C47.4962 61.436 47.01 61.3251 46.4595 61.3251C45.9089 61.3251 45.4227 61.436 45.0009 61.6576C44.5862 61.8793 44.2644 62.2046 44.0356 62.6336C43.8068 63.0626 43.6924 63.5846 43.6924 64.1995H38.0296C38.0296 62.6551 38.3764 61.3251 39.0699 60.2097C39.7635 59.0943 40.743 58.2363 42.0086 57.6357C43.2741 57.0351 44.7578 56.7348 46.4595 56.7348C48.2184 56.7348 49.7413 57.0173 51.0283 57.5821C52.3225 58.1398 53.3199 58.9263 54.0206 59.9416C54.7285 60.9569 55.0824 62.1474 55.0824 63.5131C55.0824 64.3568 54.9072 65.1969 54.5569 66.0334C54.2065 66.8628 53.5773 67.7816 52.6693 68.7898C51.7612 69.7979 50.4706 70.9991 48.7975 72.3934L46.7383 74.1094V74.2381H55.3184V79H38.4586Z" fill="white"/>
<path d="M38.4586 79H36.5901V80.8685H38.4586V79ZM38.4586 74.71L37.2676 73.2702L36.5901 73.8307V74.71H38.4586ZM46.6525 67.9318L47.8435 69.3715L47.845 69.3703L46.6525 67.9318ZM48.0468 66.6662L46.7137 65.3569L46.7135 65.3571L48.0468 66.6662ZM48.9477 65.4328L47.2821 64.5859L47.2764 64.5972L47.2708 64.6086L48.9477 65.4328ZM48.9048 62.58L47.295 63.5286L47.3012 63.5392L47.3076 63.5497L48.9048 62.58ZM47.9181 61.6576L47.049 63.3117L47.06 63.3175L47.0712 63.3232L47.9181 61.6576ZM45.0009 61.6576L44.1317 60.0035L44.1201 60.0097L45.0009 61.6576ZM44.0356 62.6336L42.3869 61.7543L42.3869 61.7543L44.0356 62.6336ZM43.6924 64.1995V66.068H45.561V64.1995H43.6924ZM38.0296 64.1995H36.1611V66.068H38.0296V64.1995ZM39.0699 60.2097L37.4831 59.2231L37.4831 59.2231L39.0699 60.2097ZM42.0086 57.6357L42.8097 59.3238L42.0086 57.6357ZM51.0283 57.5821L50.2774 59.2932L50.2889 59.2981L51.0283 57.5821ZM54.0206 59.9416L52.4828 61.003L52.4878 61.0103L54.0206 59.9416ZM54.5569 66.0334L56.2782 66.7605L56.2804 66.7552L54.5569 66.0334ZM52.6693 68.7898L54.0577 70.0403L52.6693 68.7898ZM48.7975 72.3934L49.9937 73.8288L48.7975 72.3934ZM46.7383 74.1094L45.5421 72.6739L44.8698 73.2342V74.1094H46.7383ZM46.7383 74.2381H44.8698V76.1066H46.7383V74.2381ZM55.3184 74.2381H57.1869V72.3695H55.3184V74.2381ZM55.3184 79V80.8685H57.1869V79H55.3184ZM40.3271 79V74.71H36.5901V79H40.3271ZM39.6496 76.1498L47.8435 69.3715L45.4615 66.492L37.2676 73.2702L39.6496 76.1498ZM47.845 69.3703C48.4247 68.8898 48.939 68.4246 49.3801 67.9753L46.7135 65.3571C46.3824 65.6943 45.9672 66.0728 45.46 66.4932L47.845 69.3703ZM49.3799 67.9755C49.8866 67.4596 50.3141 66.8888 50.6246 66.2571L47.2708 64.6086C47.1666 64.8206 46.9935 65.072 46.7137 65.3569L49.3799 67.9755ZM50.6133 66.2797C50.9726 65.573 51.138 64.8106 51.138 64.0279H47.4009C47.4009 64.2747 47.3517 64.449 47.2821 64.5859L50.6133 66.2797ZM51.138 64.0279C51.138 63.1917 50.956 62.358 50.502 61.6102L47.3076 63.5497C47.3398 63.6028 47.4009 63.7343 47.4009 64.0279H51.138ZM50.5146 61.6313C50.0944 60.9182 49.4981 60.3648 48.765 59.992L47.0712 63.3232C47.1817 63.3794 47.2433 63.4409 47.295 63.5286L50.5146 61.6313ZM48.7872 60.0035C48.0584 59.6206 47.2656 59.4566 46.4595 59.4566V63.1937C46.7545 63.1937 46.9341 63.2514 47.049 63.3117L48.7872 60.0035ZM46.4595 59.4566C45.6534 59.4566 44.8606 59.6206 44.1318 60.0035L45.87 63.3117C45.9849 63.2514 46.1645 63.1937 46.4595 63.1937V59.4566ZM44.1201 60.0097C43.3674 60.412 42.7836 61.0104 42.3869 61.7543L45.6843 63.5129C45.7452 63.3988 45.805 63.3465 45.8817 63.3055L44.1201 60.0097ZM42.3869 61.7543C41.9805 62.5162 41.8239 63.3572 41.8239 64.1995H45.561C45.561 63.8119 45.6331 63.609 45.6843 63.5129L42.3869 61.7543ZM43.6924 62.3309H38.0296V66.068H43.6924V62.3309ZM39.8981 64.1995C39.8981 62.9416 40.1776 61.9669 40.6567 61.1964L37.4831 59.2231C36.5751 60.6833 36.1611 62.3685 36.1611 64.1995H39.8981ZM40.6567 61.1964C41.1483 60.4058 41.8454 59.7815 42.8097 59.3238L41.2075 55.9476C39.6407 56.6912 38.3787 57.7829 37.4831 59.2231L40.6567 61.1964ZM42.8097 59.3238C43.777 58.8648 44.9764 58.6034 46.4595 58.6034V54.8663C44.5391 54.8663 42.7713 55.2055 41.2075 55.9476L42.8097 59.3238ZM46.4595 58.6034C48.0228 58.6034 49.2787 58.8548 50.2774 59.2931L51.7793 55.8711C50.204 55.1797 48.4139 54.8663 46.4595 54.8663V58.6034ZM50.2889 59.2981C51.3077 59.7371 52.0086 60.3159 52.4828 61.003L55.5585 58.8803C54.6312 57.5367 53.3373 56.5425 51.7678 55.8661L50.2889 59.2981ZM52.4878 61.0103C52.9546 61.6798 53.2139 62.4883 53.2139 63.5131H56.9509C56.9509 61.8065 56.5023 60.234 55.5534 58.873L52.4878 61.0103ZM53.2139 63.5131C53.2139 64.0908 53.0953 64.6864 52.8334 65.3116L56.2804 66.7552C56.7192 65.7074 56.9509 64.6227 56.9509 63.5131H53.2139ZM52.8356 65.3063C52.5963 65.8728 52.1129 66.6155 51.2809 67.5392L54.0577 70.0403C55.0417 68.9478 55.8167 67.8529 56.2782 66.7605L52.8356 65.3063ZM51.2809 67.5392C50.457 68.454 49.2416 69.591 47.6013 70.9579L49.9937 73.8288C51.6996 72.4073 53.0655 71.1419 54.0577 70.0403L51.2809 67.5392ZM47.6013 70.9579L45.5421 72.6739L47.9345 75.5448L49.9937 73.8288L47.6013 70.9579ZM44.8698 74.1094V74.2381H48.6069V74.1094H44.8698ZM46.7383 76.1066H55.3184V72.3695H46.7383V76.1066ZM53.4498 74.2381V79H57.1869V74.2381H53.4498ZM55.3184 77.1315H38.4586V80.8685H55.3184V77.1315Z" fill="url(#paint21_linear_206_4499)" mask="url(#path-34-outside-1_206_4499)"/>
</g>
<defs>
<filter id="filter0_d_206_4499" x="38.0295" y="56.7349" width="18.6616" height="23.6379" filterUnits="userSpaceOnUse" color-interpolation-filters="sRGB">
<feFlood flood-opacity="0" result="BackgroundImageFix"/>
<feColorMatrix in="SourceAlpha" type="matrix" values="0 0 0 0 0 0 0 0 0 0 0 0 0 0 0 0 0 0 127 0" result="hardAlpha"/>
<feOffset dx="1.3728" dy="1.3728"/>
<feComposite in2="hardAlpha" operator="out"/>
<feColorMatrix type="matrix" values="0 0 0 0 0.615686 0 0 0 0 0.294118 0 0 0 0 0.0705882 0 0 0 1 0"/>
<feBlend mode="normal" in2="BackgroundImageFix" result="effect1_dropShadow_206_4499"/>
<feBlend mode="normal" in="SourceGraphic" in2="effect1_dropShadow_206_4499" result="shape"/>
</filter>
<linearGradient id="paint0_linear_206_4499" x1="64.8678" y1="117.572" x2="69.3688" y2="57.6274" gradientUnits="userSpaceOnUse">
<stop offset="2.7e-07" stop-color="#95D543"/>
<stop offset="0.2613" stop-color="#72B74E"/>
<stop offset="0.5762" stop-color="#4F9959"/>
<stop offset="0.8338" stop-color="#398760"/>
<stop offset="1" stop-color="#318063"/>
</linearGradient>
<linearGradient id="paint1_linear_206_4499" x1="21.8304" y1="114.34" x2="26.3313" y2="54.3955" gradientUnits="userSpaceOnUse">
<stop offset="2.7e-07" stop-color="#95D543"/>
<stop offset="0.2613" stop-color="#72B74E"/>
<stop offset="0.5762" stop-color="#4F9959"/>
<stop offset="0.8338" stop-color="#398760"/>
<stop offset="1" stop-color="#318063"/>
</linearGradient>
<linearGradient id="paint2_linear_206_4499" x1="38.3429" y1="35.9095" x2="63.0384" y2="92.0158" gradientUnits="userSpaceOnUse">
<stop stop-color="#F8A45B"/>
<stop offset="0.2171" stop-color="#C97F40"/>
<stop offset="0.4733" stop-color="#985825"/>
<stop offset="0.6987" stop-color="#743C11"/>
<stop offset="0.8819" stop-color="#5E2B04"/>
<stop offset="1" stop-color="#562500"/>
</linearGradient>
<linearGradient id="paint3_linear_206_4499" x1="106.294" y1="97.53" x2="30.2581" y2="39.5283" gradientUnits="userSpaceOnUse">
<stop stop-color="#F8A45B"/>
<stop offset="0.3936" stop-color="#CC7937"/>
<stop offset="0.7917" stop-color="#A55318"/>
<stop offset="1" stop-color="#96440C"/>
</linearGradient>
<linearGradient id="paint4_linear_206_4499" x1="35.6151" y1="30.8537" x2="63.6809" y2="87.4137" gradientUnits="userSpaceOnUse">
<stop stop-color="#F8A45B"/>
<stop offset="0.3936" stop-color="#CC7937"/>
<stop offset="0.7917" stop-color="#A55318"/>
<stop offset="1" stop-color="#96440C"/>
</linearGradient>
<linearGradient id="paint5_linear_206_4499" x1="18.5344" y1="42.4367" x2="18.9676" y2="48.1774" gradientUnits="userSpaceOnUse">
<stop offset="0.3844" stop-color="#96440C"/>
<stop offset="0.3989" stop-color="#9A4810"/>
<stop offset="0.5039" stop-color="#B76427"/>
</linearGradient>
<linearGradient id="paint6_linear_206_4499" x1="47.3618" y1="55.4471" x2="48.4449" y2="63.5707" gradientUnits="userSpaceOnUse">
<stop offset="0.3844" stop-color="#96440C"/>
<stop offset="0.3989" stop-color="#9A4810"/>
<stop offset="0.5039" stop-color="#B76427"/>
</linearGradient>
<linearGradient id="paint7_linear_206_4499" x1="66.6278" y1="70.0422" x2="67.9371" y2="75.7707" gradientUnits="userSpaceOnUse">
<stop offset="0.3844" stop-color="#96440C"/>
<stop offset="0.3989" stop-color="#9A4810"/>
<stop offset="0.5039" stop-color="#B76427"/>
</linearGradient>
<linearGradient id="paint8_linear_206_4499" x1="59.9286" y1="28.5773" x2="61.5533" y2="36.3759" gradientUnits="userSpaceOnUse">
<stop offset="0.3844" stop-color="#96440C"/>
<stop offset="0.3989" stop-color="#9A4810"/>
<stop offset="0.5039" stop-color="#B76427"/>
</linearGradient>
<linearGradient id="paint9_linear_206_4499" x1="62.2388" y1="15.749" x2="72.6242" y2="36.7032" gradientUnits="userSpaceOnUse">
<stop stop-color="#F8A45B"/>
<stop offset="0.2171" stop-color="#C97F40"/>
<stop offset="0.4733" stop-color="#985825"/>
<stop offset="0.6987" stop-color="#743C11"/>
<stop offset="0.8819" stop-color="#5E2B04"/>
<stop offset="1" stop-color="#562500"/>
</linearGradient>
<linearGradient id="paint10_linear_206_4499" x1="65.6711" y1="25.2997" x2="82.5321" y2="49.5323" gradientUnits="userSpaceOnUse">
<stop stop-color="#F8A45B"/>
<stop offset="0.3936" stop-color="#CC7937"/>
<stop offset="0.7917" stop-color="#A55318"/>
<stop offset="1" stop-color="#96440C"/>
</linearGradient>
<linearGradient id="paint11_linear_206_4499" x1="65.057" y1="20.642" x2="73.06" y2="39.2552" gradientUnits="userSpaceOnUse">
<stop stop-color="#F8A45B"/>
<stop offset="0.3936" stop-color="#CC7937"/>
<stop offset="0.7917" stop-color="#A55318"/>
<stop offset="1" stop-color="#96440C"/>
</linearGradient>
<linearGradient id="paint12_linear_206_4499" x1="62.2146" y1="18.6464" x2="77.9219" y2="44.3308" gradientUnits="userSpaceOnUse">
<stop stop-color="#F8A45B"/>
<stop offset="0.2171" stop-color="#C97F40"/>
<stop offset="0.4733" stop-color="#985825"/>
<stop offset="0.6987" stop-color="#743C11"/>
<stop offset="0.8819" stop-color="#5E2B04"/>
<stop offset="1" stop-color="#562500"/>
</linearGradient>
<linearGradient id="paint13_linear_206_4499" x1="19.0598" y1="15.749" x2="29.4452" y2="36.7032" gradientUnits="userSpaceOnUse">
<stop stop-color="#F8A45B"/>
<stop offset="0.2171" stop-color="#C97F40"/>
<stop offset="0.4733" stop-color="#985825"/>
<stop offset="0.6987" stop-color="#743C11"/>
<stop offset="0.8819" stop-color="#5E2B04"/>
<stop offset="1" stop-color="#562500"/>
</linearGradient>
<linearGradient id="paint14_linear_206_4499" x1="22.4916" y1="25.2997" x2="39.3526" y2="49.5323" gradientUnits="userSpaceOnUse">
<stop stop-color="#F8A45B"/>
<stop offset="0.3936" stop-color="#CC7937"/>
<stop offset="0.7917" stop-color="#A55318"/>
<stop offset="1" stop-color="#96440C"/>
</linearGradient>
<linearGradient id="paint15_linear_206_4499" x1="21.8776" y1="20.642" x2="29.8807" y2="39.2552" gradientUnits="userSpaceOnUse">
<stop stop-color="#F8A45B"/>
<stop offset="0.3936" stop-color="#CC7937"/>
<stop offset="0.7917" stop-color="#A55318"/>
<stop offset="1" stop-color="#96440C"/>
</linearGradient>
<linearGradient id="paint16_linear_206_4499" x1="19.0352" y1="18.6464" x2="34.7425" y2="44.3308" gradientUnits="userSpaceOnUse">
<stop stop-color="#F8A45B"/>
<stop offset="0.2171" stop-color="#C97F40"/>
<stop offset="0.4733" stop-color="#985825"/>
<stop offset="0.6987" stop-color="#743C11"/>
<stop offset="0.8819" stop-color="#5E2B04"/>
<stop offset="1" stop-color="#562500"/>
</linearGradient>
<linearGradient id="paint17_linear_206_4499" x1="37.0855" y1="0.986403" x2="54.5452" y2="36.2138" gradientUnits="userSpaceOnUse">
<stop stop-color="#F8A45B"/>
<stop offset="0.2171" stop-color="#C97F40"/>
<stop offset="0.4733" stop-color="#985825"/>
<stop offset="0.6987" stop-color="#743C11"/>
<stop offset="0.8819" stop-color="#5E2B04"/>
<stop offset="1" stop-color="#562500"/>
</linearGradient>
<linearGradient id="paint18_linear_206_4499" x1="42.8559" y1="17.0423" x2="71.2021" y2="57.7814" gradientUnits="userSpaceOnUse">
<stop stop-color="#F8A45B"/>
<stop offset="0.3936" stop-color="#CC7937"/>
<stop offset="0.7917" stop-color="#A55318"/>
<stop offset="1" stop-color="#96440C"/>
</linearGradient>
<linearGradient id="paint19_linear_206_4499" x1="41.8233" y1="9.21242" x2="55.2778" y2="40.5043" gradientUnits="userSpaceOnUse">
<stop stop-color="#F8A45B"/>
<stop offset="0.3936" stop-color="#CC7937"/>
<stop offset="0.7917" stop-color="#A55318"/>
<stop offset="1" stop-color="#96440C"/>
</linearGradient>
<linearGradient id="paint20_linear_206_4499" x1="37.045" y1="5.8578" x2="63.4515" y2="49.0375" gradientUnits="userSpaceOnUse">
<stop stop-color="#F8A45B"/>
<stop offset="0.2171" stop-color="#C97F40"/>
<stop offset="0.4733" stop-color="#985825"/>
<stop offset="0.6987" stop-color="#743C11"/>
<stop offset="0.8819" stop-color="#5E2B04"/>
<stop offset="1" stop-color="#562500"/>
</linearGradient>
<linearGradient id="paint21_linear_206_4499" x1="47" y1="53" x2="47" y2="84" gradientUnits="userSpaceOnUse">
<stop stop-color="#EC9851"/>
<stop offset="1" stop-color="#9F4D13"/>
</linearGradient>
</defs>
</svg>
