<svg width="97" height="90" viewBox="0 0 97 90" fill="none" xmlns="http://www.w3.org/2000/svg">
<path d="M74.7871 28.4438C74.7635 28.4466 74.7397 28.4508 74.7164 28.4558C74.5148 28.5005 74.3409 28.6274 74.2373 28.8061L44.5211 79.9738C44.4284 80.1333 44.3988 80.3217 44.4381 80.5018C44.4536 80.5728 44.8228 82.2567 45.4178 83.9447C46.3527 86.5966 47.3227 87.7668 48.4705 87.6276C48.4999 87.6241 48.5293 87.6195 48.5589 87.6142C48.7579 87.5772 48.9331 87.4603 49.0436 87.2903C49.1539 87.1204 49.1897 86.9128 49.1426 86.7158C48.8122 85.3364 49.0117 83.561 49.293 82.1328C49.6352 83.7371 49.9209 86.0979 49.6798 89.0898C49.6526 89.428 49.8592 89.7415 50.181 89.8495C50.2878 89.8853 50.3981 89.8955 50.5047 89.8825C50.719 89.8566 50.9173 89.7373 51.0392 89.5459C52.3139 87.5444 52.5386 85.3438 52.7559 83.2158C52.8363 82.4296 52.9177 81.6318 53.0515 80.8298C53.8935 82.5651 55.2697 83.8342 55.3615 83.9179C55.5242 84.0659 55.7394 84.1299 55.9477 84.1047C56.0529 84.092 56.1563 84.0566 56.2506 83.9974C56.5312 83.8217 56.6607 83.4808 56.5673 83.1631C56.5645 83.1529 56.3849 82.4721 56.4415 81.1387C56.7192 82.2229 57.0033 82.9879 57.032 83.0642C57.1526 83.3848 57.4765 83.5781 57.8117 83.5374C57.8307 83.5351 57.8494 83.5321 57.8684 83.5284C58.2232 83.4574 58.4743 83.1398 58.4618 82.7782C58.3767 80.3483 59.5285 78.0608 60.3142 76.7953C61.4701 78.899 63.4129 80.8032 63.5107 80.8985C63.6774 81.0605 63.901 81.1283 64.1153 81.1024C64.2755 81.083 64.4306 81.0111 64.5524 80.8872C64.8375 80.5975 64.8351 80.1319 64.5469 79.8453C64.4916 79.7875 63.2423 78.4378 64.0831 75.764C64.8092 77.3534 64.9265 80.5813 64.7327 82.8258C64.6997 83.2075 64.9641 83.551 65.3414 83.6171C65.4145 83.6299 65.4873 83.6315 65.5576 83.6229C65.8502 83.5873 66.1029 83.3779 66.1824 83.0794C66.213 82.9641 66.9166 80.2921 68.2411 73.1062C69.2398 74.2538 69.0386 76.4673 69.0361 76.4941C68.997 76.8938 69.2844 77.2521 69.6832 77.3C69.7435 77.3072 69.8032 77.3069 69.8609 77.3C70.1851 77.2607 70.4544 77.0089 70.5024 76.6714C70.517 76.5695 70.7988 74.4715 70.0431 70.7452C71.6956 71.6391 74.0517 72.2971 75.8674 72.0772C76.858 71.9572 77.6264 71.5899 78.151 70.9854C78.3345 70.7738 78.3826 70.4768 78.2753 70.2181C78.1681 69.9594 77.9237 69.7837 77.6442 69.7643C76.2065 69.6644 75.1417 69.1473 74.389 68.1835C73.2072 66.67 73.0891 64.4021 73.1541 62.985C74.2394 63.9326 75.8803 65.6024 76.4976 67.4809C76.5975 67.7854 76.8825 67.9905 77.2029 67.9891C77.2318 67.9891 77.2602 67.987 77.2884 67.9838C77.5728 67.9493 77.8148 67.7521 77.9034 67.4742C78.623 65.2106 77.5217 62.0337 76.575 59.936C78.642 61.2084 81.2099 63.1975 81.6933 65.1999C81.7675 65.5069 82.0285 65.7328 82.3429 65.7621C82.3961 65.767 82.4488 65.7661 82.5001 65.7598C82.7533 65.7291 82.9775 65.5686 83.085 65.3291C85.3734 60.2335 82.2569 55.9105 80.0311 53.6679C80.8453 53.7166 81.7864 53.718 82.738 53.6027C84.7173 53.3629 86.2163 52.6833 87.1935 51.5826C87.3971 51.3531 87.4378 51.0213 87.2954 50.7492C87.1528 50.4774 86.8571 50.3218 86.5522 50.3588C85.1651 50.5268 83.2699 49.4581 81.5671 48.1711C82.6837 48.5498 83.8983 48.8471 85.0817 48.9178C85.1263 48.9204 85.1707 48.919 85.2146 48.9137C85.3672 48.8952 85.5114 48.8293 85.6261 48.7239C85.7738 48.588 85.8598 48.3979 85.8644 48.1975C85.8714 47.8995 85.7861 47.5768 85.628 47.237C86.5171 48.154 87.417 49.2184 88.2913 50.4506C88.449 50.6727 88.7151 50.7888 88.9823 50.7564C89.0025 50.7541 89.0226 50.7506 89.0424 50.7467C89.3293 50.6877 89.5543 50.4647 89.6158 50.1785C90.6542 45.3464 86.2445 39.9477 83.85 37.4396C84.8475 37.4674 86.1009 37.4517 87.3403 37.3016C89.6837 37.0177 91.2779 36.3272 92.0785 35.249C92.2789 34.9788 92.2718 34.6075 92.0612 34.3456C91.898 34.1428 91.645 34.045 91.3965 34.0753C91.3239 34.0841 91.2516 34.104 91.1822 34.1352C90.8308 34.2933 90.4249 34.4013 89.9755 34.4556C84.7219 35.092 75.3923 28.6364 75.2987 28.5712C75.1487 28.4669 74.9665 28.4221 74.7871 28.4438Z" fill="url(#paint0_linear_206_4599)"/>
<path d="M80.4494 36.2753C80.4494 36.2753 88.3924 43.3454 87.1408 49.1695C82.1501 42.1377 76.3816 40.6536 76.3816 40.6536C76.3816 40.6536 83.5758 45.3009 83.5273 47.4023C80.0353 47.1938 76.1243 44.7468 76.1243 44.7468C76.1243 44.7468 81.5403 50.6113 84.9807 50.1947C82.4849 53.0061 76.422 51.6678 76.422 51.6678C76.422 51.6678 83.9291 56.8674 80.9242 63.5584C80.0541 59.9548 73.6544 56.9514 73.6544 56.9514C73.6544 56.9514 76.9355 62.5144 75.9257 65.691C74.9261 62.6485 71.4697 60.2311 71.4697 60.2311C71.4697 60.2311 70.0092 68.3713 76.3034 68.8089C74.5051 70.8812 68.752 68.6612 67.9064 67.2339C69.1818 71.9622 68.8017 74.6263 68.8017 74.6263C68.8017 74.6263 69.1716 70.9829 66.8312 70.1204C65.4249 77.8716 64.6754 80.6896 64.6754 80.6896C64.6754 80.6896 65.2656 73.8548 63.1351 72.4766C61.3072 76.2979 63.2916 78.2724 63.2916 78.2724C63.2916 78.2724 60.6696 75.7204 59.8565 73.4191C59.8565 73.4191 57.1141 76.8056 57.2475 80.6075C57.2475 80.6075 55.6385 76.3298 56.4011 73.6195C54.7163 78.6233 55.4591 81.1515 55.4591 81.1515C55.4591 81.1515 52.3081 78.2854 52.9392 75.5239C51.2209 79.4831 52.3477 83.3828 50.2396 86.6926C50.719 80.7439 49.1066 77.3391 49.1066 77.3391C49.1066 77.3391 47.6439 81.6617 48.3291 84.5239C46.6332 84.8383 45.1985 78.2488 45.1985 78.2488L73.6976 29.1768C73.6976 29.1768 84.654 36.8165 89.6267 34.5778C87.7574 37.0953 80.4494 36.2753 80.4494 36.2753Z" fill="#318063"/>
<path d="M50.7036 74.5354C50.6678 74.7125 50.5679 74.8715 50.422 74.9806C50.3307 75.049 41.2683 81.8806 40.2215 87.0631C40.1318 87.5068 40.1066 87.9261 40.1464 88.3094C40.1543 88.385 40.1503 88.4599 40.1358 88.5316C40.0863 88.7766 39.9138 88.9863 39.6702 89.0774C39.3551 89.195 39.0005 89.0852 38.807 88.8099C38.0353 87.7109 37.8809 85.9805 38.3483 83.6667C38.5954 82.443 38.9748 81.2481 39.3146 80.31C36.181 81.7946 29.6697 84.2834 25.4091 81.7784C25.1566 81.63 25.0156 81.3463 25.0498 81.0555C25.0521 81.0352 25.0554 81.015 25.0595 80.9952C25.1127 80.7314 25.3066 80.5152 25.5669 80.4353C27.0116 79.9925 28.3048 79.4731 29.4549 78.9173C29.0827 78.9606 28.7493 78.94 28.4687 78.8399C28.2796 78.7724 28.1263 78.6311 28.0438 78.4483C27.9795 78.3063 27.9624 78.1487 27.9929 77.998C28.0017 77.9547 28.0142 77.9122 28.0309 77.8706C28.4696 76.7706 29.1326 75.7123 29.8421 74.7723C28.0861 75.9842 26.4767 77.4466 26.2006 78.8138C26.1398 79.1148 25.8994 79.3466 25.5963 79.3966C25.2935 79.4463 24.9911 79.3034 24.8374 79.0378C24.0997 77.764 23.9258 76.1275 24.3204 74.1733C24.5102 73.2338 24.8076 72.3408 25.1097 71.583C22.281 72.9909 17.1974 74.5902 13.0797 70.8157C12.8862 70.6384 12.8043 70.3751 12.8547 70.1252C12.8649 70.0743 12.8806 70.0242 12.9021 69.9752C13.0288 69.686 13.3252 69.5091 13.6401 69.5352C15.6929 69.7058 18.3884 67.8936 20.2462 66.3313C17.9573 66.5706 14.5953 66.6173 12.6726 65.2224C12.4365 65.0511 12.3256 64.7593 12.3822 64.4787C12.3878 64.4509 12.3949 64.4232 12.4039 64.3957C12.5033 64.091 12.7877 63.885 13.1081 63.8859C15.0851 63.8906 17.1863 62.8581 18.4273 62.1255C17.1029 61.6185 14.9127 61.0173 13.1042 61.6634C11.9527 62.0749 11.1269 62.9231 10.5799 64.2565C10.4736 64.5157 10.23 64.6923 9.95069 64.7129C9.67143 64.7334 9.40441 64.5943 9.26131 64.3536C8.85235 63.6656 8.74531 62.8209 8.94273 61.8426C9.30476 60.0498 10.6701 58.02 12.0382 56.7324C8.26354 56.2783 6.36025 55.3511 6.26825 55.3053C5.96286 55.1534 5.80822 54.8182 5.87271 54.498C5.88427 54.4407 5.90298 54.3836 5.9291 54.3284C6.10086 53.9647 6.53179 53.8052 6.8989 53.9696C6.92248 53.9802 8.9603 54.867 10.3635 54.2796C3.95854 50.7631 1.64331 49.2549 1.54321 49.1897C1.28476 49.0205 1.16523 48.7147 1.22372 48.4257C1.23782 48.3561 1.2621 48.2877 1.29723 48.2223C1.47848 47.885 1.88766 47.7419 2.23951 47.8931C4.30971 48.7817 7.41072 49.6847 9.14733 49.4963C6.83416 47.8279 5.14658 48.6444 5.12762 48.6539C4.76491 48.8372 4.3222 48.6932 4.13679 48.3314C4.0575 48.1767 4.03807 48.0068 4.06997 47.8487C4.11274 47.6372 4.2473 47.4462 4.45351 47.3389C4.57441 47.2763 6.99161 46.0314 9.35147 45.5952C8.39416 44.4504 6.58125 42.6359 4.25653 41.9553C3.9093 41.8536 3.68669 41.5153 3.73108 41.1561C3.73339 41.1369 3.7364 41.1182 3.74033 41.0995C3.80714 40.7684 4.09239 40.5217 4.43477 40.5081C4.51614 40.5049 5.33129 40.4755 6.44741 40.553C5.19905 40.08 4.49488 40.0363 4.48147 40.0358C4.15274 40.0196 3.87163 39.788 3.79604 39.4676C3.77061 39.3603 3.7699 39.2519 3.7907 39.149C3.83209 38.9444 3.95903 38.7616 4.14975 38.6541C4.25794 38.5933 5.89558 37.6859 7.80742 37.4321C7.08822 37.0529 6.35657 36.7246 5.63553 36.4012C3.68369 35.5258 1.66527 34.6207 0.166081 32.7812C0.0227506 32.6055 -0.0281011 32.3797 0.0146667 32.1681C0.0359351 32.0629 0.0803186 31.9615 0.147822 31.8713C0.35149 31.5997 0.713968 31.5019 1.02652 31.6343C3.79094 32.8039 6.12146 33.2748 7.75219 33.4544C6.48487 32.7384 4.86224 31.9908 3.44882 31.8706C3.247 31.8535 3.06113 31.7541 2.93444 31.596C2.80799 31.4378 2.75181 31.2346 2.77932 31.034C2.78348 31.0039 2.78833 30.975 2.79434 30.9459C3.02321 29.8129 4.43895 29.2602 7.2503 29.2061C9.03984 29.1716 10.7545 29.3505 10.8266 29.3582C11.0102 29.3776 11.1796 29.465 11.3019 29.603L50.5325 73.8996C50.6694 74.0541 50.7353 74.2591 50.7145 74.4644C50.7119 74.4884 50.7082 74.5122 50.7036 74.5354Z" fill="url(#paint1_linear_206_4599)"/>
<path d="M5.25665 31.0543C8.18937 31.3038 11.8327 34.0511 11.8327 34.0511C11.8327 34.0511 8.09389 34.5113 2.59741 32.1859C5.07656 35.2278 9.1328 35.384 12.351 38.2601C9.92805 36.7928 6.21649 38.8829 6.21649 38.8829C6.21649 38.8829 8.84985 38.9728 13.0705 42.1453C10.7372 40.5694 6.17049 40.7518 6.17049 40.7518C9.82148 41.8207 12.1742 45.4886 12.1742 45.4886C9.73386 45.5369 6.48698 47.2236 6.48698 47.2236C6.48698 47.2236 8.9853 45.9604 12.0382 48.8971C10.06 50.4862 3.75724 47.777 3.75724 47.777C3.75724 47.777 6.19662 49.3745 13.1128 53.1463C11.5581 55.097 8.21573 53.6004 8.21573 53.6004C8.21573 53.6004 10.6253 54.7986 15.5147 55.0746C13.8941 55.4285 9.97775 60.1919 11.3796 62.5507C13.7739 56.7132 21.0421 60.6589 21.0421 60.6589C21.0421 60.6589 17.6605 63.1799 14.458 63.1723C17.1561 65.1299 23.4686 63.7641 23.4686 63.7641C23.4686 63.7641 18.6053 68.8949 14.9109 68.5879C20.3179 73.5441 27.6138 68.0525 27.6138 68.0525C27.6138 68.0525 24.4372 73.3871 26.3213 76.6402C27.0075 73.2433 34.2773 69.9458 34.2773 69.9458C34.2773 69.9458 30.7248 72.8894 29.429 76.1386C31.4088 76.8453 38.0823 71.4771 38.0823 71.4771C38.0823 71.4771 34.8596 76.4865 26.6154 79.0135C31.7508 82.0329 40.9595 76.7154 40.9595 76.7154C40.9595 76.7154 37.8834 83.395 39.6852 85.9609C39.1235 80.5365 49.8205 72.5378 49.8205 72.5378L12.1971 30.0554C12.1977 30.0554 5.49129 29.3454 5.25665 31.0543Z" fill="#318063"/>
<path d="M85.7776 39.6356C85.7776 43.0363 82.0802 45.9056 81.2419 49.042C80.3745 52.2873 82.1165 56.6161 80.4726 59.4575C78.8051 62.3396 74.1695 62.9853 71.8304 65.3243C69.4914 67.6634 68.8457 72.299 65.9636 73.9664C63.1224 75.6104 58.7936 73.8684 55.5484 74.7358C52.412 75.5741 49.5426 79.2715 46.142 79.2715C42.7413 79.2715 39.872 75.5741 36.7356 74.7358C33.4903 73.8684 29.1615 75.6104 26.3203 73.9664C23.4383 72.299 22.7926 67.6634 20.4535 65.3243C18.1145 62.9853 13.4791 62.3396 11.8114 59.4575C10.1675 56.6163 11.9094 52.2875 11.0421 49.0423C10.2038 45.9059 6.50635 43.0365 6.50635 39.6359C6.50635 36.2352 10.2038 33.3659 11.0421 30.2295C11.9094 26.9842 10.1675 22.6554 11.8114 19.814C13.4789 16.9319 18.1145 16.2862 20.4535 13.9472C22.7926 11.6081 23.4383 6.97255 26.3203 5.30506C29.1615 3.66116 33.4903 5.40308 36.7356 4.5357C39.872 3.69745 42.7413 0 46.142 0C49.5426 0 52.412 3.69745 55.5484 4.5357C58.7936 5.40308 63.1224 3.66116 65.9636 5.30506C68.8457 6.97255 69.4914 11.6081 71.8304 13.9472C74.1695 16.2862 78.8048 16.9319 80.4726 19.814C82.1165 22.6552 80.3745 26.984 81.2419 30.2293C82.0804 33.3656 85.7776 36.235 85.7776 39.6356Z" fill="url(#paint2_linear_206_4599)"/>
<path d="M83.7942 37.6533C83.7942 38.376 83.6194 39.0728 83.336 39.7529C82.9793 40.6173 82.4527 41.4534 81.8953 42.2801C80.9292 43.7162 79.8783 45.119 79.4862 46.5881C78.9501 48.5957 79.4626 51.0378 79.4578 53.2437C79.4531 54.4246 79.2997 55.5419 78.7539 56.4841C78.5909 56.7653 78.3971 57.0251 78.1775 57.266C76.2881 59.3655 72.5375 60.0649 70.544 62.0558C68.324 64.2783 67.7098 68.6832 64.9724 70.2656C62.2727 71.829 58.161 70.1736 55.0764 70.9977C52.0981 71.7936 49.3725 75.3057 46.1416 75.3057C42.9107 75.3057 40.1851 71.7936 37.2045 70.9977C34.1222 70.1733 30.0105 71.829 27.3108 70.2656C24.5734 68.6832 23.9594 64.2783 21.7369 62.0558C19.5166 59.8355 15.112 59.2215 13.5271 56.4841C13.4656 56.3755 13.4066 56.2668 13.3546 56.1536C12.9602 55.3105 12.8349 54.3467 12.828 53.3311C12.8067 51.1016 13.3405 48.6216 12.7973 46.5881C12.0013 43.6099 8.48926 40.8843 8.48926 37.6533C8.48926 34.4224 12.0013 31.6968 12.7973 28.7162C13.6216 25.634 11.9659 21.522 13.5271 18.8225C15.1118 16.0852 19.5166 15.4712 21.7369 13.2486C23.9594 11.0286 24.5734 6.62376 27.3108 5.0388C30.0105 3.47766 34.1222 5.13335 37.2045 4.30897C40.1851 3.51303 42.9107 0.000976562 46.1416 0.000976562C49.3725 0.000976562 52.0981 3.51303 55.0764 4.30897C58.161 5.13335 62.273 3.47766 64.9724 5.0388C67.6342 6.57868 68.2884 10.7852 70.3621 13.0572C70.421 13.1233 70.4825 13.1871 70.544 13.2484C72.1405 14.8449 74.8592 15.6103 76.8524 16.9306C77.6366 17.4477 78.3072 18.0502 78.7536 18.8223C80.3173 21.5218 78.6616 25.6337 79.4857 28.716C80.2821 31.6968 83.7942 34.4224 83.7942 37.6533Z" fill="url(#paint3_linear_206_4599)"/>
<path d="M78.7044 46.0756C77.8895 49.1249 79.5263 53.1917 77.9818 55.863C76.416 58.5696 72.0606 59.1767 69.8619 61.3754C67.6654 63.5718 67.0584 67.9272 64.3518 69.493C61.6805 71.0377 57.6134 69.4008 54.5667 70.2157C51.6192 71.0044 48.922 74.4788 45.7288 74.4788C42.5332 74.4788 39.8361 71.0044 36.8909 70.2157C33.8416 69.4008 29.7747 71.0375 27.1058 69.493C24.3969 67.927 23.7898 63.5718 21.5934 61.3731C19.3946 59.1767 15.0393 58.5696 13.4735 55.863C11.9288 53.1917 13.5655 49.1246 12.7508 46.0756C11.9621 43.1304 8.48999 40.4333 8.48999 37.24C8.48999 35.582 9.42536 34.0586 10.4361 32.5635C11.121 31.5503 11.8391 30.5488 12.3255 29.5286C12.5026 29.1555 12.6491 28.7798 12.7506 28.4021C13.5655 25.3529 11.9288 21.286 13.4733 18.617C15.0393 15.9081 19.3944 15.301 21.5932 13.1046C23.7896 10.9057 24.3966 6.5505 27.1056 4.98473C29.7745 3.44 33.8414 5.07674 36.8906 4.26207C39.8358 3.47329 42.533 0.00146484 45.7286 0.00146484C48.9218 0.00146484 51.6189 3.47329 54.5642 4.26207C57.6132 5.07697 61.6803 3.44023 64.3515 4.98473C66.9354 6.47976 67.606 10.5138 69.5759 12.7907C69.6656 12.8993 69.7625 13.0031 69.8642 13.1048C71.4394 14.6801 74.125 15.4384 76.0947 16.7397C76.874 17.2522 77.5402 17.8498 77.9818 18.6173C79.5265 21.2862 77.8897 25.3533 78.7044 28.4023C79.4932 31.3475 82.9676 34.0447 82.9676 37.2402C82.9676 40.433 79.4934 43.1304 78.7044 46.0756Z" fill="url(#paint4_linear_206_4599)"/>
<path d="M26.496 31.1297C21.2505 31.9686 14.7128 32.3746 10.436 32.5632C11.121 31.55 11.8391 30.5485 12.3255 29.5283C16.0599 29.766 21.1685 29.9548 26.3508 29.7253C27.2431 29.686 27.3779 30.9887 26.496 31.1297Z" fill="url(#paint5_linear_206_4599)"/>
<path d="M83.3362 39.7529C82.9795 40.6173 82.4529 41.4535 81.8955 42.2802C41.801 43.421 22.2946 50.83 13.355 56.1536C12.9606 55.3105 12.8353 54.3467 12.8284 53.3311C13.4803 52.5636 14.1983 51.7275 14.9871 50.8134C37.1411 42.1902 71.593 40.1945 83.3362 39.7529Z" fill="url(#paint6_linear_206_4599)"/>
<path d="M79.4578 53.2437C79.4532 54.4245 79.2997 55.5418 78.7539 56.4841C78.5909 56.7652 78.3972 57.025 78.1775 57.2659C74.3116 58.2593 64.4171 60.6356 54.888 61.5788C54.2238 61.6444 54.0849 60.6635 54.7415 60.5426C64.465 58.7482 74.2334 55.2718 79.4578 53.2437Z" fill="url(#paint7_linear_206_4599)"/>
<path d="M76.8529 16.931C71.8933 18.2496 57.7084 21.7222 45.5025 21.7723C44.7428 21.7756 44.6355 20.6763 45.3823 20.536C55.1174 18.7071 65.0222 15.1479 70.3626 13.0576C70.4216 13.1237 70.4831 13.1875 70.5445 13.2488C72.1411 14.8453 74.8595 15.6107 76.8529 16.931Z" fill="url(#paint8_linear_206_4599)"/>
<path d="M29.7937 21.2941C29.7937 21.0645 29.8013 20.8925 29.8161 20.7778C29.8311 20.6632 29.8735 20.5309 29.9433 20.3811C30.0829 20.1118 30.472 19.9771 31.1107 19.9771C31.7192 19.9771 32.0983 20.1118 32.2481 20.3811C32.3279 20.5307 32.3752 20.6655 32.3903 20.7852C32.4053 20.905 32.4127 21.0795 32.4127 21.3091V28.2384C32.4127 28.5977 32.4425 28.8247 32.5026 28.9195C32.5625 29.0145 32.6947 29.0616 32.8991 29.0616C33.1035 29.0616 33.2408 29.069 33.3106 29.0841C33.3804 29.0991 33.4653 29.1416 33.5651 29.2112C33.7646 29.3411 33.8645 29.6953 33.8645 30.2737C33.8645 30.9023 33.7646 31.2865 33.5651 31.4261C33.3055 31.6057 32.6871 31.6356 31.7095 31.5161C30.941 31.4164 30.4424 31.1619 30.2128 30.7527C29.9333 30.264 29.7937 29.4858 29.7937 28.418V21.2941Z" fill="#562500"/>
<path d="M42.1407 26.6892C42.1407 27.3028 41.9886 27.757 41.6843 28.0511C41.3799 28.3454 41.0431 28.4926 40.6741 28.4926H37.1271C37.1271 28.7721 37.2917 29.0065 37.6209 29.1959C37.9501 29.3854 38.2796 29.4802 38.6088 29.4802C39.1872 29.4802 39.6414 29.4203 39.9706 29.3006L40.1352 29.2407C40.3747 29.1311 40.5742 29.0761 40.734 29.0761C41.053 29.0761 41.3274 29.3006 41.5572 29.7495C41.6867 30.0189 41.7516 30.2487 41.7516 30.438C41.7516 31.3262 40.6891 31.77 38.5639 31.77C37.8255 31.77 37.1694 31.6429 36.5959 31.3884C36.0221 31.1338 35.5757 30.7972 35.2565 30.3781C34.6279 29.5699 34.3137 28.6672 34.3137 27.6694C34.3137 26.4123 34.7201 25.4071 35.5334 24.6539C36.3465 23.9007 37.3616 23.5239 38.5789 23.5239C39.9655 23.5239 40.9832 24.0129 41.6319 24.9905C41.9708 25.5093 42.1407 26.0754 42.1407 26.6892ZM38.9828 27.1305C39.3619 27.1305 39.5515 26.971 39.5515 26.6515C39.5515 26.4222 39.4641 26.2377 39.2896 26.0979C39.115 25.9582 38.8654 25.8884 38.5413 25.8884C38.2169 25.8884 37.8951 26.0206 37.5761 26.2849C37.2566 26.5494 37.0971 26.8312 37.0971 27.1305H38.9828Z" fill="#562500"/>
<path d="M50.6111 23.8678C51.1298 24.1771 51.3892 24.5063 51.3892 24.8554C51.3892 25.0551 51.2893 25.3295 51.0898 25.6786L47.992 30.9915C47.8922 31.1612 47.7324 31.3133 47.513 31.4481C47.2934 31.5826 47.0764 31.6501 46.8621 31.6501C46.6473 31.6501 46.4429 31.5977 46.2485 31.4929C46.0539 31.3882 45.9165 31.2812 45.837 31.1711L45.7022 31.0065L42.5892 25.6786C42.3895 25.3494 42.29 25.0801 42.29 24.8704C42.29 24.5111 42.5494 24.1771 43.0682 23.8678C43.4473 23.6484 43.7467 23.5386 43.9661 23.5386C44.1855 23.5386 44.3575 23.6058 44.4823 23.7406C44.6069 23.8752 44.7392 24.0774 44.879 24.3468L46.8394 28.1182L48.7998 24.3468C48.9096 24.1574 48.9919 24.0201 49.0467 23.9353C49.1015 23.8507 49.1889 23.7658 49.3086 23.6807C49.4284 23.5961 49.5879 23.5536 49.7876 23.5536C49.9873 23.5536 50.2617 23.6583 50.6111 23.8678Z" fill="#562500"/>
<path d="M59.3663 26.6892C59.3663 27.3028 59.2142 27.757 58.9099 28.0511C58.6055 28.3454 58.2686 28.4926 57.8997 28.4926H54.3527C54.3527 28.7721 54.5173 29.0065 54.8465 29.1959C55.1757 29.3854 55.5052 29.4802 55.8344 29.4802C56.4128 29.4802 56.867 29.4203 57.1962 29.3006L57.3608 29.2407C57.6003 29.1311 57.7998 29.0761 57.9596 29.0761C58.2786 29.0761 58.553 29.3006 58.7828 29.7495C58.9123 30.0189 58.9772 30.2487 58.9772 30.438C58.9772 31.3262 57.9147 31.77 55.7895 31.77C55.0511 31.77 54.395 31.6429 53.8215 31.3884C53.2477 31.1338 52.8013 30.7972 52.482 30.3781C51.8535 29.5699 51.5393 28.6672 51.5393 27.6694C51.5393 26.4123 51.9457 25.4071 52.759 24.6539C53.5721 23.9007 54.5871 23.5239 55.8045 23.5239C57.1911 23.5239 58.2088 24.0129 58.8575 24.9905C59.1964 25.5093 59.3663 26.0754 59.3663 26.6892ZM56.2084 27.1305C56.5875 27.1305 56.7771 26.971 56.7771 26.6515C56.7771 26.4222 56.6897 26.2377 56.5152 26.0979C56.3406 25.9582 56.091 25.8884 55.7668 25.8884C55.4425 25.8884 55.1207 26.0206 54.8017 26.2849C54.4822 26.5494 54.3227 26.8312 54.3227 27.1305H56.2084Z" fill="#562500"/>
<path d="M60.3389 21.2941C60.3389 21.0645 60.3465 20.8925 60.3613 20.7778C60.3763 20.6632 60.4186 20.5309 60.4884 20.3811C60.6281 20.1118 61.0171 19.9771 61.6559 19.9771C62.2644 19.9771 62.6435 20.1118 62.7933 20.3811C62.8731 20.5307 62.9204 20.6655 62.9355 20.7852C62.9505 20.905 62.9579 21.0795 62.9579 21.3091V28.2384C62.9579 28.5977 62.9877 28.8247 63.0478 28.9195C63.1077 29.0145 63.2399 29.0616 63.4443 29.0616C63.6486 29.0616 63.786 29.069 63.8558 29.0841C63.9256 29.0991 64.0105 29.1416 64.1103 29.2112C64.3098 29.3411 64.4097 29.6953 64.4097 30.2737C64.4097 30.9023 64.3098 31.2865 64.1103 31.4261C63.8507 31.6057 63.2323 31.6356 62.2546 31.5161C61.4862 31.4164 60.9875 31.1619 60.758 30.7527C60.4785 30.264 60.3389 29.4858 60.3389 28.418V21.2941Z" fill="#562500"/>
<path d="M29.769 21.1845C29.769 20.9645 29.7762 20.7994 29.7905 20.6894C29.8049 20.5793 29.8453 20.4526 29.9124 20.3088C30.0465 20.0504 30.4196 19.9214 31.0322 19.9214C31.6157 19.9214 31.9796 20.0506 32.1231 20.3088C32.1996 20.4524 32.2452 20.5816 32.2595 20.6965C32.2739 20.8114 32.281 20.9788 32.281 21.1989V27.8452C32.281 28.1897 32.3099 28.4077 32.3673 28.4983C32.4248 28.5894 32.5515 28.6347 32.7478 28.6347C32.9438 28.6347 33.0756 28.6419 33.1426 28.6562C33.2094 28.6705 33.2908 28.7115 33.3868 28.7783C33.5779 28.9029 33.6739 29.2425 33.6739 29.7975C33.6739 30.4004 33.5779 30.7689 33.3868 30.9028C33.1378 31.075 32.5443 31.1039 31.6067 30.9888C30.8697 30.8933 30.3914 30.6492 30.1713 30.2569C29.9031 29.788 29.7693 29.0416 29.7693 28.0175L29.769 21.1845Z" fill="#E6E5D1"/>
<path d="M41.612 26.3588C41.612 26.9474 41.4658 27.3829 41.1741 27.6652C40.8821 27.9475 40.5592 28.0885 40.2053 28.0885H36.8032C36.8032 28.3566 36.9611 28.5816 37.2769 28.7633C37.5927 28.9452 37.9085 29.0361 38.2243 29.0361C38.7791 29.0361 39.2149 28.9787 39.5304 28.8638L39.6883 28.8065C39.9181 28.7013 40.1093 28.6486 40.2626 28.6486C40.5686 28.6486 40.8317 28.8639 41.0521 29.2945C41.1764 29.553 41.2388 29.7733 41.2388 29.9548C41.2388 30.8067 40.2196 31.2323 38.1811 31.2323C37.4727 31.2323 36.8437 31.1102 36.2935 30.8661C35.7431 30.622 35.3149 30.299 35.0086 29.8972C34.4057 29.1221 34.1042 28.2561 34.1042 27.299C34.1042 26.0932 34.4942 25.1292 35.2742 24.4065C36.054 23.6841 37.0277 23.3228 38.1954 23.3228C39.5253 23.3228 40.5016 23.7918 41.1237 24.7295C41.449 25.2272 41.612 25.7702 41.612 26.3588ZM38.5831 26.7823C38.9467 26.7823 39.1287 26.6293 39.1287 26.323C39.1287 26.1029 39.0447 25.926 38.8774 25.792C38.7098 25.6581 38.4705 25.5911 38.1598 25.5911C37.8486 25.5911 37.54 25.718 37.2339 25.9716C36.9276 26.2252 36.7746 26.4954 36.7746 26.7826H38.5831V26.7823Z" fill="#E6E5D1"/>
<path d="M49.737 23.6532C50.2345 23.9498 50.4835 24.2658 50.4835 24.6006C50.4835 24.7922 50.3876 25.0553 50.1964 25.39L47.2248 30.4861C47.1291 30.6491 46.9758 30.7947 46.7655 30.924C46.5548 31.0532 46.3466 31.1177 46.1411 31.1177C45.9351 31.1177 45.739 31.0675 45.5525 30.967C45.3659 30.8664 45.2341 30.7638 45.1576 30.6583L45.0284 30.5004L42.0425 25.39C41.8509 25.0742 41.7554 24.8158 41.7554 24.6149C41.7554 24.2704 42.0041 23.9498 42.5018 23.6532C42.8655 23.4428 43.1526 23.3374 43.3632 23.3374C43.5736 23.3374 43.7387 23.4019 43.8584 23.5311C43.9779 23.6604 44.1046 23.8541 44.2389 24.1125L46.1193 27.73L47.9997 24.1125C48.1049 23.9308 48.184 23.7993 48.2367 23.7177C48.2891 23.6366 48.3731 23.5549 48.4877 23.4736C48.6026 23.3924 48.7557 23.3515 48.9471 23.3515C49.1387 23.3517 49.4018 23.4523 49.737 23.6532Z" fill="#E6E5D1"/>
<path d="M58.1344 26.3588C58.1344 26.9474 57.9883 27.3829 57.6966 27.6652C57.4046 27.9475 57.0816 28.0885 56.7277 28.0885H53.3257C53.3257 28.3566 53.4836 28.5816 53.7994 28.7633C54.1152 28.9452 54.431 29.0361 54.7468 29.0361C55.3016 29.0361 55.7374 28.9787 56.0529 28.8638L56.2108 28.8065C56.4406 28.7013 56.6318 28.6486 56.7851 28.6486C57.0911 28.6486 57.3542 28.8639 57.5745 29.2945C57.6989 29.553 57.7613 29.7733 57.7613 29.9548C57.7613 30.8067 56.7421 31.2323 54.7035 31.2323C53.9952 31.2323 53.3662 31.1102 52.816 30.8661C52.2655 30.622 51.8374 30.299 51.5311 29.8972C50.9282 29.1221 50.6267 28.2561 50.6267 27.299C50.6267 26.0932 51.0167 25.1292 51.7967 24.4065C52.5765 23.6841 53.5502 23.3228 54.7179 23.3228C56.0478 23.3228 57.0241 23.7918 57.6462 24.7295C57.9715 25.2272 58.1344 25.7702 58.1344 26.3588ZM55.1055 26.7823C55.4692 26.7823 55.6511 26.6293 55.6511 26.323C55.6511 26.1029 55.5672 25.926 55.3998 25.792C55.2322 25.6581 54.993 25.5911 54.6823 25.5911C54.3711 25.5911 54.0625 25.718 53.7564 25.9716C53.4501 26.2252 53.297 26.4954 53.297 26.7826H55.1055V26.7823Z" fill="#E6E5D1"/>
<path d="M59.0671 21.1845C59.0671 20.9645 59.0743 20.7994 59.0886 20.6894C59.103 20.5793 59.1434 20.4526 59.2105 20.3088C59.3446 20.0504 59.7177 19.9214 60.3303 19.9214C60.9138 19.9214 61.2777 20.0506 61.4212 20.3088C61.4977 20.4524 61.5433 20.5816 61.5576 20.6965C61.572 20.8114 61.5791 20.9788 61.5791 21.1989V27.8452C61.5791 28.1897 61.608 28.4077 61.6653 28.4983C61.7229 28.5894 61.8496 28.6347 62.0459 28.6347C62.2419 28.6347 62.3737 28.6419 62.4407 28.6562C62.5075 28.6705 62.5889 28.7115 62.6848 28.7783C62.876 28.9029 62.972 29.2425 62.972 29.7975C62.972 30.4004 62.876 30.7689 62.6848 30.9028C62.4359 31.075 61.8424 31.1039 60.9048 30.9888C60.1678 30.8933 59.6895 30.6492 59.4694 30.2569C59.2012 29.788 59.0674 29.0416 59.0674 28.0175L59.0671 21.1845Z" fill="#E6E5D1"/>
<g filter="url(#filter0_d_206_4599)">
<mask id="path-22-outside-1_206_4599" maskUnits="userSpaceOnUse" x="36" y="34" width="22" height="27" fill="black">
<rect fill="white" x="36" y="34" width="22" height="27"/>
<path d="M47.2531 58.3003C45.5657 58.3003 44.0678 58.0036 42.7593 57.4101C41.458 56.8095 40.432 55.9837 39.6813 54.9326C38.9377 53.8816 38.5587 52.6732 38.5444 51.3076H44.3359C44.3574 52.0655 44.6505 52.6697 45.2154 53.1201C45.7874 53.5706 46.4666 53.7958 47.2531 53.7958C47.8609 53.7958 48.3971 53.6671 48.8619 53.4097C49.3266 53.1451 49.6913 52.7733 49.9558 52.2943C50.2204 51.8152 50.3491 51.2575 50.3419 50.6212C50.3491 49.9777 50.2204 49.42 49.9558 48.9481C49.6913 48.469 49.3266 48.1008 48.8619 47.8434C48.3971 47.5788 47.8609 47.4466 47.2531 47.4466C46.6239 47.4466 46.0412 47.6003 45.505 47.9077C44.9758 48.208 44.5862 48.6263 44.3359 49.1626L39.1021 48.133L39.9601 36.0351H54.7178V40.797H44.8507L44.4217 45.6448H44.5504C44.8936 44.9798 45.4871 44.4293 46.3308 43.9931C47.1745 43.5498 48.154 43.3282 49.2694 43.3282C50.5779 43.3282 51.7433 43.632 52.7658 44.2398C53.7954 44.8475 54.6069 45.6877 55.2004 46.7602C55.801 47.8255 56.0977 49.0553 56.0906 50.4496C56.0977 51.9797 55.7331 53.3382 54.9966 54.5251C54.2673 55.7048 53.2413 56.6308 51.9185 57.3029C50.5958 57.9678 49.0406 58.3003 47.2531 58.3003Z"/>
</mask>
<path d="M47.2531 58.3003C45.5657 58.3003 44.0678 58.0036 42.7593 57.4101C41.458 56.8095 40.432 55.9837 39.6813 54.9326C38.9377 53.8816 38.5587 52.6732 38.5444 51.3076H44.3359C44.3574 52.0655 44.6505 52.6697 45.2154 53.1201C45.7874 53.5706 46.4666 53.7958 47.2531 53.7958C47.8609 53.7958 48.3971 53.6671 48.8619 53.4097C49.3266 53.1451 49.6913 52.7733 49.9558 52.2943C50.2204 51.8152 50.3491 51.2575 50.3419 50.6212C50.3491 49.9777 50.2204 49.42 49.9558 48.9481C49.6913 48.469 49.3266 48.1008 48.8619 47.8434C48.3971 47.5788 47.8609 47.4466 47.2531 47.4466C46.6239 47.4466 46.0412 47.6003 45.505 47.9077C44.9758 48.208 44.5862 48.6263 44.3359 49.1626L39.1021 48.133L39.9601 36.0351H54.7178V40.797H44.8507L44.4217 45.6448H44.5504C44.8936 44.9798 45.4871 44.4293 46.3308 43.9931C47.1745 43.5498 48.154 43.3282 49.2694 43.3282C50.5779 43.3282 51.7433 43.632 52.7658 44.2398C53.7954 44.8475 54.6069 45.6877 55.2004 46.7602C55.801 47.8255 56.0977 49.0553 56.0906 50.4496C56.0977 51.9797 55.7331 53.3382 54.9966 54.5251C54.2673 55.7048 53.2413 56.6308 51.9185 57.3029C50.5958 57.9678 49.0406 58.3003 47.2531 58.3003Z" fill="white"/>
<path d="M42.7593 57.4101L41.9763 59.1067L41.9875 59.1118L42.7593 57.4101ZM39.6813 54.9326L38.1559 56.0118L38.1608 56.0187L39.6813 54.9326ZM38.5444 51.3076V49.439H36.6562L36.676 51.3271L38.5444 51.3076ZM44.3359 51.3076L46.2037 51.2547L46.1523 49.439H44.3359V51.3076ZM45.2154 53.1201L44.0503 54.581L44.0593 54.5881L45.2154 53.1201ZM48.8619 53.4097L49.7672 55.0443L49.7768 55.039L49.7862 55.0336L48.8619 53.4097ZM49.9558 52.2943L48.3201 51.391L48.3201 51.391L49.9558 52.2943ZM50.3419 50.6212L48.4735 50.6004L48.4733 50.6213L48.4735 50.6422L50.3419 50.6212ZM49.9558 48.9481L48.3201 49.8514L48.3259 49.8618L49.9558 48.9481ZM48.8619 47.8434L47.9375 49.4673L47.947 49.4727L47.9566 49.478L48.8619 47.8434ZM45.505 47.9077L46.4273 49.5328L46.4343 49.5288L45.505 47.9077ZM44.3359 49.1626L43.9753 50.996L45.4106 51.2783L46.0292 49.9528L44.3359 49.1626ZM39.1021 48.133L37.2382 48.0008L37.1214 49.6477L38.7414 49.9664L39.1021 48.133ZM39.9601 36.0351V34.1666H38.2194L38.0963 35.9029L39.9601 36.0351ZM54.7178 36.0351H56.5863V34.1666H54.7178V36.0351ZM54.7178 40.797V42.6656H56.5863V40.797H54.7178ZM44.8507 40.797V38.9285H43.1402L42.9895 40.6323L44.8507 40.797ZM44.4217 45.6448L42.5605 45.48L42.3805 47.5133H44.4217V45.6448ZM44.5504 45.6448V47.5133H45.6888L46.2108 46.5018L44.5504 45.6448ZM46.3308 43.9931L47.1889 45.653L47.1999 45.6472L46.3308 43.9931ZM52.7658 44.2398L51.8111 45.846L51.816 45.8489L52.7658 44.2398ZM55.2004 46.7602L53.5654 47.6648L53.569 47.6713L53.5727 47.6778L55.2004 46.7602ZM56.0906 50.4496L54.222 50.44L54.222 50.4492L54.222 50.4583L56.0906 50.4496ZM54.9966 54.5251L53.4089 53.5399L53.4072 53.5426L54.9966 54.5251ZM51.9185 57.3029L52.7578 58.9724L52.7649 58.9687L51.9185 57.3029ZM47.2531 56.4318C45.786 56.4318 44.5585 56.1744 43.5311 55.7084L41.9875 59.1118C43.5771 59.8328 45.3455 60.1688 47.2531 60.1688V56.4318ZM43.5424 55.7136C42.5027 55.2337 41.7438 54.6054 41.2018 53.8466L38.1608 56.0187C39.1202 57.362 40.4134 58.3853 41.9763 59.1067L43.5424 55.7136ZM41.2066 53.8535C40.6961 53.1318 40.4234 52.2982 40.4128 51.288L36.676 51.3271C36.694 53.0483 37.1792 54.6313 38.1559 56.0118L41.2066 53.8535ZM38.5444 53.1761H44.3359V49.439H38.5444V53.1761ZM42.4681 51.3604C42.5043 52.6371 43.0316 53.7686 44.0504 54.581L46.3804 51.6592C46.2694 51.5707 46.2105 51.4938 46.2037 51.2547L42.4681 51.3604ZM44.0593 54.5881C44.988 55.3194 46.0832 55.6643 47.2531 55.6643V51.9272C46.8501 51.9272 46.5868 51.8217 46.3714 51.6521L44.0593 54.5881ZM47.2531 55.6643C48.1315 55.6643 48.9876 55.476 49.7672 55.0443L47.9566 51.7751C47.8066 51.8582 47.5903 51.9272 47.2531 51.9272V55.6643ZM49.7862 55.0336C50.5572 54.5947 51.1648 53.9703 51.5915 53.1976L48.3201 51.391C48.2178 51.5763 48.0961 51.6955 47.9375 51.7858L49.7862 55.0336ZM51.5915 53.1976C52.0361 52.3926 52.2205 51.5065 52.2104 50.6002L48.4735 50.6422C48.4776 51.0086 48.4047 51.2378 48.3201 51.391L51.5915 53.1976ZM52.2104 50.6419C52.2205 49.7336 52.0381 48.8413 51.5857 48.0343L48.3259 49.8618C48.4027 49.9987 48.4777 50.2217 48.4735 50.6004L52.2104 50.6419ZM51.5915 48.0448C51.1625 47.2679 50.5489 46.6418 49.7672 46.2088L47.9566 49.478C48.1044 49.5598 48.2201 49.6702 48.3201 49.8514L51.5915 48.0448ZM49.7863 46.2195C49.0032 45.7738 48.1401 45.578 47.2531 45.578V49.3151C47.5817 49.3151 47.7911 49.3839 47.9375 49.4673L49.7863 46.2195ZM47.2531 45.578C46.304 45.578 45.4 45.8141 44.5756 46.2867L46.4343 49.5288C46.6824 49.3865 46.9439 49.3151 47.2531 49.3151V45.578ZM44.5826 46.2827C43.7262 46.7688 43.0619 47.4742 42.6427 48.3724L46.0292 49.9528C46.1105 49.7785 46.2255 49.6473 46.4273 49.5328L44.5826 46.2827ZM44.6966 47.3292L39.4628 46.2996L38.7414 49.9664L43.9753 50.996L44.6966 47.3292ZM40.966 48.2652L41.824 36.1673L38.0963 35.9029L37.2382 48.0008L40.966 48.2652ZM39.9601 37.9037H54.7178V34.1666H39.9601V37.9037ZM52.8492 36.0351V40.797H56.5863V36.0351H52.8492ZM54.7178 38.9285H44.8507V42.6656H54.7178V38.9285ZM42.9895 40.6323L42.5605 45.48L46.283 45.8095L46.712 40.9618L42.9895 40.6323ZM44.4217 47.5133H44.5504V43.7762H44.4217V47.5133ZM46.2108 46.5018C46.3337 46.2638 46.5964 45.9593 47.1888 45.653L45.4727 42.3332C44.3778 42.8993 43.4536 43.6958 42.89 44.7878L46.2108 46.5018ZM47.1999 45.6472C47.7333 45.367 48.4052 45.1967 49.2694 45.1967V41.4596C47.9029 41.4596 46.6157 41.7327 45.4617 42.339L47.1999 45.6472ZM49.2694 45.1967C50.2765 45.1967 51.1059 45.4268 51.8111 45.846L53.7205 42.6336C52.3808 41.8372 50.8793 41.4596 49.2694 41.4596V45.1967ZM51.816 45.8489C52.5509 46.2827 53.1292 46.8764 53.5654 47.6648L56.8353 45.8555C56.0847 44.499 55.0399 43.4123 53.7156 42.6307L51.816 45.8489ZM53.5727 47.6778C53.9926 48.4226 54.2278 49.3243 54.222 50.44L57.9591 50.4592C57.9677 48.7864 57.6094 47.2285 56.8281 45.8425L53.5727 47.6778ZM54.222 50.4583C54.2277 51.672 53.9427 52.6796 53.4089 53.5399L56.5843 55.5103C57.5234 53.9968 57.9677 52.2873 57.9591 50.4408L54.222 50.4583ZM53.4072 53.5426C52.8708 54.4103 52.1114 55.109 51.0721 55.637L52.7649 58.9687C54.3712 58.1526 55.6638 56.9994 56.586 55.5076L53.4072 53.5426ZM51.0793 55.6334C50.0655 56.143 48.8089 56.4318 47.2531 56.4318V60.1688C49.2724 60.1688 51.126 59.7926 52.7578 58.9723L51.0793 55.6334Z" fill="url(#paint9_linear_206_4599)" mask="url(#path-22-outside-1_206_4599)"/>
</g>
<path d="M65.0149 61.0787L61.3507 52.4637C58.9548 46.8303 61.5884 40.2982 67.2217 37.9022C72.8553 35.5063 79.3872 38.1399 81.7831 43.7732L85.4473 52.3885L65.0149 61.0787ZM71.5581 41.6189C70.7109 41.6189 69.8507 41.7853 69.023 42.1374C67.4254 42.8168 66.1881 44.0779 65.5387 45.6881C64.8896 47.2982 64.9062 49.0649 65.5857 50.6625L67.4487 55.0427L79.411 49.9549L77.5482 45.575C76.4972 43.1042 74.0874 41.6189 71.5581 41.6189Z" fill="#124933"/>
<path d="M70.912 80.2372C69.3201 80.2372 67.8889 79.2907 67.2661 77.826L60.3218 61.4986C59.4671 59.4892 60.4066 57.1589 62.416 56.3043L83.811 47.2046C84.3053 46.9945 84.8264 46.8877 85.3595 46.8877C86.9514 46.8877 88.3824 47.8341 89.0054 49.2989L95.9497 65.6265C96.3638 66.6 96.3739 67.6763 95.9784 68.6575C95.5828 69.6386 94.8287 70.4068 93.8553 70.8208L72.4605 79.9204C71.966 80.1306 71.4449 80.2372 70.912 80.2372Z" fill="url(#paint10_linear_206_4599)"/>
<path d="M85.3594 47.3094C86.7359 47.3092 88.0445 48.1174 88.6172 49.4637L95.5615 65.7911C96.3263 67.5894 95.4887 69.6673 93.6904 70.432L72.2953 79.5316C71.8436 79.7237 71.3739 79.8148 70.912 79.8148C69.5356 79.8148 68.2269 79.0068 67.6542 77.6605L60.7099 61.3329C59.9451 59.5345 60.7829 57.4567 62.581 56.692L83.9761 47.5923C84.428 47.4005 84.8975 47.3094 85.3594 47.3094ZM85.3597 46.4658C84.7695 46.4658 84.1927 46.5837 83.6462 46.8163L62.2511 55.9159C60.0277 56.8616 58.9881 59.44 59.9338 61.6634L66.8781 77.9911C67.5675 79.6116 69.1509 80.6589 70.9122 80.6589C71.5024 80.6589 72.079 80.5409 72.6257 80.3084L94.0207 71.2088C96.2442 70.263 97.2838 67.6847 96.3381 65.4612L89.3937 49.1336C88.7041 47.5131 87.1208 46.4658 85.3597 46.4658Z" fill="#5A2903"/>
<path d="M92.578 69.436L72.3486 78.0399C70.6483 78.7631 68.6837 77.971 67.9603 76.2707L61.3942 60.8327C60.6711 59.1324 61.4631 57.1678 63.1634 56.4445L83.3928 47.8405C85.0931 47.1174 87.0577 47.9094 87.7811 49.6097L94.3472 65.0477C95.0705 66.7483 94.2783 68.7128 92.578 69.436Z" fill="url(#paint11_linear_206_4599)"/>
<path d="M92.1483 69.051L72.3692 77.4633C70.7069 78.1705 68.7858 77.3958 68.0788 75.7334L61.6588 60.6389C60.9516 58.9765 61.7263 57.0556 63.3887 56.3485L83.1678 47.9361C84.8302 47.229 86.751 48.0036 87.4582 49.666L93.8783 64.7606C94.5854 66.423 93.811 68.344 92.1483 69.051Z" fill="url(#paint12_linear_206_4599)"/>
<path d="M77.5638 59.3199L75.4712 60.21L78.1644 66.5419L80.257 65.6518L77.5638 59.3199Z" fill="#124933"/>
<defs>
<filter id="filter0_d_206_4599" x="38.5444" y="36.0352" width="18.9297" height="23.6379" filterUnits="userSpaceOnUse" color-interpolation-filters="sRGB">
<feFlood flood-opacity="0" result="BackgroundImageFix"/>
<feColorMatrix in="SourceAlpha" type="matrix" values="0 0 0 0 0 0 0 0 0 0 0 0 0 0 0 0 0 0 127 0" result="hardAlpha"/>
<feOffset dx="1.3728" dy="1.3728"/>
<feComposite in2="hardAlpha" operator="out"/>
<feColorMatrix type="matrix" values="0 0 0 0 0.615686 0 0 0 0 0.294118 0 0 0 0 0.0705882 0 0 0 1 0"/>
<feBlend mode="normal" in2="BackgroundImageFix" result="effect1_dropShadow_206_4599"/>
<feBlend mode="normal" in="SourceGraphic" in2="effect1_dropShadow_206_4599" result="shape"/>
</filter>
<linearGradient id="paint0_linear_206_4599" x1="67.2232" y1="94.3513" x2="68.911" y2="37.8846" gradientUnits="userSpaceOnUse">
<stop offset="2.7e-07" stop-color="#95D543"/>
<stop offset="0.2613" stop-color="#72B74E"/>
<stop offset="0.5762" stop-color="#4F9959"/>
<stop offset="0.8338" stop-color="#398760"/>
<stop offset="1" stop-color="#318063"/>
</linearGradient>
<linearGradient id="paint1_linear_206_4599" x1="24.1722" y1="93.0642" x2="25.86" y2="36.5975" gradientUnits="userSpaceOnUse">
<stop offset="2.7e-07" stop-color="#95D543"/>
<stop offset="0.2613" stop-color="#72B74E"/>
<stop offset="0.5762" stop-color="#4F9959"/>
<stop offset="0.8338" stop-color="#398760"/>
<stop offset="1" stop-color="#318063"/>
</linearGradient>
<linearGradient id="paint2_linear_206_4599" x1="38.3431" y1="21.9173" x2="63.0385" y2="78.0237" gradientUnits="userSpaceOnUse">
<stop stop-color="#F8A45B"/>
<stop offset="0.2171" stop-color="#C97F40"/>
<stop offset="0.4733" stop-color="#985825"/>
<stop offset="0.6987" stop-color="#743C11"/>
<stop offset="0.8819" stop-color="#5E2B04"/>
<stop offset="1" stop-color="#562500"/>
</linearGradient>
<linearGradient id="paint3_linear_206_4599" x1="106.294" y1="83.5378" x2="30.2584" y2="25.5361" gradientUnits="userSpaceOnUse">
<stop stop-color="#F8A45B"/>
<stop offset="0.3936" stop-color="#CC7937"/>
<stop offset="0.7917" stop-color="#A55318"/>
<stop offset="1" stop-color="#96440C"/>
</linearGradient>
<linearGradient id="paint4_linear_206_4599" x1="35.6155" y1="16.8615" x2="63.6812" y2="73.4215" gradientUnits="userSpaceOnUse">
<stop stop-color="#F8A45B"/>
<stop offset="0.3936" stop-color="#CC7937"/>
<stop offset="0.7917" stop-color="#A55318"/>
<stop offset="1" stop-color="#96440C"/>
</linearGradient>
<linearGradient id="paint5_linear_206_4599" x1="18.5348" y1="28.4445" x2="18.968" y2="34.1852" gradientUnits="userSpaceOnUse">
<stop offset="0.3844" stop-color="#96440C"/>
<stop offset="0.3989" stop-color="#9A4810"/>
<stop offset="0.5039" stop-color="#B76427"/>
</linearGradient>
<linearGradient id="paint6_linear_206_4599" x1="47.3621" y1="41.4549" x2="48.4452" y2="49.5785" gradientUnits="userSpaceOnUse">
<stop offset="0.3844" stop-color="#96440C"/>
<stop offset="0.3989" stop-color="#9A4810"/>
<stop offset="0.5039" stop-color="#B76427"/>
</linearGradient>
<linearGradient id="paint7_linear_206_4599" x1="66.6278" y1="56.05" x2="67.9372" y2="61.7785" gradientUnits="userSpaceOnUse">
<stop offset="0.3844" stop-color="#96440C"/>
<stop offset="0.3989" stop-color="#9A4810"/>
<stop offset="0.5039" stop-color="#B76427"/>
</linearGradient>
<linearGradient id="paint8_linear_206_4599" x1="59.929" y1="14.5856" x2="61.5536" y2="22.3842" gradientUnits="userSpaceOnUse">
<stop offset="0.3844" stop-color="#96440C"/>
<stop offset="0.3989" stop-color="#9A4810"/>
<stop offset="0.5039" stop-color="#B76427"/>
</linearGradient>
<linearGradient id="paint9_linear_206_4599" x1="47.5" y1="32" x2="47.5" y2="63" gradientUnits="userSpaceOnUse">
<stop stop-color="#EC9851"/>
<stop offset="1" stop-color="#9F4D13"/>
</linearGradient>
<linearGradient id="paint10_linear_206_4599" x1="70.5856" y1="50.2092" x2="82.8333" y2="71.8714" gradientUnits="userSpaceOnUse">
<stop stop-color="#318063"/>
<stop offset="0.354" stop-color="#23674D"/>
<stop offset="0.7462" stop-color="#16513A"/>
<stop offset="1" stop-color="#124933"/>
</linearGradient>
<linearGradient id="paint11_linear_206_4599" x1="73.1193" y1="59.5555" x2="90.6113" y2="72.0155" gradientUnits="userSpaceOnUse">
<stop offset="2.7e-07" stop-color="#95D543"/>
<stop offset="0.0319" stop-color="#98D748"/>
<stop offset="0.349" stop-color="#B8E879"/>
<stop offset="0.6275" stop-color="#D0F59D"/>
<stop offset="0.8539" stop-color="#DEFCB3"/>
<stop offset="1" stop-color="#E3FFBB"/>
</linearGradient>
<linearGradient id="paint12_linear_206_4599" x1="81.6276" y1="66.5309" x2="62.0612" y2="47.1063" gradientUnits="userSpaceOnUse">
<stop offset="2.7e-07" stop-color="#95D543"/>
<stop offset="0.0319" stop-color="#98D748"/>
<stop offset="0.349" stop-color="#B8E879"/>
<stop offset="0.6275" stop-color="#D0F59D"/>
<stop offset="0.8539" stop-color="#DEFCB3"/>
<stop offset="1" stop-color="#E3FFBB"/>
</linearGradient>
</defs>
</svg>
