<svg width="141" height="81" viewBox="0 0 141 81" fill="none" xmlns="http://www.w3.org/2000/svg">
<path d="M23.0016 34.5626L30.228 44.8626C30.6547 45.4708 31.3532 45.8299 32.0961 45.8232L44.6777 45.7096C46.5483 45.6927 47.6265 47.8283 46.502 49.3234L38.9392 59.3789C38.4926 59.9726 38.3668 60.748 38.6028 61.4525L42.5989 73.3833C43.193 75.1572 41.4952 76.8424 39.7257 76.235L27.8252 72.1496C27.1226 71.9083 26.3462 72.0284 25.7491 72.4703L15.6371 79.9577C14.1336 81.0709 12.0063 79.9769 12.037 78.1065L12.2451 65.5259C12.2573 64.783 11.9034 64.0818 11.2983 63.6506L1.05269 56.3473C-0.470616 55.2615 -0.087671 52.9 1.70097 52.3514L13.73 48.6616C14.4402 48.4437 14.9979 47.8903 15.2209 47.1817L19.0007 35.1807C19.5629 33.3965 21.9272 33.031 23.0016 34.5626Z" fill="url(#paint0_linear_206_3553)"/>
<path d="M22.1904 34.6473L29.1878 44.6208C29.6009 45.2097 30.2774 45.5576 30.9967 45.5511L43.1796 45.4411C44.991 45.4246 46.0348 47.4925 44.9461 48.9402L37.6229 58.6771C37.1904 59.252 37.0686 60.0027 37.297 60.6849L41.1665 72.2374C41.7418 73.9551 40.0978 75.5869 38.3843 74.9987L26.8611 71.0427C26.1808 70.8092 25.4291 70.9253 24.851 71.3533L15.0595 78.6032C13.6036 79.6812 11.5437 78.6217 11.5737 76.8105L11.7751 64.6287C11.7872 63.9094 11.4443 63.2304 10.8586 62.8129L0.937678 55.7409C-0.537367 54.6895 -0.16644 52.403 1.5653 51.8717L13.2131 48.2989C13.9008 48.0879 14.4407 47.552 14.6567 46.866L18.3169 35.2454C18.8608 33.5183 21.15 33.1644 22.1904 34.6473Z" fill="url(#paint1_linear_206_3553)"/>
<path d="M22.0033 34.6673L28.9477 44.5654C29.3578 45.1498 30.0291 45.495 30.7429 45.4887L42.8337 45.3795C44.6314 45.3633 45.6674 47.4156 44.5867 48.8523L37.3189 58.5156C36.8898 59.0861 36.7689 59.8313 36.9957 60.5083L40.8357 71.9736C41.4067 73.6783 39.7751 75.2977 38.0747 74.7139L26.6385 70.7879C25.9633 70.556 25.2172 70.6713 24.6436 71.0962L14.926 78.2914C13.4811 79.3612 11.4369 78.31 11.4666 76.5123L11.6664 64.4225C11.6782 63.7087 11.338 63.0348 10.7566 62.6204L0.910687 55.602C-0.553188 54.5586 -0.185021 52.2892 1.53365 51.7621L13.0934 48.2162C13.776 48.007 14.3117 47.475 14.526 46.7941L18.1586 35.2612C18.6987 33.5465 20.9706 33.1954 22.0033 34.6673Z" fill="url(#paint2_linear_206_3553)"/>
<path d="M22.9028 38.2091L28.8226 46.6467C29.172 47.1449 29.7444 47.4391 30.3528 47.4336L40.6596 47.3405C42.192 47.3266 43.075 49.076 42.1541 50.3007L35.9586 58.5381C35.5928 59.0245 35.4897 59.6597 35.6831 60.2368L38.9565 70.0103C39.4434 71.4635 38.0524 72.8439 36.6029 72.3463L26.8542 68.9996C26.2786 68.8019 25.6426 68.9003 25.1536 69.2624L16.8701 75.3959C15.6384 76.3078 13.8957 75.4117 13.921 73.8793L14.0913 63.5736C14.1014 62.9651 13.8114 62.3906 13.3157 62.0374L4.92279 56.0546C3.67493 55.165 3.98874 53.2308 5.45388 52.7812L15.3078 49.7586C15.8896 49.5801 16.3463 49.1268 16.529 48.5464L19.6254 38.7153C20.0859 37.2537 22.0227 36.9545 22.9028 38.2091Z" fill="url(#paint3_linear_206_3553)"/>
<path d="M35.064 58.0619C34.7078 58.5348 34.6085 59.1538 34.7965 59.715L37.9841 69.2327C38.4577 70.6477 37.1041 71.9908 35.691 71.5063L26.1985 68.2483C25.6384 68.0557 25.0196 68.1511 24.5437 68.5042L16.4777 74.4758C15.2785 75.3639 13.5807 74.4924 13.607 73.0001L13.7301 65.4409L13.771 62.9644C13.7826 62.3721 13.4993 61.8124 13.0169 61.4691L4.84462 55.6437C3.62922 54.7763 3.93437 52.8942 5.36221 52.4561L14.9571 49.5132C15.5225 49.3395 15.9678 48.8978 16.1466 48.3323L19.1615 38.7594C19.609 37.337 21.4944 37.0456 22.3521 38.2662L28.1163 46.4824C28.4556 46.9679 29.0135 47.2546 29.6068 47.2491L39.6426 47.1582C39.8147 47.1559 39.9774 47.1776 40.1298 47.2179C41.3083 47.5306 41.891 48.9848 41.0965 50.0411L35.064 58.0619Z" fill="url(#paint4_linear_206_3553)"/>
<g opacity="0.6">
<path d="M35.0639 58.0617C34.7078 58.5347 34.6085 59.1537 34.7965 59.7149L37.9841 69.2326C38.4577 70.6476 37.104 71.9907 35.6909 71.5062L26.1985 68.2482C25.6383 68.0556 25.0196 68.151 24.5437 68.504L16.4776 74.4757C15.2785 75.3638 13.5806 74.4923 13.607 73L13.7301 65.4408C26.9275 61.0321 35.8682 52.2303 40.1298 47.2178C41.3083 47.5305 41.891 48.9847 41.0965 50.041L35.0639 58.0617Z" fill="#F8A45B"/>
</g>
<path d="M117.998 34.5626L110.771 44.8626C110.345 45.4708 109.646 45.8299 108.903 45.8232L96.3217 45.7096C94.4511 45.6927 93.3731 47.8283 94.4975 49.3234L102.06 59.3789C102.507 59.9726 102.633 60.748 102.397 61.4525L98.4006 73.3833C97.8065 75.1572 99.5043 76.8424 101.274 76.235L113.174 72.1496C113.877 71.9083 114.653 72.0284 115.25 72.4703L125.362 79.9577C126.866 81.0709 128.993 79.9769 128.962 78.1065L128.754 65.5259C128.742 64.783 129.096 64.0818 129.701 63.6506L139.947 56.3473C141.47 55.2615 141.087 52.9 139.298 52.3514L127.269 48.6616C126.559 48.4437 126.001 47.8903 125.778 47.1817L121.999 35.1807C121.436 33.3965 119.072 33.031 117.998 34.5626Z" fill="url(#paint5_linear_206_3553)"/>
<path d="M118.809 34.6473L111.812 44.6208C111.399 45.2097 110.722 45.5576 110.003 45.5511L97.8203 45.4411C96.0089 45.4246 94.965 47.4925 96.0538 48.9402L103.377 58.6771C103.809 59.252 103.931 60.0027 103.703 60.6849L99.8332 72.2374C99.2578 73.9551 100.902 75.5869 102.615 74.9987L114.139 71.0427C114.819 70.8092 115.571 70.9253 116.149 71.3533L125.94 78.6032C127.396 79.6812 129.456 78.6217 129.426 76.8105L129.224 64.6287C129.213 63.9094 129.555 63.2304 130.141 62.8129L140.062 55.7409C141.537 54.6895 141.166 52.403 139.434 51.8717L127.787 48.2989C127.099 48.0879 126.559 47.552 126.343 46.866L122.683 35.2454C122.139 33.5183 119.85 33.1644 118.809 34.6473Z" fill="url(#paint6_linear_206_3553)"/>
<path d="M118.997 34.6673L112.052 44.5654C111.642 45.1498 110.971 45.495 110.257 45.4887L98.1661 45.3795C96.3684 45.3633 95.3324 47.4156 96.4131 48.8523L103.681 58.5156C104.11 59.0861 104.231 59.8313 104.004 60.5083L100.164 71.9736C99.5933 73.6783 101.225 75.2977 102.925 74.7139L114.361 70.7879C115.037 70.556 115.783 70.6713 116.356 71.0962L126.074 78.2914C127.519 79.3612 129.563 78.31 129.533 76.5123L129.334 64.4225C129.322 63.7087 129.662 63.0348 130.243 62.6204L140.089 55.602C141.553 54.5586 141.185 52.2892 139.466 51.7621L127.907 48.2162C127.224 48.007 126.688 47.475 126.474 46.7941L122.841 35.2612C122.301 33.5465 120.029 33.1954 118.997 34.6673Z" fill="url(#paint7_linear_206_3553)"/>
<path d="M118.097 38.2091L112.177 46.6467C111.828 47.1449 111.255 47.4391 110.647 47.4336L100.34 47.3405C98.8077 47.3266 97.9245 49.076 98.8457 50.3007L105.041 58.5381C105.407 59.0245 105.51 59.6597 105.317 60.2368L102.043 70.0103C101.557 71.4635 102.948 72.8439 104.397 72.3463L114.146 68.9996C114.721 68.8019 115.357 68.9003 115.847 69.2624L124.13 75.3959C125.362 76.3078 127.104 75.4117 127.079 73.8793L126.909 63.5736C126.899 62.9651 127.189 62.3906 127.684 62.0374L136.077 56.0546C137.325 55.165 137.011 53.2308 135.546 52.7812L125.692 49.7586C125.111 49.5801 124.654 49.1268 124.471 48.5464L121.375 38.7153C120.914 37.2537 118.977 36.9545 118.097 38.2091Z" fill="url(#paint8_linear_206_3553)"/>
<path d="M74.3082 2.0722L83.4776 20.6514C84.019 21.7483 85.0656 22.5087 86.2762 22.6845L106.78 25.6639C109.828 26.1069 111.046 29.8532 108.84 32.0035L94.0032 46.4654C93.1273 47.3194 92.7275 48.5495 92.9342 49.7552L96.4365 70.1757C96.9572 73.212 93.7705 75.5273 91.0438 74.0938L72.7049 64.4526C71.622 63.8833 70.3286 63.8833 69.2458 64.4526L50.9069 74.0938C48.1802 75.5273 44.9934 73.2118 45.5142 70.1757L49.0167 49.7552C49.2234 48.5495 48.8236 47.3194 47.9478 46.4654L33.1113 32.0037C30.9054 29.8534 32.1227 26.1071 35.1712 25.6641L55.6747 22.6847C56.8853 22.5087 57.9318 21.7485 58.4733 20.6516L67.6426 2.07241C69.0058 -0.690117 72.9449 -0.690115 74.3082 2.0722Z" fill="url(#paint9_linear_206_3553)"/>
<path d="M72.9667 2.0063L81.8455 19.9966C82.3698 21.0588 83.3831 21.795 84.5553 21.9655L104.409 24.8504C107.361 25.2793 108.539 28.907 106.403 30.9892L92.0371 44.9927C91.1889 45.8195 90.802 47.0109 91.0022 48.1782L94.3936 67.9515C94.8979 70.8915 91.8121 73.1335 89.1718 71.7454L71.4141 62.4098C70.3656 61.8587 69.1131 61.8587 68.0646 62.4098L50.3072 71.7454C47.6669 73.1335 44.5811 70.8915 45.0854 67.9515L48.4769 48.1782C48.6771 47.0107 48.2901 45.8195 47.4418 44.9927L33.0756 30.9892C30.9396 28.907 32.1184 25.2795 35.0701 24.8504L54.9237 21.9655C56.0959 21.7952 57.1092 21.0588 57.6336 19.9966L66.5123 2.0063C67.8322 -0.668765 71.6466 -0.668765 72.9667 2.0063Z" fill="url(#paint10_linear_206_3553)"/>
<path d="M72.6571 1.99112L81.4688 19.8455C81.9892 20.8997 82.9947 21.6304 84.158 21.7994L103.862 24.6624C106.791 25.0882 107.961 28.6884 105.841 30.7548L91.5836 44.6526C90.7419 45.473 90.3577 46.6554 90.5564 47.8141L93.9221 67.4379C94.4226 70.3558 91.36 72.5807 88.7397 71.2032L71.1164 61.938C70.0759 61.3908 68.8326 61.3908 67.7921 61.938L50.1688 71.2032C47.5485 72.5809 44.4858 70.3558 44.9864 67.4379L48.3521 47.8141C48.5508 46.6554 48.1666 45.4733 47.3249 44.6526L33.0672 30.7548C30.9472 28.6884 32.1171 25.0882 35.0467 24.6624L54.7503 21.7994C55.9136 21.6304 56.9193 20.8997 57.4395 19.8455L66.2511 1.99112C67.5614 -0.663707 71.3469 -0.663707 72.6571 1.99112Z" fill="url(#paint11_linear_206_3553)"/>
<path d="M73.23 7.98097L80.7414 23.2008C81.1848 24.0994 82.0421 24.7222 83.0337 24.8663L99.8298 27.307C102.327 27.67 103.324 30.7389 101.517 32.5004L89.3634 44.3473C88.6458 45.0468 88.3186 46.0546 88.4878 47.0422L91.3569 63.7703C91.7835 66.2576 89.1729 68.1544 86.9392 66.9801L71.9164 59.0822C71.0294 58.6158 69.9697 58.6158 69.0829 59.0822L54.0601 66.9801C51.8264 68.1544 49.2158 66.2576 49.6424 63.7703L52.5115 47.0422C52.681 46.0546 52.3535 45.0468 51.6359 44.3473L39.4821 32.5004C37.6751 30.7389 38.6721 27.67 41.1695 27.307L57.9655 24.8663C58.9573 24.7222 59.8145 24.0994 60.2581 23.2008L67.7695 7.98097C68.8864 5.71793 72.1132 5.71793 73.23 7.98097Z" fill="url(#paint12_linear_206_3553)"/>
<path d="M88.0277 43.3477C87.3293 44.0278 87.0121 45.0099 87.1767 45.9707L89.9706 62.2611C90.3854 64.6829 87.8448 66.5282 85.6669 65.3844L71.0386 57.6952C70.1754 57.2408 69.1446 57.2408 68.2814 57.6952L53.6532 65.3844C51.4784 66.5282 48.9347 64.6829 49.3526 62.2611L51.454 49.9908L52.1433 45.9707C52.3111 45.0099 51.9908 44.0278 51.2924 43.3477L39.4581 31.8122C37.6981 30.095 38.6682 27.1091 41.1021 26.7553L57.4566 24.3793C58.4205 24.2389 59.2562 23.6319 59.6893 22.7567L67.0034 7.93627C68.0892 5.73413 71.2309 5.73413 72.3198 7.93627L79.6339 22.7567C80.064 23.6319 80.8997 24.2389 81.8666 24.3793L98.2211 26.7553C98.5016 26.7949 98.761 26.8712 98.9987 26.9749C100.838 27.7802 101.421 30.2934 99.8618 31.8122L88.0277 43.3477Z" fill="url(#paint13_linear_206_3553)"/>
<g opacity="0.6">
<path d="M88.028 43.3479C87.3295 44.028 87.0123 45.0101 87.1769 45.9709L89.9709 62.2613C90.3856 64.6831 87.845 66.5284 85.6671 65.3847L71.0389 57.6954C70.1757 57.241 69.1449 57.241 68.2816 57.6954L53.6534 65.3847C51.4787 66.5284 48.9349 64.6831 49.3528 62.2613L51.4542 49.991C74.04 46.1357 90.8031 34.0605 98.9988 26.9751C100.838 27.7804 101.421 30.2936 99.8618 31.8125L88.028 43.3479Z" fill="#F8A45B"/>
</g>
<defs>
<linearGradient id="paint0_linear_206_3553" x1="10.6682" y1="36.3163" x2="36.1152" y2="72.46" gradientUnits="userSpaceOnUse">
<stop stop-color="#F8A45B"/>
<stop offset="0.2171" stop-color="#C97F40"/>
<stop offset="0.4733" stop-color="#985825"/>
<stop offset="0.6987" stop-color="#743C11"/>
<stop offset="0.8819" stop-color="#5E2B04"/>
<stop offset="1" stop-color="#562500"/>
</linearGradient>
<linearGradient id="paint1_linear_206_3553" x1="19.8361" y1="53.1655" x2="58.3255" y2="93.5647" gradientUnits="userSpaceOnUse">
<stop stop-color="#F8A45B"/>
<stop offset="0.3936" stop-color="#CC7937"/>
<stop offset="0.7917" stop-color="#A55318"/>
<stop offset="1" stop-color="#96440C"/>
</linearGradient>
<linearGradient id="paint2_linear_206_3553" x1="17.3448" y1="44.6428" x2="37.6659" y2="77.1013" gradientUnits="userSpaceOnUse">
<stop stop-color="#F8A45B"/>
<stop offset="0.3936" stop-color="#CC7937"/>
<stop offset="0.7917" stop-color="#A55318"/>
<stop offset="1" stop-color="#96440C"/>
</linearGradient>
<linearGradient id="paint3_linear_206_3553" x1="11.4596" y1="41.7361" x2="48.2127" y2="85.1798" gradientUnits="userSpaceOnUse">
<stop stop-color="#F8A45B"/>
<stop offset="0.2171" stop-color="#C97F40"/>
<stop offset="0.4733" stop-color="#985825"/>
<stop offset="0.6987" stop-color="#743C11"/>
<stop offset="0.8819" stop-color="#5E2B04"/>
<stop offset="1" stop-color="#562500"/>
</linearGradient>
<linearGradient id="paint4_linear_206_3553" x1="19.712" y1="48.9026" x2="31.232" y2="66.7197" gradientUnits="userSpaceOnUse">
<stop offset="5.4e-07" stop-color="#FBE774"/>
<stop offset="0.1675" stop-color="#FADA6F"/>
<stop offset="0.7142" stop-color="#F9B361"/>
<stop offset="1" stop-color="#F8A45B"/>
</linearGradient>
<linearGradient id="paint5_linear_206_3553" x1="130.331" y1="36.3163" x2="104.884" y2="72.46" gradientUnits="userSpaceOnUse">
<stop stop-color="#F8A45B"/>
<stop offset="0.2171" stop-color="#C97F40"/>
<stop offset="0.4733" stop-color="#985825"/>
<stop offset="0.6987" stop-color="#743C11"/>
<stop offset="0.8819" stop-color="#5E2B04"/>
<stop offset="1" stop-color="#562500"/>
</linearGradient>
<linearGradient id="paint6_linear_206_3553" x1="121.164" y1="53.1655" x2="82.6742" y2="93.5646" gradientUnits="userSpaceOnUse">
<stop stop-color="#F8A45B"/>
<stop offset="0.3936" stop-color="#CC7937"/>
<stop offset="0.7917" stop-color="#A55318"/>
<stop offset="1" stop-color="#96440C"/>
</linearGradient>
<linearGradient id="paint7_linear_206_3553" x1="123.655" y1="44.6428" x2="103.334" y2="77.1013" gradientUnits="userSpaceOnUse">
<stop stop-color="#F8A45B"/>
<stop offset="0.3936" stop-color="#CC7937"/>
<stop offset="0.7917" stop-color="#A55318"/>
<stop offset="1" stop-color="#96440C"/>
</linearGradient>
<linearGradient id="paint8_linear_206_3553" x1="129.54" y1="41.7361" x2="92.7869" y2="85.1798" gradientUnits="userSpaceOnUse">
<stop stop-color="#F8A45B"/>
<stop offset="0.2171" stop-color="#C97F40"/>
<stop offset="0.4733" stop-color="#985825"/>
<stop offset="0.6987" stop-color="#743C11"/>
<stop offset="0.8819" stop-color="#5E2B04"/>
<stop offset="1" stop-color="#562500"/>
</linearGradient>
<linearGradient id="paint9_linear_206_3553" x1="53.7951" y1="1.8256" x2="86.1184" y2="67.0427" gradientUnits="userSpaceOnUse">
<stop stop-color="#F8A45B"/>
<stop offset="0.2171" stop-color="#C97F40"/>
<stop offset="0.4733" stop-color="#985825"/>
<stop offset="0.6987" stop-color="#743C11"/>
<stop offset="0.8819" stop-color="#5E2B04"/>
<stop offset="1" stop-color="#562500"/>
</linearGradient>
<linearGradient id="paint10_linear_206_3553" x1="64.4779" y1="31.5505" x2="116.956" y2="106.972" gradientUnits="userSpaceOnUse">
<stop stop-color="#F8A45B"/>
<stop offset="0.3936" stop-color="#CC7937"/>
<stop offset="0.7917" stop-color="#A55318"/>
<stop offset="1" stop-color="#96440C"/>
</linearGradient>
<linearGradient id="paint11_linear_206_3553" x1="62.5664" y1="17.0542" x2="87.4749" y2="74.9853" gradientUnits="userSpaceOnUse">
<stop stop-color="#F8A45B"/>
<stop offset="0.3936" stop-color="#CC7937"/>
<stop offset="0.7917" stop-color="#A55318"/>
<stop offset="1" stop-color="#96440C"/>
</linearGradient>
<linearGradient id="paint12_linear_206_3553" x1="53.7201" y1="10.8439" x2="102.607" y2="90.7832" gradientUnits="userSpaceOnUse">
<stop stop-color="#F8A45B"/>
<stop offset="0.2171" stop-color="#C97F40"/>
<stop offset="0.4733" stop-color="#985825"/>
<stop offset="0.6987" stop-color="#743C11"/>
<stop offset="0.8819" stop-color="#5E2B04"/>
<stop offset="1" stop-color="#562500"/>
</linearGradient>
<linearGradient id="paint13_linear_206_3553" x1="65.3476" y1="24.582" x2="79.6148" y2="56.4734" gradientUnits="userSpaceOnUse">
<stop offset="5.4e-07" stop-color="#FBE774"/>
<stop offset="0.1675" stop-color="#FADA6F"/>
<stop offset="0.7142" stop-color="#F9B361"/>
<stop offset="1" stop-color="#F8A45B"/>
</linearGradient>
</defs>
</svg>
